{
.appVersion = "1230";
DisplayStrings = (
"Manhattan\012Staten Isltttttand\012Brookltyn\012Queens\012The Bronx",
"",
"§§§s§+§§§",
s,
"\012Robert \012Boucher, Jr.\012&\012Vicki \012Vallencourt",
"/t_alt",
""
);
customParameters = (
{
name = glyphOrder;
value = (
A,
B,
C,
D,
E,
F,
G,
H,
I,
J,
K,
L,
M,
N,
O,
P,
Q,
R,
S,
T,
U,
V,
W,
X,
Y,
Z,
ampersand,
a,
b,
c,
d,
e,
f,
g,
h,
i,
j,
k,
l,
m,
n,
o,
p,
q,
r,
s,
t,
u,
v,
w,
x,
y,
z,
zero,
one,
two,
three,
four,
five,
six,
seven,
eight,
nine,
cent,
dollar,
euro,
percent,
period,
comma,
colon,
semicolon,
exclam,
exclamdown,
question,
questiondown,
slash,
parenleft,
parenright,
hyphen,
endash,
emdash,
quotedblleft,
quotedblright,
quoteleft,
quoteright,
quotedbl,
quotesingle
);
}
);
date = "2019-04-01 01:57:23 +0000";
familyName = Norm;
featurePrefixes = (
{
code = "";
name = Languagesystems;
}
);
fontMaster = (
{
alignmentZones = (
"{800, 10}",
"{700, 10}",
"{500, 10}",
"{0, -10}",
"{-300, -10}"
);
ascender = 800;
capHeight = 700;
custom = Thin;
descender = -300;
guideLines = (
{
locked = 1;
position = "{286, 510}";
},
{
locked = 1;
position = "{309, 710}";
},
{
locked = 1;
position = "{265, -10}";
}
);
iconName = Light;
id = "273DC1B6-0844-4B23-906D-30A1B3BA0B12";
userData = {
GSCornerRadius = 8;
};
xHeight = 500;
},
{
alignmentZones = (
"{800, 10}",
"{700, 10}",
"{500, 10}",
"{0, -10}",
"{-300, -10}"
);
ascender = 800;
capHeight = 700;
descender = -300;
guideLines = (
{
locked = 1;
position = "{241, -10}";
},
{
locked = 1;
position = "{285, 510}";
},
{
locked = 1;
position = "{326, 710}";
}
);
id = "B5B6FC57-28DA-495E-8DF1-4E68D36FF5F4";
userData = {
GSCornerRadius = 8;
};
weightValue = 400;
xHeight = 500;
},
{
alignmentZones = (
"{800, 20}",
"{700, 20}",
"{500, 20}",
"{0, -20}",
"{-300, -20}"
);
ascender = 800;
capHeight = 700;
descender = -300;
guideLines = (
{
angle = 90;
locked = 1;
position = "{167, 720}";
},
{
locked = 1;
position = "{244, -20}";
},
{
locked = 1;
position = "{378, 520}";
}
);

glyphs = (
{
glyphname = A;
lastChange = "2019-05-08 23:35:41 +0000";
layers = (
{
layerId = "B5B6FC57-28DA-495E-8DF1-4E68D36FF5F4";
paths = (
{
closed = 1;
nodes = (
"170 210 LINE",
"557 210 LINE",
"557 280 LINE",
"170 280 LINE"
);
},
{
closed = 1;
nodes = (
"700 0 LINE",
"425 700 LINE",
"339 700 LINE",
"614 0 LINE"
);
},
{
closed = 1;
nodes = (
"385 700 LINE",
"299 700 LINE",
"24 0 LINE",
"110 0 LINE"
);
}
);
width = 724;
},
{
layerId = "273DC1B6-0844-4B23-906D-30A1B3BA0B12";
paths = (
{
closed = 1;
nodes = (
"140 219 LINE",
"567 219 LINE",
"567 248 LINE",
"140 248 LINE"
);
},
{
closed = 1;
nodes = (
"681 0 LINE",
"376 700 LINE",
"343 700 LINE",
"648 0 LINE"
);
},
{
closed = 1;
nodes = (
"362 700 LINE",
"329 700 LINE",
"24 0 LINE",
"57 0 LINE"
);
}
);
width = 705;
},
{
layerId = "0E084538-2240-41A5-9525-5B99B37478DA";
paths = (
{
closed = 1;
nodes = (
"187 190 LINE",
"564 190 LINE",
"564 306 LINE",
"187 306 LINE"
);
},
{
closed = 1;
nodes = (
"714 1 LINE",
"504 701 LINE",
"340 701 LINE",
"550 1 LINE"
);
},
{
closed = 1;
nodes = (
"408 701 LINE",
"244 701 LINE",
"34 1 LINE",
"198 1 LINE"
);
}
);
width = 748;
},
{
associatedMasterId = "273DC1B6-0844-4B23-906D-30A1B3BA0B12";
layerId = "F7ECBC73-3A47-4B5E-8399-0D68297ADC4A";
width = 600;
},
{
associatedMasterId = "273DC1B6-0844-4B23-906D-30A1B3BA0B12";
layerId = "52F1352D-4D3B-40D4-B1B1-6B0940146373";
name = "Apr 29 19, 15:48";
paths = (
{
closed = 1;
nodes = (
"128 219 LINE",
"555 219 LINE",
"555 248 LINE",
"128 248 LINE"
);
},
{
closed = 1;
nodes = (
"669 0 LINE",
"364 700 LINE",
"331 700 LINE",
"636 0 LINE"
);
},
{
closed = 1;
nodes = (
"350 700 LINE",
"317 700 LINE",
"12 0 LINE",
"45 0 LINE"
);
}
);
width = 677;
},
{
associatedMasterId = "B5B6FC57-28DA-495E-8DF1-4E68D36FF5F4";
layerId = "CD53430A-5420-4A5E-BD5E-9F240AEAA2D3";
name = "Apr 29 19, 15:48";
paths = (
{
closed = 1;
nodes = (
"191 210 LINE",
"578 210 LINE",
"578 282 LINE",
"191 282 LINE"
);
},
{
closed = 1;
nodes = (
"752 0 LINE",
"447 700 LINE",
"360 700 LINE",
"665 0 LINE"
);
},
{
closed = 1;
nodes = (
"406 700 LINE",
"319 700 LINE",
"14 0 LINE",
"101 0 LINE"
);
}
);
width = 761;
},
{
associatedMasterId = "0E084538-2240-41A5-9525-5B99B37478DA";
layerId = "11125A1D-6C42-442E-98A9-731E9811DDCE";
name = "Apr 29 19, 15:48";
paths = (
{
closed = 1;
nodes = (
"214 190 LINE",
"591 190 LINE",
"591 306 LINE",
"214 306 LINE"
);
},
{
closed = 1;
nodes = (
"801 1 LINE",
"531 701 LINE",
"357 701 LINE",
"627 1 LINE"
);
},
{
closed = 1;
nodes = (
"445 701 LINE",
"271 701 LINE",
"1 1 LINE",
"175 1 LINE"
);
}
);
width = 803;
},
{
associatedMasterId = "B5B6FC57-28DA-495E-8DF1-4E68D36FF5F4";
layerId = "5BC71FBB-8664-42B0-9621-F425EFDFE82F";
name = "Apr 30 19, 01:05";
paths = (
{
closed = 1;
nodes = (
"191 210 LINE",
"578 210 LINE",
"578 282 LINE",
"191 282 LINE"
);
},
{
closed = 1;
nodes = (
"722 0 LINE",
"447 700 LINE",
"360 700 LINE",
"635 0 LINE"
);
},
{
closed = 1;
nodes = (
"406 700 LINE",
"319 700 LINE",
"44 0 LINE",
"131 0 LINE"
);
}
);
width = 761;
},
{
associatedMasterId = "B5B6FC57-28DA-495E-8DF1-4E68D36FF5F4";
layerId = "361E108C-1682-40A7-9C59-EEDE08FE270A";
name = "Apr 30 19, 01:20";
paths = (
{
closed = 1;
nodes = (
"191 210 LINE",
"578 210 LINE",
"578 280 LINE",
"191 280 LINE"
);
},
{
closed = 1;
nodes = (
"721 0 LINE",
"446 700 LINE",
"360 700 LINE",
"635 0 LINE"
);
},
{
closed = 1;
nodes = (
"406 700 LINE",
"320 700 LINE",
"45 0 LINE",
"131 0 LINE"
);
}
);
width = 761;
},
{
associatedMasterId = "0E084538-2240-41A5-9525-5B99B37478DA";
layerId = "90C7C1CF-3E20-47F5-B35A-F7342F9160ED";
name = "May 2 19, 18:11";
paths = (
{
closed = 1;
nodes = (
"187 190 LINE",
"564 190 LINE",
"564 306 LINE",
"187 306 LINE"
);
},
{
closed = 1;
nodes = (
"714 1 LINE",
"504 701 LINE",
"340 701 LINE",
"550 1 LINE"
);
},
{
closed = 1;
nodes = (
"408 701 LINE",
"244 701 LINE",
"34 1 LINE",
"198 1 LINE"
);
}
);
width = 748;
}
);
unicode = 0041;
},
{
glyphname = B;
lastChange = "2019-05-02 21:52:49 +0000";
layers = (
{
layerId = "B5B6FC57-28DA-495E-8DF1-4E68D36FF5F4";
paths = (
{
closed = 1;
nodes = (
"48 700 LINE",
"48 0 LINE",
"128 0 LINE",
"128 700 LINE"
);
},
{
closed = 1;
nodes = (
"282 334 LINE SMOOTH",
"429 334 OFFCURVE",
"516 404 OFFCURVE",
"516 520 CURVE SMOOTH",
"516 636 OFFCURVE",
"429 702 OFFCURVE",
"282 701 CURVE SMOOTH",
"48 700 LINE",
"48 630 LINE",
"282 631 LINE SMOOTH",
"379 631 OFFCURVE",
"436 592 OFFCURVE",
"436 520 CURVE SMOOTH",
"436 449 OFFCURVE",
"379 404 OFFCURVE",
"282 404 CURVE SMOOTH",
"48 403 LINE",
"48 334 LINE"
);
},
{
closed = 1;
nodes = (
"312 -1 LINE SMOOTH",
"478 -1 OFFCURVE",
"576 74 OFFCURVE",
"576 201 CURVE SMOOTH",
"576 329 OFFCURVE",
"478 405 OFFCURVE",
"312 404 CURVE SMOOTH",
"48 403 LINE",
"48 333 LINE",
"312 334 LINE SMOOTH",
"428 334 OFFCURVE",
"496 284 OFFCURVE",
"496 201 CURVE SMOOTH",
"496 118 OFFCURVE",
"428 69 OFFCURVE",
"312 69 CURVE SMOOTH",
"48 70 LINE",
"48 -1 LINE"
);
}
);
width = 600;
},
{
layerId = "273DC1B6-0844-4B23-906D-30A1B3BA0B12";
paths = (
{
closed = 1;
nodes = (
"48 700 LINE",
"48 0 LINE",
"78 0 LINE",
"78 700 LINE"
);
},
{
closed = 1;
nodes = (
"282 357 LINE SMOOTH",
"422 357 OFFCURVE",
"516 425 OFFCURVE",
"516 529 CURVE SMOOTH",
"516 633 OFFCURVE",
"422 702 OFFCURVE",
"282 701 CURVE SMOOTH",
"48 700 LINE",
"48 671 LINE",
"282 672 LINE SMOOTH",
"404 673 OFFCURVE",
"486 615 OFFCURVE",
"486 529 CURVE SMOOTH",
"486 444 OFFCURVE",
"404 388 OFFCURVE",
"282 387 CURVE SMOOTH",
"48 386 LINE",
"48 357 LINE"
);
},
{
closed = 1;
nodes = (
"312 -1 LINE SMOOTH",
"467 -1 OFFCURVE",
"571 78 OFFCURVE",
"571 195 CURVE SMOOTH",
"571 312 OFFCURVE",
"467 388 OFFCURVE",
"312 387 CURVE SMOOTH",
"48 386 LINE",
"48 357 LINE",
"312 358 LINE SMOOTH",
"449 359 OFFCURVE",
"541 295 OFFCURVE",
"541 195 CURVE SMOOTH",
"541 95 OFFCURVE",
"449 27 OFFCURVE",
"312 28 CURVE SMOOTH",
"48 29 LINE",
"48 -1 LINE"
);
}
);
width = 595;
},
{
layerId = "0E084538-2240-41A5-9525-5B99B37478DA";
paths = (
{
closed = 1;
nodes = (
"48 700 LINE",
"48 0 LINE",
"210 0 LINE",
"210 700 LINE"
);
},
{
closed = 1;
nodes = (
"317 307 LINE SMOOTH",
"494 307 OFFCURVE",
"586 365 OFFCURVE",
"586 495 CURVE SMOOTH",
"586 625 OFFCURVE",
"494 702 OFFCURVE",
"317 701 CURVE SMOOTH",
"48 700 LINE",
"48 560 LINE",
"317 561 LINE SMOOTH",
"387 561 OFFCURVE",
"424 539 OFFCURVE",
"424 495 CURVE SMOOTH",
"424 452 OFFCURVE",
"387 429 OFFCURVE",
"317 430 CURVE SMOOTH",
"48 429 LINE",
"48 307 LINE"
);
},
{
closed = 1;
nodes = (
"347 -1 LINE SMOOTH",
"544 -1 OFFCURVE",
"647 82 OFFCURVE",
"647 224 CURVE SMOOTH",
"647 366 OFFCURVE",
"544 431 OFFCURVE",
"347 430 CURVE SMOOTH",
"48 429 LINE",
"48 306 LINE",
"347 307 LINE SMOOTH",
"438 307 OFFCURVE",
"485 279 OFFCURVE",
"485 224 CURVE SMOOTH",
"485 170 OFFCURVE",
"438 140 OFFCURVE",
"347 139 CURVE SMOOTH",
"48 140 LINE",
"48 -1 LINE"
);
}
);
width = 671;
},
{
associatedMasterId = "273DC1B6-0844-4B23-906D-30A1B3BA0B12";
layerId = "F7ECBC73-3A47-4B5E-8399-0D68297ADC4A";
width = 600;
},
{
associatedMasterId = "273DC1B6-0844-4B23-906D-30A1B3BA0B12";
layerId = "D1DD0547-D6A1-4665-BAC9-A7F9EDF1CA09";
name = "Apr 29 19, 15:31";
paths = (
{
closed = 1;
nodes = (
"80 700 LINE",
"80 0 LINE",
"110 0 LINE",
"110 700 LINE"
);
},
{
closed = 1;
nodes = (
"314 357 LINE SMOOTH",
"454 357 OFFCURVE",
"548 422 OFFCURVE",
"548 520 CURVE SMOOTH",
"548 630 OFFCURVE",
"454 702 OFFCURVE",
"314 701 CURVE SMOOTH",
"80 700 LINE",
"80 670 LINE",
"314 671 LINE SMOOTH",
"436 672 OFFCURVE",
"518 611 OFFCURVE",
"518 520 CURVE SMOOTH",
"518 440 OFFCURVE",
"436 388 OFFCURVE",
"314 387 CURVE SMOOTH",
"80 386 LINE",
"80 357 LINE"
);
},
{
closed = 1;
nodes = (
"344 -1 LINE SMOOTH",
"499 -1 OFFCURVE",
"603 82 OFFCURVE",
"603 206 CURVE SMOOTH",
"603 316 OFFCURVE",
"499 388 OFFCURVE",
"344 387 CURVE SMOOTH",
"80 386 LINE",
"80 357 LINE",
"344 358 LINE SMOOTH",
"481 359 OFFCURVE",
"573 297 OFFCURVE",
"573 206 CURVE SMOOTH",
"573 99 OFFCURVE",
"481 27 OFFCURVE",
"344 28 CURVE SMOOTH",
"80 29 LINE",
"80 -1 LINE"
);
}
);
width = 643;
},
{
associatedMasterId = "B5B6FC57-28DA-495E-8DF1-4E68D36FF5F4";
layerId = "6C29CF1D-B970-4C9C-AFAE-F13F4DD9E112";
name = "Apr 29 19, 15:31";
paths = (
{
closed = 1;
nodes = (
"76 700 LINE",
"76 0 LINE",
"156 0 LINE",
"156 700 LINE"
);
},
{
closed = 1;
nodes = (
"310 331 LINE SMOOTH",
"457 331 OFFCURVE",
"544 401 OFFCURVE",
"544 520 CURVE SMOOTH",
"544 635 OFFCURVE",
"457 702 OFFCURVE",
"310 701 CURVE SMOOTH",
"76 700 LINE",
"76 624 LINE",
"310 625 LINE SMOOTH",
"407 625 OFFCURVE",
"464 586 OFFCURVE",
"464 520 CURVE SMOOTH",
"464 449 OFFCURVE",
"407 407 OFFCURVE",
"310 407 CURVE SMOOTH",
"76 406 LINE",
"76 331 LINE"
);
},
{
closed = 1;
nodes = (
"340 -1 LINE SMOOTH",
"506 -1 OFFCURVE",
"604 76 OFFCURVE",
"604 206 CURVE SMOOTH",
"604 333 OFFCURVE",
"506 408 OFFCURVE",
"340 407 CURVE SMOOTH",
"76 406 LINE",
"76 330 LINE",
"340 331 LINE SMOOTH",
"456 331 OFFCURVE",
"524 285 OFFCURVE",
"524 206 CURVE SMOOTH",
"524 124 OFFCURVE",
"456 75 OFFCURVE",
"340 75 CURVE SMOOTH",
"76 76 LINE",
"76 -1 LINE"
);
}
);
width = 642;
},
{
associatedMasterId = "0E084538-2240-41A5-9525-5B99B37478DA";
layerId = "29359B46-1BA1-4BDE-B2A3-3164272F6493";
name = "Apr 29 19, 15:31";
paths = (
{
closed = 1;
nodes = (
"64 700 LINE",
"64 0 LINE",
"227 0 LINE",
"227 700 LINE"
);
},
{
closed = 1;
nodes = (
"333 307 LINE SMOOTH",
"510 307 OFFCURVE",
"602 373 OFFCURVE",
"602 500 CURVE SMOOTH",
"602 633 OFFCURVE",
"510 702 OFFCURVE",
"333 701 CURVE SMOOTH",
"64 700 LINE",
"64 560 LINE",
"333 561 LINE SMOOTH",
"403 561 OFFCURVE",
"440 540 OFFCURVE",
"440 500 CURVE SMOOTH",
"440 453 OFFCURVE",
"403 429 OFFCURVE",
"333 430 CURVE SMOOTH",
"64 429 LINE",
"64 307 LINE"
);
},
{
closed = 1;
nodes = (
"363 -1 LINE SMOOTH",
"560 -1 OFFCURVE",
"663 75 OFFCURVE",
"663 220 CURVE SMOOTH",
"663 359 OFFCURVE",
"560 431 OFFCURVE",
"363 430 CURVE SMOOTH",
"64 429 LINE",
"64 306 LINE",
"363 307 LINE SMOOTH",
"454 307 OFFCURVE",
"501 277 OFFCURVE",
"501 220 CURVE SMOOTH",
"501 168 OFFCURVE",
"454 140 OFFCURVE",
"363 139 CURVE SMOOTH",
"64 140 LINE",
"64 -1 LINE"
);
}
);
width = 695;
},
{
associatedMasterId = "0E084538-2240-41A5-9525-5B99B37478DA";
layerId = "0B956FE3-DC0E-453B-8293-C5B025521449";
name = "Apr 29 19, 15:41";
paths = (
{
closed = 1;
nodes = (
"64 700 LINE",
"64 0 LINE",
"227 0 LINE",
"227 700 LINE"
);
},
{
closed = 1;
nodes = (
"333 307 LINE SMOOTH",
"510 307 OFFCURVE",
"602 373 OFFCURVE",
"602 500 CURVE SMOOTH",
"602 633 OFFCURVE",
"510 702 OFFCURVE",
"333 701 CURVE SMOOTH",
"64 700 LINE",
"64 560 LINE",
"333 561 LINE SMOOTH",
"403 561 OFFCURVE",
"440 540 OFFCURVE",
"440 500 CURVE SMOOTH",
"440 453 OFFCURVE",
"403 429 OFFCURVE",
"333 430 CURVE SMOOTH",
"64 429 LINE",
"64 307 LINE"
);
},
{
closed = 1;
nodes = (
"363 -1 LINE SMOOTH",
"560 -1 OFFCURVE",
"663 75 OFFCURVE",
"663 220 CURVE SMOOTH",
"663 359 OFFCURVE",
"560 431 OFFCURVE",
"363 430 CURVE SMOOTH",
"64 429 LINE",
"64 306 LINE",
"363 307 LINE SMOOTH",
"454 307 OFFCURVE",
"501 277 OFFCURVE",
"501 220 CURVE SMOOTH",
"501 168 OFFCURVE",
"454 140 OFFCURVE",
"363 139 CURVE SMOOTH",
"64 140 LINE",
"64 -1 LINE"
);
}
);
width = 695;
},
{
associatedMasterId = "B5B6FC57-28DA-495E-8DF1-4E68D36FF5F4";
layerId = "FBE81EDB-F587-423A-B461-A7081FCF862B";
name = "Apr 30 19, 01:20";
paths = (
{
closed = 1;
nodes = (
"56 700 LINE",
"56 0 LINE",
"136 0 LINE",
"136 700 LINE"
);
},
{
closed = 1;
nodes = (
"290 334 LINE SMOOTH",
"437 334 OFFCURVE",
"524 403 OFFCURVE",
"524 520 CURVE SMOOTH",
"524 635 OFFCURVE",
"437 702 OFFCURVE",
"290 701 CURVE SMOOTH",
"56 700 LINE",
"56 630 LINE",
"290 631 LINE SMOOTH",
"387 631 OFFCURVE",
"444 590 OFFCURVE",
"444 520 CURVE SMOOTH",
"444 447 OFFCURVE",
"387 404 OFFCURVE",
"290 404 CURVE SMOOTH",
"56 403 LINE",
"56 334 LINE"
);
},
{
closed = 1;
nodes = (
"320 -1 LINE SMOOTH",
"486 -1 OFFCURVE",
"584 76 OFFCURVE",
"584 206 CURVE SMOOTH",
"584 331 OFFCURVE",
"486 405 OFFCURVE",
"320 404 CURVE SMOOTH",
"56 403 LINE",
"56 333 LINE",
"320 334 LINE SMOOTH",
"436 334 OFFCURVE",
"504 286 OFFCURVE",
"504 206 CURVE SMOOTH",
"504 120 OFFCURVE",
"436 69 OFFCURVE",
"320 69 CURVE SMOOTH",
"56 70 LINE",
"56 -1 LINE"
);
}
);
width = 612;
}
);
leftMetricsKey = "=H";
rightMetricsKey = "=H/2";
unicode = 0042;
},
{
glyphname = C;
lastChange = "2019-05-02 13:33:26 +0000";
layers = (
{
background = {
paths = (
{
closed = 1;
nodes = (
"576 -10 OFFCURVE",
"711 136 OFFCURVE",
"711 354 CURVE SMOOTH",
"711 568 OFFCURVE",
"576 710 OFFCURVE",
"374 710 CURVE SMOOTH",
"179 710 OFFCURVE",
"49 568 OFFCURVE",
"49 354 CURVE SMOOTH",
"49 136 OFFCURVE",
"179 -10 OFFCURVE",
"374 -10 CURVE SMOOTH"
);
},
{
closed = 1;
nodes = (
"227 60 OFFCURVE",
"129 178 OFFCURVE",
"129 354 CURVE SMOOTH",
"129 526 OFFCURVE",
"227 640 OFFCURVE",
"374 640 CURVE SMOOTH",
"528 640 OFFCURVE",
"631 526 OFFCURVE",
"631 354 CURVE SMOOTH",
"631 178 OFFCURVE",
"528 60 OFFCURVE",
"374 60 CURVE SMOOTH"
);
}
);
};
layerId = "B5B6FC57-28DA-495E-8DF1-4E68D36FF5F4";
paths = (
{
closed = 1;
nodes = (
"48 137 OFFCURVE",
"177 -10 OFFCURVE",
"374 -10 CURVE SMOOTH",
"531 -10 OFFCURVE",
"655 83 OFFCURVE",
"695 233 CURVE",
"620 260 LINE",
"590 137 OFFCURVE",
"494 60 OFFCURVE",
"374 60 CURVE SMOOTH",
"225 60 OFFCURVE",
"128 179 OFFCURVE",
"128 354 CURVE SMOOTH",
"128 529 OFFCURVE",
"225 640 OFFCURVE",
"374 640 CURVE SMOOTH",
"505 640 OFFCURVE",
"602 555 OFFCURVE",
"625 424 CURVE",
"701 449 LINE",
"670 608 OFFCURVE",
"543 710 OFFCURVE",
"374 710 CURVE SMOOTH",
"177 710 OFFCURVE",
"48 572 OFFCURVE",
"48 354 CURVE SMOOTH"
);
}
);
width = 725;
},
{
background = {
paths = (
{
closed = 1;
nodes = (
"561 -10 OFFCURVE",
"692 136 OFFCURVE",
"692 354 CURVE SMOOTH",
"692 568 OFFCURVE",
"561 710 OFFCURVE",
"364 710 CURVE SMOOTH",
"174 710 OFFCURVE",
"48 568 OFFCURVE",
"48 354 CURVE SMOOTH",
"48 136 OFFCURVE",
"174 -10 OFFCURVE",
"364 -10 CURVE SMOOTH"
);
},
{
closed = 1;
nodes = (
"192 19 OFFCURVE",
"78 153 OFFCURVE",
"78 354 CURVE SMOOTH",
"78 550 OFFCURVE",
"192 681 OFFCURVE",
"364 681 CURVE SMOOTH",
"543 681 OFFCURVE",
"662 550 OFFCURVE",
"662 354 CURVE SMOOTH",
"662 153 OFFCURVE",
"543 19 OFFCURVE",
"364 19 CURVE SMOOTH"
);
}
);
};
layerId = "273DC1B6-0844-4B23-906D-30A1B3BA0B12";
paths = (
{
closed = 1;
nodes = (
"48 135 OFFCURVE",
"178 -10 OFFCURVE",
"367 -10 CURVE SMOOTH",
"519 -10 OFFCURVE",
"640 84 OFFCURVE",
"677 233 CURVE",
"649 245 LINE",
"617 108 OFFCURVE",
"506 19 OFFCURVE",
"367 19 CURVE SMOOTH",
"196 19 OFFCURVE",
"78 153 OFFCURVE",
"78 351 CURVE SMOOTH",
"78 548 OFFCURVE",
"194 681 OFFCURVE",
"367 681 CURVE SMOOTH",
"514 681 OFFCURVE",
"627 585 OFFCURVE",
"655 438 CURVE",
"682 449 LINE",
"653 607 OFFCURVE",
"529 710 OFFCURVE",
"367 710 CURVE SMOOTH",
"175 710 OFFCURVE",
"48 565 OFFCURVE",
"48 351 CURVE SMOOTH"
);
}
);
width = 706;
},
{
layerId = "0E084538-2240-41A5-9525-5B99B37478DA";
paths = (
{
closed = 1;
nodes = (
"48 129 OFFCURVE",
"189 -20 OFFCURVE",
"400 -20 CURVE SMOOTH",
"553 -20 OFFCURVE",
"675 58 OFFCURVE",
"729 188 CURVE",
"587 268 LINE",
"558 178 OFFCURVE",
"482 134 OFFCURVE",
"400 134 CURVE SMOOTH",
"284 134 OFFCURVE",
"208 222 OFFCURVE",
"208 349 CURVE SMOOTH",
"208 481 OFFCURVE",
"285 566 OFFCURVE",
"400 566 CURVE SMOOTH",
"492 566 OFFCURVE",
"568 512 OFFCURVE",
"594 414 CURVE",
"745 472 LINE",
"702 628 OFFCURVE",
"567 720 OFFCURVE",
"400 720 CURVE SMOOTH",
"190 720 OFFCURVE",
"48 573 OFFCURVE",
"48 349 CURVE SMOOTH"
);
}
);
width = 769;
},
{
associatedMasterId = "273DC1B6-0844-4B23-906D-30A1B3BA0B12";
layerId = "F7ECBC73-3A47-4B5E-8399-0D68297ADC4A";
width = 600;
},
{
associatedMasterId = "0E084538-2240-41A5-9525-5B99B37478DA";
layerId = "E3577CEF-961B-491A-83ED-D0401FF55E80";
name = "Apr 29 19, 14:43";
paths = (
{
closed = 1;
nodes = (
"61 132 OFFCURVE",
"201 -16 OFFCURVE",
"410 -16 CURVE SMOOTH",
"591 -16 OFFCURVE",
"699 66 OFFCURVE",
"742 188 CURVE",
"602 268 LINE",
"569 178 OFFCURVE",
"497 135 OFFCURVE",
"410 135 CURVE SMOOTH",
"297 135 OFFCURVE",
"221 223 OFFCURVE",
"221 354 CURVE SMOOTH",
"221 475 OFFCURVE",
"299 556 OFFCURVE",
"415 556 CURVE SMOOTH",
"511 556 OFFCURVE",
"584 500 OFFCURVE",
"607 414 CURVE",
"758 472 LINE",
"718 617 OFFCURVE",
"581 710 OFFCURVE",
"415 710 CURVE SMOOTH",
"203 710 OFFCURVE",
"61 568 OFFCURVE",
"61 354 CURVE SMOOTH"
);
}
);
width = 808;
},
{
associatedMasterId = "B5B6FC57-28DA-495E-8DF1-4E68D36FF5F4";
layerId = "1D2F0A3A-4794-40F3-959B-676575EE6DC4";
name = "Apr 29 19, 15:29";
paths = (
{
closed = 1;
nodes = (
"64 136 OFFCURVE",
"200 -10 OFFCURVE",
"403 -10 CURVE SMOOTH",
"563 -10 OFFCURVE",
"690 87 OFFCURVE",
"721 233 CURVE",
"646 257 LINE",
"622 142 OFFCURVE",
"525 66 OFFCURVE",
"403 66 CURVE SMOOTH",
"248 66 OFFCURVE",
"144 181 OFFCURVE",
"144 354 CURVE SMOOTH",
"144 521 OFFCURVE",
"248 633 OFFCURVE",
"403 633 CURVE SMOOTH",
"533 633 OFFCURVE",
"631 549 OFFCURVE",
"649 424 CURVE",
"725 449 LINE",
"694 606 OFFCURVE",
"565 710 OFFCURVE",
"403 710 CURVE SMOOTH",
"200 710 OFFCURVE",
"64 568 OFFCURVE",
"64 354 CURVE SMOOTH"
);
}
);
width = 763;
},
{
associatedMasterId = "B5B6FC57-28DA-495E-8DF1-4E68D36FF5F4";
background = {
paths = (
{
closed = 1;
nodes = (
"582 -10 OFFCURVE",
"717 136 OFFCURVE",
"717 354 CURVE SMOOTH",
"717 568 OFFCURVE",
"582 710 OFFCURVE",
"380 710 CURVE SMOOTH",
"185 710 OFFCURVE",
"55 568 OFFCURVE",
"55 354 CURVE SMOOTH",
"55 136 OFFCURVE",
"185 -10 OFFCURVE",
"380 -10 CURVE SMOOTH"
);
},
{
closed = 1;
nodes = (
"233 60 OFFCURVE",
"135 178 OFFCURVE",
"135 354 CURVE SMOOTH",
"135 526 OFFCURVE",
"233 640 OFFCURVE",
"380 640 CURVE SMOOTH",
"534 640 OFFCURVE",
"637 526 OFFCURVE",
"637 354 CURVE SMOOTH",
"637 178 OFFCURVE",
"534 60 OFFCURVE",
"380 60 CURVE SMOOTH"
);
}
);
};
layerId = "9788BC43-29D6-49EC-B887-416149C1B13E";
name = "Apr 30 19, 00:44";
paths = (
{
closed = 1;
nodes = (
"54 136 OFFCURVE",
"184 -10 OFFCURVE",
"380 -10 CURVE SMOOTH",
"542 -10 OFFCURVE",
"662 85 OFFCURVE",
"701 233 CURVE",
"626 260 LINE",
"596 136 OFFCURVE",
"503 60 OFFCURVE",
"380 60 CURVE SMOOTH",
"232 60 OFFCURVE",
"134 178 OFFCURVE",
"134 354 CURVE SMOOTH",
"134 526 OFFCURVE",
"232 640 OFFCURVE",
"380 640 CURVE SMOOTH",
"512 640 OFFCURVE",
"608 554 OFFCURVE",
"631 424 CURVE",
"707 449 LINE",
"675 612 OFFCURVE",
"545 710 OFFCURVE",
"380 710 CURVE SMOOTH",
"184 710 OFFCURVE",
"54 568 OFFCURVE",
"54 354 CURVE SMOOTH"
);
}
);
width = 743;
},
{
associatedMasterId = "B5B6FC57-28DA-495E-8DF1-4E68D36FF5F4";
background = {
paths = (
{
closed = 1;
nodes = (
"582 -10 OFFCURVE",
"717 136 OFFCURVE",
"717 354 CURVE SMOOTH",
"717 568 OFFCURVE",
"582 710 OFFCURVE",
"380 710 CURVE SMOOTH",
"185 710 OFFCURVE",
"55 568 OFFCURVE",
"55 354 CURVE SMOOTH",
"55 136 OFFCURVE",
"185 -10 OFFCURVE",
"380 -10 CURVE SMOOTH"
);
},
{
closed = 1;
nodes = (
"233 60 OFFCURVE",
"135 178 OFFCURVE",
"135 354 CURVE SMOOTH",
"135 526 OFFCURVE",
"233 640 OFFCURVE",
"380 640 CURVE SMOOTH",
"534 640 OFFCURVE",
"637 526 OFFCURVE",
"637 354 CURVE SMOOTH",
"637 178 OFFCURVE",
"534 60 OFFCURVE",
"380 60 CURVE SMOOTH"
);
}
);
};
layerId = "2563723A-C58F-41DF-9FAC-10889FC4CB8F";
name = "Apr 30 19, 01:20";
paths = (
{
closed = 1;
nodes = (
"54 136 OFFCURVE",
"184 -10 OFFCURVE",
"380 -10 CURVE SMOOTH",
"542 -10 OFFCURVE",
"662 85 OFFCURVE",
"701 233 CURVE",
"626 260 LINE",
"596 136 OFFCURVE",
"503 60 OFFCURVE",
"380 60 CURVE SMOOTH",
"232 60 OFFCURVE",
"134 178 OFFCURVE",
"134 354 CURVE SMOOTH",
"134 526 OFFCURVE",
"232 640 OFFCURVE",
"380 640 CURVE SMOOTH",
"512 640 OFFCURVE",
"608 554 OFFCURVE",
"631 424 CURVE",
"707 449 LINE",
"675 612 OFFCURVE",
"545 710 OFFCURVE",
"380 710 CURVE SMOOTH",
"184 710 OFFCURVE",
"54 568 OFFCURVE",
"54 354 CURVE SMOOTH"
);
}
);
width = 743;
}
);
leftMetricsKey = O;
rightMetricsKey = "=H/2";
unicode = 0043;
},
{
glyphname = D;
lastChange = "2019-05-02 13:33:26 +0000";
layers = (
{
layerId = "B5B6FC57-28DA-495E-8DF1-4E68D36FF5F4";
paths = (
{
closed = 1;
nodes = (
"48 700 LINE",
"48 0 LINE",
"128 0 LINE",
"128 700 LINE"
);
},
{
closed = 1;
nodes = (
"312 0 LINE SMOOTH",
"530 0 OFFCURVE",
"659 129 OFFCURVE",
"659 350 CURVE SMOOTH",
"659 571 OFFCURVE",
"530 702 OFFCURVE",
"312 701 CURVE SMOOTH",
"48 700 LINE",
"48 630 LINE",
"312 631 LINE SMOOTH",
"480 632 OFFCURVE",
"579 528 OFFCURVE",
"579 350 CURVE SMOOTH",
"579 173 OFFCURVE",
"480 69 OFFCURVE",
"312 70 CURVE SMOOTH",
"48 71 LINE",
"48 0 LINE"
);
}
);
width = 707;
},
{
layerId = "273DC1B6-0844-4B23-906D-30A1B3BA0B12";
paths = (
{
closed = 1;
nodes = (
"48 700 LINE",
"48 0 LINE",
"78 0 LINE",
"78 700 LINE"
);
},
{
closed = 1;
nodes = (
"312 0 LINE SMOOTH",
"509 0 OFFCURVE",
"641 141 OFFCURVE",
"641 351 CURVE SMOOTH",
"641 562 OFFCURVE",
"509 702 OFFCURVE",
"312 701 CURVE SMOOTH",
"48 700 LINE",
"48 671 LINE",
"312 672 LINE SMOOTH",
"491 673 OFFCURVE",
"610 545 OFFCURVE",
"610 351 CURVE SMOOTH",
"610 157 OFFCURVE",
"491 28 OFFCURVE",
"312 29 CURVE SMOOTH",
"48 30 LINE",
"48 0 LINE"
);
}
);
width = 689;
},
{
layerId = "0E084538-2240-41A5-9525-5B99B37478DA";
paths = (
{
closed = 1;
nodes = (
"48 700 LINE",
"48 0 LINE",
"211 0 LINE",
"211 700 LINE"
);
},
{
closed = 1;
nodes = (
"312 0 LINE SMOOTH",
"541 0 OFFCURVE",
"693 139 OFFCURVE",
"693 349 CURVE SMOOTH",
"693 560 OFFCURVE",
"541 702 OFFCURVE",
"312 701 CURVE SMOOTH",
"48 700 LINE",
"48 560 LINE",
"312 561 LINE SMOOTH",
"445 562 OFFCURVE",
"533 476 OFFCURVE",
"533 349 CURVE SMOOTH",
"533 222 OFFCURVE",
"445 139 OFFCURVE",
"312 140 CURVE SMOOTH",
"48 141 LINE",
"48 0 LINE"
);
}
);
width = 741;
},
{
associatedMasterId = "273DC1B6-0844-4B23-906D-30A1B3BA0B12";
layerId = "F7ECBC73-3A47-4B5E-8399-0D68297ADC4A";
width = 600;
},
{
associatedMasterId = "0E084538-2240-41A5-9525-5B99B37478DA";
layerId = "AA64DCED-B282-462A-8FB1-9F9F5D5A969C";
name = "Apr 29 19, 15:31";
paths = (
{
closed = 1;
nodes = (
"64 700 LINE",
"64 0 LINE",
"227 0 LINE",
"227 700 LINE"
);
},
{
closed = 1;
nodes = (
"328 0 LINE SMOOTH",
"569 0 OFFCURVE",
"712 126 OFFCURVE",
"712 340 CURVE SMOOTH",
"712 568 OFFCURVE",
"569 702 OFFCURVE",
"328 701 CURVE SMOOTH",
"64 700 LINE",
"64 560 LINE",
"328 561 LINE SMOOTH",
"468 562 OFFCURVE",
"550 474 OFFCURVE",
"550 340 CURVE SMOOTH",
"550 220 OFFCURVE",
"468 139 OFFCURVE",
"328 140 CURVE SMOOTH",
"64 141 LINE",
"64 0 LINE"
);
}
);
width = 772;
},
{
associatedMasterId = "B5B6FC57-28DA-495E-8DF1-4E68D36FF5F4";
layerId = "529D6906-419D-43E1-9589-FA5D5CF713B3";
name = "Apr 29 19, 15:31";
paths = (
{
closed = 1;
nodes = (
"76 700 LINE",
"76 0 LINE",
"156 0 LINE",
"156 700 LINE"
);
},
{
closed = 1;
nodes = (
"340 0 LINE SMOOTH",
"537 0 OFFCURVE",
"684 94 OFFCURVE",
"684 340 CURVE SMOOTH",
"684 618 OFFCURVE",
"537 702 OFFCURVE",
"340 701 CURVE SMOOTH",
"76 700 LINE",
"76 630 LINE",
"340 631 LINE SMOOTH",
"492 632 OFFCURVE",
"604 570 OFFCURVE",
"604 340 CURVE SMOOTH",
"604 141 OFFCURVE",
"492 69 OFFCURVE",
"340 70 CURVE SMOOTH",
"76 71 LINE",
"76 0 LINE"
);
}
);
width = 748;
},
{
associatedMasterId = "273DC1B6-0844-4B23-906D-30A1B3BA0B12";
layerId = "D67701D8-DD16-4B54-AF4C-B63E0AD78BBC";
name = "Apr 29 19, 15:31";
paths = (
{
closed = 1;
nodes = (
"80 700 LINE",
"80 0 LINE",
"110 0 LINE",
"110 700 LINE"
);
},
{
closed = 1;
nodes = (
"344 0 LINE SMOOTH",
"538 0 OFFCURVE",
"669 136 OFFCURVE",
"669 340 CURVE SMOOTH",
"669 558 OFFCURVE",
"538 702 OFFCURVE",
"344 701 CURVE SMOOTH",
"80 700 LINE",
"80 670 LINE",
"344 671 LINE SMOOTH",
"520 672 OFFCURVE",
"638 540 OFFCURVE",
"638 340 CURVE SMOOTH",
"638 153 OFFCURVE",
"520 29 OFFCURVE",
"344 30 CURVE SMOOTH",
"80 31 LINE",
"80 0 LINE"
);
}
);
width = 737;
},
{
associatedMasterId = "0E084538-2240-41A5-9525-5B99B37478DA";
layerId = "6D070519-EE03-4456-BB68-261F18F00793";
name = "Apr 29 19, 15:41";
paths = (
{
closed = 1;
nodes = (
"56 700 LINE",
"56 0 LINE",
"219 0 LINE",
"219 700 LINE"
);
},
{
closed = 1;
nodes = (
"320 0 LINE SMOOTH",
"549 0 OFFCURVE",
"701 139 OFFCURVE",
"701 347 CURVE SMOOTH",
"701 560 OFFCURVE",
"549 702 OFFCURVE",
"320 701 CURVE SMOOTH",
"56 700 LINE",
"56 560 LINE",
"320 561 LINE SMOOTH",
"453 562 OFFCURVE",
"541 476 OFFCURVE",
"541 347 CURVE SMOOTH",
"541 222 OFFCURVE",
"453 139 OFFCURVE",
"320 140 CURVE SMOOTH",
"56 141 LINE",
"56 0 LINE"
);
}
);
width = 757;
},
{
associatedMasterId = "B5B6FC57-28DA-495E-8DF1-4E68D36FF5F4";
layerId = "DAF4C5D0-2D93-4225-B033-AD5877DD8402";
name = "Apr 30 19, 01:20";
paths = (
{
closed = 1;
nodes = (
"56 700 LINE",
"56 0 LINE",
"136 0 LINE",
"136 700 LINE"
);
},
{
closed = 1;
nodes = (
"320 0 LINE SMOOTH",
"538 0 OFFCURVE",
"667 130 OFFCURVE",
"667 350 CURVE SMOOTH",
"667 572 OFFCURVE",
"538 702 OFFCURVE",
"320 701 CURVE SMOOTH",
"56 700 LINE",
"56 630 LINE",
"320 631 LINE SMOOTH",
"488 632 OFFCURVE",
"587 528 OFFCURVE",
"587 350 CURVE SMOOTH",
"587 173 OFFCURVE",
"488 69 OFFCURVE",
"320 70 CURVE SMOOTH",
"56 71 LINE",
"56 0 LINE"
);
}
);
width = 718;
}
);
leftMetricsKey = H;
rightMetricsKey = O;
unicode = 0044;
},
{
glyphname = E;
lastChange = "2019-05-02 13:32:28 +0000";
layers = (
{
layerId = "B5B6FC57-28DA-495E-8DF1-4E68D36FF5F4";
paths = (
{
closed = 1;
nodes = (
"48 701 LINE",
"48 0 LINE",
"128 0 LINE",
"128 701 LINE"
);
},
{
closed = 1;
nodes = (
"48 631 LINE",
"526 631 LINE",
"526 701 LINE",
"48 701 LINE"
);
},
{
closed = 1;
nodes = (
"48 0 LINE",
"526 0 LINE",
"526 70 LINE",
"48 70 LINE"
);
},
{
closed = 1;
nodes = (
"48 328 LINE",
"496 328 LINE",
"496 398 LINE",
"48 398 LINE"
);
}
);
width = 574;
},
{
layerId = "273DC1B6-0844-4B23-906D-30A1B3BA0B12";
paths = (
{
closed = 1;
nodes = (
"48 700 LINE",
"48 0 LINE",
"78 0 LINE",
"78 700 LINE"
);
},
{
closed = 1;
nodes = (
"48 671 LINE",
"526 671 LINE",
"526 700 LINE",
"48 700 LINE"
);
},
{
closed = 1;
nodes = (
"48 0 LINE",
"526 0 LINE",
"526 29 LINE",
"48 29 LINE"
);
},
{
closed = 1;
nodes = (
"48 354 LINE",
"496 354 LINE",
"496 383 LINE",
"48 383 LINE"
);
}
);
width = 574;
},
{
layerId = "0E084538-2240-41A5-9525-5B99B37478DA";
paths = (
{
closed = 1;
nodes = (
"48 700 LINE",
"48 0 LINE",
"210 0 LINE",
"210 700 LINE"
);
},
{
closed = 1;
nodes = (
"48 546 LINE",
"561 546 LINE",
"561 700 LINE",
"48 700 LINE"
);
},
{
closed = 1;
nodes = (
"48 0 LINE",
"561 0 LINE",
"561 154 LINE",
"48 154 LINE"
);
},
{
closed = 1;
nodes = (
"48 275 LINE",
"531 275 LINE",
"531 429 LINE",
"48 429 LINE"
);
}
);
width = 609;
},
{
associatedMasterId = "273DC1B6-0844-4B23-906D-30A1B3BA0B12";
layerId = "F7ECBC73-3A47-4B5E-8399-0D68297ADC4A";
width = 600;
},
{
associatedMasterId = "B5B6FC57-28DA-495E-8DF1-4E68D36FF5F4";
layerId = "8258E2AF-3029-4873-B63D-22AB81FC08ED";
name = "Apr 30 19, 01:20";
paths = (
{
closed = 1;
nodes = (
"56 701 LINE",
"56 0 LINE",
"136 0 LINE",
"136 701 LINE"
);
},
{
closed = 1;
nodes = (
"56 631 LINE",
"534 631 LINE",
"534 701 LINE",
"56 701 LINE"
);
},
{
closed = 1;
nodes = (
"56 0 LINE",
"534 0 LINE",
"534 70 LINE",
"56 70 LINE"
);
},
{
closed = 1;
nodes = (
"56 328 LINE",
"504 328 LINE",
"504 398 LINE",
"56 398 LINE"
);
}
);
width = 590;
}
);
leftMetricsKey = H;
rightMetricsKey = "=H";
unicode = 0045;
},
{
glyphname = F;
lastChange = "2019-05-02 13:32:28 +0000";
layers = (
{
layerId = "B5B6FC57-28DA-495E-8DF1-4E68D36FF5F4";
paths = (
{
closed = 1;
nodes = (
"48 700 LINE",
"48 0 LINE",
"128 0 LINE",
"128 700 LINE"
);
},
{
closed = 1;
nodes = (
"48 630 LINE",
"546 630 LINE",
"546 700 LINE",
"48 700 LINE"
);
},
{
closed = 1;
nodes = (
"48 329 LINE",
"521 329 LINE",
"521 399 LINE",
"48 399 LINE"
);
}
);
width = 594;
},
{
layerId = "273DC1B6-0844-4B23-906D-30A1B3BA0B12";
paths = (
{
closed = 1;
nodes = (
"48 700 LINE",
"48 0 LINE",
"78 0 LINE",
"78 700 LINE"
);
},
{
closed = 1;
nodes = (
"48 671 LINE",
"546 671 LINE",
"546 700 LINE",
"48 700 LINE"
);
},
{
closed = 1;
nodes = (
"48 356 LINE",
"521 356 LINE",
"521 385 LINE",
"48 385 LINE"
);
}
);
width = 594;
},
{
layerId = "0E084538-2240-41A5-9525-5B99B37478DA";
paths = (
{
closed = 1;
nodes = (
"48 700 LINE",
"48 0 LINE",
"210 0 LINE",
"210 700 LINE"
);
},
{
closed = 1;
nodes = (
"48 538 LINE",
"581 538 LINE",
"581 700 LINE",
"48 700 LINE"
);
},
{
closed = 1;
nodes = (
"48 244 LINE",
"551 244 LINE",
"551 406 LINE",
"48 406 LINE"
);
}
);
width = 629;
},
{
associatedMasterId = "273DC1B6-0844-4B23-906D-30A1B3BA0B12";
layerId = "F7ECBC73-3A47-4B5E-8399-0D68297ADC4A";
width = 600;
},
{
associatedMasterId = "273DC1B6-0844-4B23-906D-30A1B3BA0B12";
layerId = "1C27F0C0-5075-4C0A-AF27-056D68B29DFC";
name = "Apr 29 19, 15:07";
paths = (
{
closed = 1;
nodes = (
"80 700 LINE",
"80 0 LINE",
"110 0 LINE",
"110 700 LINE"
);
},
{
closed = 1;
nodes = (
"80 671 LINE",
"578 671 LINE",
"578 700 LINE",
"80 700 LINE"
);
},
{
closed = 1;
nodes = (
"80 356 LINE",
"553 356 LINE",
"553 385 LINE",
"80 385 LINE"
);
}
);
width = 618;
},
{
associatedMasterId = "B5B6FC57-28DA-495E-8DF1-4E68D36FF5F4";
layerId = "B79C522E-22C9-4501-A58A-1C02D33BDC1C";
name = "Apr 29 19, 15:07";
paths = (
{
closed = 1;
nodes = (
"56 700 LINE",
"56 0 LINE",
"136 0 LINE",
"136 700 LINE"
);
},
{
closed = 1;
nodes = (
"56 624 LINE",
"554 624 LINE",
"554 700 LINE",
"56 700 LINE"
);
},
{
closed = 1;
nodes = (
"56 326 LINE",
"529 326 LINE",
"529 402 LINE",
"56 402 LINE"
);
}
);
width = 610;
},
{
associatedMasterId = "0E084538-2240-41A5-9525-5B99B37478DA";
layerId = "B83A2B53-899A-4164-B10A-D4278603AF1D";
name = "Apr 29 19, 15:07";
paths = (
{
closed = 1;
nodes = (
"56 700 LINE",
"56 0 LINE",
"218 0 LINE",
"218 700 LINE"
);
},
{
closed = 1;
nodes = (
"56 538 LINE",
"589 538 LINE",
"589 700 LINE",
"56 700 LINE"
);
},
{
closed = 1;
nodes = (
"56 244 LINE",
"559 244 LINE",
"559 406 LINE",
"56 406 LINE"
);
}
);
width = 617;
},
{
associatedMasterId = "B5B6FC57-28DA-495E-8DF1-4E68D36FF5F4";
layerId = "BEDAA592-A9FB-401D-9610-0E3FD76BE621";
name = "Apr 30 19, 01:20";
paths = (
{
closed = 1;
nodes = (
"56 700 LINE",
"56 0 LINE",
"136 0 LINE",
"136 700 LINE"
);
},
{
closed = 1;
nodes = (
"56 630 LINE",
"554 630 LINE",
"554 700 LINE",
"56 700 LINE"
);
},
{
closed = 1;
nodes = (
"56 329 LINE",
"529 329 LINE",
"529 399 LINE",
"56 399 LINE"
);
}
);
width = 610;
}
);
leftMetricsKey = H;
rightMetricsKey = "=H";
unicode = 0046;
},
{
glyphname = G;
lastChange = "2019-05-02 13:41:07 +0000";
layers = (
{
background = {
paths = (
{
closed = 1;
nodes = (
"48 136 OFFCURVE",
"178 -10 OFFCURVE",
"374 -10 CURVE SMOOTH",
"536 -10 OFFCURVE",
"656 85 OFFCURVE",
"695 233 CURVE",
"620 260 LINE",
"590 136 OFFCURVE",
"497 60 OFFCURVE",
"374 60 CURVE SMOOTH",
"226 60 OFFCURVE",
"128 178 OFFCURVE",
"128 354 CURVE SMOOTH",
"128 526 OFFCURVE",
"226 640 OFFCURVE",
"374 640 CURVE SMOOTH",
"506 640 OFFCURVE",
"602 554 OFFCURVE",
"625 424 CURVE",
"701 449 LINE",
"669 612 OFFCURVE",
"539 710 OFFCURVE",
"374 710 CURVE SMOOTH",
"178 710 OFFCURVE",
"48 568 OFFCURVE",
"48 354 CURVE SMOOTH"
);
}
);
};
layerId = "B5B6FC57-28DA-495E-8DF1-4E68D36FF5F4";
paths = (
{
closed = 1;
nodes = (
"48 136 OFFCURVE",
"181 -10 OFFCURVE",
"381 -10 CURVE SMOOTH",
"472 -10 OFFCURVE",
"569 30 OFFCURVE",
"631 108 CURVE",
"631 -5 LINE",
"701 -5 LINE",
"701 320 LINE",
"401 320 LINE",
"401 250 LINE",
"657 250 LINE",
"624 259 LINE",
"612 151 OFFCURVE",
"512 60 OFFCURVE",
"371 60 CURVE SMOOTH",
"225 60 OFFCURVE",
"128 178 OFFCURVE",
"128 354 CURVE SMOOTH",
"128 526 OFFCURVE",
"223 640 OFFCURVE",
"378 640 CURVE SMOOTH",
"487 640 OFFCURVE",
"601 568 OFFCURVE",
"625 424 CURVE",
"701 449 LINE",
"667 616 OFFCURVE",
"535 710 OFFCURVE",
"378 710 CURVE SMOOTH",
"175 710 OFFCURVE",
"48 568 OFFCURVE",
"48 354 CURVE SMOOTH"
);
}
);
width = 737;
},
{
background = {
paths = (
{
closed = 1;
nodes = (
"561 -10 OFFCURVE",
"692 136 OFFCURVE",
"692 354 CURVE SMOOTH",
"692 568 OFFCURVE",
"561 710 OFFCURVE",
"364 710 CURVE SMOOTH",
"174 710 OFFCURVE",
"48 568 OFFCURVE",
"48 354 CURVE SMOOTH",
"48 136 OFFCURVE",
"174 -10 OFFCURVE",
"364 -10 CURVE SMOOTH"
);
},
{
closed = 1;
nodes = (
"192 19 OFFCURVE",
"78 153 OFFCURVE",
"78 354 CURVE SMOOTH",
"78 550 OFFCURVE",
"192 681 OFFCURVE",
"364 681 CURVE SMOOTH",
"543 681 OFFCURVE",
"662 550 OFFCURVE",
"662 354 CURVE SMOOTH",
"662 153 OFFCURVE",
"543 19 OFFCURVE",
"364 19 CURVE SMOOTH"
);
}
);
};
layerId = "273DC1B6-0844-4B23-906D-30A1B3BA0B12";
paths = (
{
closed = 1;
nodes = (
"48 136 OFFCURVE",
"174 -10 OFFCURVE",
"364 -10 CURVE SMOOTH",
"503 -10 OFFCURVE",
"614 60 OFFCURVE",
"666 199 CURVE",
"666 -5 LINE",
"696 -5 LINE",
"696 290 LINE",
"396 290 LINE",
"396 260 LINE",
"672 260 LINE",
"653 264 LINE",
"625 116 OFFCURVE",
"515 19 OFFCURVE",
"364 19 CURVE SMOOTH",
"192 19 OFFCURVE",
"78 153 OFFCURVE",
"78 354 CURVE SMOOTH",
"78 550 OFFCURVE",
"192 681 OFFCURVE",
"362 681 CURVE SMOOTH",
"512 681 OFFCURVE",
"628 584 OFFCURVE",
"652 438 CURVE",
"682 450 LINE",
"651 606 OFFCURVE",
"523 710 OFFCURVE",
"362 710 CURVE SMOOTH",
"174 710 OFFCURVE",
"48 568 OFFCURVE",
"48 354 CURVE SMOOTH"
);
}
);
width = 732;
},
{
background = {
paths = (
{
closed = 1;
nodes = (
"48 130 OFFCURVE",
"188 -20 OFFCURVE",
"397 -20 CURVE SMOOTH",
"552 -20 OFFCURVE",
"675 58 OFFCURVE",
"729 188 CURVE",
"587 268 LINE",
"558 178 OFFCURVE",
"482 134 OFFCURVE",
"397 134 CURVE SMOOTH",
"284 134 OFFCURVE",
"208 222 OFFCURVE",
"208 354 CURVE SMOOTH",
"208 481 OFFCURVE",
"286 566 OFFCURVE",
"402 566 CURVE SMOOTH",
"493 566 OFFCURVE",
"568 512 OFFCURVE",
"594 414 CURVE",
"745 472 LINE",
"702 628 OFFCURVE",
"567 720 OFFCURVE",
"402 720 CURVE SMOOTH",
"190 720 OFFCURVE",
"48 574 OFFCURVE",
"48 354 CURVE SMOOTH"
);
}
);
};
layerId = "0E084538-2240-41A5-9525-5B99B37478DA";
paths = (
{
closed = 1;
nodes = (
"48 130 OFFCURVE",
"191 -20 OFFCURVE",
"406 -20 CURVE SMOOTH",
"518 -20 OFFCURVE",
"603 16 OFFCURVE",
"619 71 CURVE",
"619 0 LINE",
"769 0 LINE",
"769 380 LINE",
"369 380 LINE",
"369 230 LINE",
"698 230 LINE",
"568 266 LINE",
"561 178 OFFCURVE",
"476 134 OFFCURVE",
"405 134 CURVE SMOOTH",
"285 134 OFFCURVE",
"208 215 OFFCURVE",
"208 354 CURVE SMOOTH",
"208 482 OFFCURVE",
"287 566 OFFCURVE",
"406 566 CURVE SMOOTH",
"498 566 OFFCURVE",
"573 505 OFFCURVE",
"593 414 CURVE",
"744 471 LINE",
"708 618 OFFCURVE",
"577 720 OFFCURVE",
"406 720 CURVE SMOOTH",
"191 720 OFFCURVE",
"48 574 OFFCURVE",
"48 354 CURVE SMOOTH"
);
}
);
width = 805;
},
{
associatedMasterId = "273DC1B6-0844-4B23-906D-30A1B3BA0B12";
layerId = "F7ECBC73-3A47-4B5E-8399-0D68297ADC4A";
width = 600;
},
{
associatedMasterId = "0E084538-2240-41A5-9525-5B99B37478DA";
background = {
paths = (
{
closed = 1;
nodes = (
"61 130 OFFCURVE",
"201 -20 OFFCURVE",
"410 -20 CURVE SMOOTH",
"565 -20 OFFCURVE",
"688 58 OFFCURVE",
"742 188 CURVE",
"600 268 LINE",
"571 178 OFFCURVE",
"495 134 OFFCURVE",
"410 134 CURVE SMOOTH",
"297 134 OFFCURVE",
"221 222 OFFCURVE",
"221 354 CURVE SMOOTH",
"221 481 OFFCURVE",
"299 566 OFFCURVE",
"415 566 CURVE SMOOTH",
"506 566 OFFCURVE",
"581 512 OFFCURVE",
"607 414 CURVE",
"758 472 LINE",
"715 628 OFFCURVE",
"580 720 OFFCURVE",
"415 720 CURVE SMOOTH",
"203 720 OFFCURVE",
"61 574 OFFCURVE",
"61 354 CURVE SMOOTH"
);
}
);
};
layerId = "ABD8987D-8069-4BA7-9711-00AF4C391832";
name = "Apr 29 19, 15:17";
paths = (
{
closed = 1;
nodes = (
"61 130 OFFCURVE",
"204 -20 OFFCURVE",
"419 -20 CURVE SMOOTH",
"524 -20 OFFCURVE",
"620 20 OFFCURVE",
"660 81 CURVE",
"660 -10 LINE",
"772 -10 LINE",
"772 342 LINE",
"433 342 LINE",
"433 230 LINE",
"711 230 LINE",
"601 266 LINE",
"574 187 OFFCURVE",
"501 134 OFFCURVE",
"418 134 CURVE SMOOTH",
"298 134 OFFCURVE",
"221 215 OFFCURVE",
"221 354 CURVE SMOOTH",
"221 482 OFFCURVE",
"300 566 OFFCURVE",
"419 566 CURVE SMOOTH",
"511 566 OFFCURVE",
"586 505 OFFCURVE",
"606 414 CURVE",
"757 471 LINE",
"721 618 OFFCURVE",
"590 720 OFFCURVE",
"419 720 CURVE SMOOTH",
"204 720 OFFCURVE",
"61 574 OFFCURVE",
"61 354 CURVE SMOOTH"
);
}
);
width = 824;
},
{
associatedMasterId = "B5B6FC57-28DA-495E-8DF1-4E68D36FF5F4";
layerId = "D78E0E31-5C9C-4F34-BA7B-66ADDFE08600";
name = "Apr 29 19, 15:27";
paths = (
{
closed = 1;
nodes = (
"64 136 OFFCURVE",
"204 -10 OFFCURVE",
"413 -10 CURVE SMOOTH",
"516 -10 OFFCURVE",
"621 42 OFFCURVE",
"677 121 CURVE",
"677 -5 LINE",
"753 -5 LINE",
"753 326 LINE",
"427 326 LINE",
"427 250 LINE",
"703 250 LINE",
"663 267 LINE",
"651 149 OFFCURVE",
"547 70 OFFCURVE",
"403 70 CURVE SMOOTH",
"248 70 OFFCURVE",
"144 184 OFFCURVE",
"144 354 CURVE SMOOTH",
"144 520 OFFCURVE",
"248 630 OFFCURVE",
"403 630 CURVE SMOOTH",
"541 630 OFFCURVE",
"645 548 OFFCURVE",
"663 424 CURVE",
"739 449 LINE",
"708 606 OFFCURVE",
"574 710 OFFCURVE",
"403 710 CURVE SMOOTH",
"200 710 OFFCURVE",
"64 568 OFFCURVE",
"64 354 CURVE SMOOTH"
);
}
);
width = 817;
},
{
associatedMasterId = "273DC1B6-0844-4B23-906D-30A1B3BA0B12";
layerId = "CB1BBA3C-F2BA-41C4-BEFE-703A0C52BB13";
name = "Apr 29 19, 15:27";
paths = (
{
closed = 1;
nodes = (
"54 136 OFFCURVE",
"186 -10 OFFCURVE",
"385 -10 CURVE SMOOTH",
"544 -10 OFFCURVE",
"663 80 OFFCURVE",
"682 214 CURVE",
"682 -5 LINE",
"712 -5 LINE",
"712 290 LINE",
"409 290 LINE",
"409 260 LINE",
"678 260 LINE",
"658 260 LINE",
"653 116 OFFCURVE",
"544 20 OFFCURVE",
"385 20 CURVE SMOOTH",
"204 20 OFFCURVE",
"84 154 OFFCURVE",
"84 354 CURVE SMOOTH",
"84 544 OFFCURVE",
"204 670 OFFCURVE",
"383 670 CURVE SMOOTH",
"534 670 OFFCURVE",
"655 580 OFFCURVE",
"678 438 CURVE",
"708 450 LINE",
"678 600 OFFCURVE",
"548 700 OFFCURVE",
"383 700 CURVE SMOOTH",
"186 700 OFFCURVE",
"54 562 OFFCURVE",
"54 354 CURVE SMOOTH"
);
}
);
width = 756;
},
{
associatedMasterId = "B5B6FC57-28DA-495E-8DF1-4E68D36FF5F4";
background = {
paths = (
{
closed = 1;
nodes = (
"54 136 OFFCURVE",
"184 -10 OFFCURVE",
"380 -10 CURVE SMOOTH",
"542 -10 OFFCURVE",
"662 85 OFFCURVE",
"701 233 CURVE",
"626 260 LINE",
"596 136 OFFCURVE",
"503 60 OFFCURVE",
"380 60 CURVE SMOOTH",
"232 60 OFFCURVE",
"134 178 OFFCURVE",
"134 354 CURVE SMOOTH",
"134 526 OFFCURVE",
"232 640 OFFCURVE",
"380 640 CURVE SMOOTH",
"512 640 OFFCURVE",
"608 554 OFFCURVE",
"631 424 CURVE",
"707 449 LINE",
"675 612 OFFCURVE",
"545 710 OFFCURVE",
"380 710 CURVE SMOOTH",
"184 710 OFFCURVE",
"54 568 OFFCURVE",
"54 354 CURVE SMOOTH"
);
}
);
};
layerId = "72C4B254-0D93-438C-8684-8B53CE60A7C3";
name = "Apr 30 19, 00:44";
paths = (
{
closed = 1;
nodes = (
"54 136 OFFCURVE",
"194 -10 OFFCURVE",
"403 -10 CURVE SMOOTH",
"506 -10 OFFCURVE",
"611 42 OFFCURVE",
"667 121 CURVE",
"667 -5 LINE",
"743 -5 LINE",
"743 326 LINE",
"417 326 LINE",
"417 250 LINE",
"693 250 LINE",
"653 267 LINE",
"641 149 OFFCURVE",
"537 70 OFFCURVE",
"393 70 CURVE SMOOTH",
"238 70 OFFCURVE",
"134 184 OFFCURVE",
"134 354 CURVE SMOOTH",
"134 520 OFFCURVE",
"238 630 OFFCURVE",
"393 630 CURVE SMOOTH",
"531 630 OFFCURVE",
"635 548 OFFCURVE",
"653 424 CURVE",
"729 449 LINE",
"698 606 OFFCURVE",
"564 710 OFFCURVE",
"393 710 CURVE SMOOTH",
"190 710 OFFCURVE",
"54 568 OFFCURVE",
"54 354 CURVE SMOOTH"
);
}
);
width = 787;
},
{
associatedMasterId = "B5B6FC57-28DA-495E-8DF1-4E68D36FF5F4";
background = {
paths = (
{
closed = 1;
nodes = (
"54 136 OFFCURVE",
"184 -10 OFFCURVE",
"380 -10 CURVE SMOOTH",
"542 -10 OFFCURVE",
"662 85 OFFCURVE",
"701 233 CURVE",
"626 260 LINE",
"596 136 OFFCURVE",
"503 60 OFFCURVE",
"380 60 CURVE SMOOTH",
"232 60 OFFCURVE",
"134 178 OFFCURVE",
"134 354 CURVE SMOOTH",
"134 526 OFFCURVE",
"232 640 OFFCURVE",
"380 640 CURVE SMOOTH",
"512 640 OFFCURVE",
"608 554 OFFCURVE",
"631 424 CURVE",
"707 449 LINE",
"675 612 OFFCURVE",
"545 710 OFFCURVE",
"380 710 CURVE SMOOTH",
"184 710 OFFCURVE",
"54 568 OFFCURVE",
"54 354 CURVE SMOOTH"
);
}
);
};
layerId = "F1F9E13A-132A-41E5-AFD3-D0CC4AF2F902";
name = "Apr 30 19, 01:20";
paths = (
{
closed = 1;
nodes = (
"54 136 OFFCURVE",
"187 -10 OFFCURVE",
"387 -10 CURVE SMOOTH",
"487 -10 OFFCURVE",
"594 38 OFFCURVE",
"647 121 CURVE",
"647 -5 LINE",
"727 -5 LINE",
"727 320 LINE",
"397 320 LINE",
"397 250 LINE",
"673 250 LINE",
"623 267 LINE",
"611 159 OFFCURVE",
"518 60 OFFCURVE",
"377 60 CURVE SMOOTH",
"231 60 OFFCURVE",
"134 178 OFFCURVE",
"134 354 CURVE SMOOTH",
"134 526 OFFCURVE",
"229 640 OFFCURVE",
"384 640 CURVE SMOOTH",
"493 640 OFFCURVE",
"607 568 OFFCURVE",
"631 424 CURVE",
"707 449 LINE",
"673 616 OFFCURVE",
"541 710 OFFCURVE",
"384 710 CURVE SMOOTH",
"181 710 OFFCURVE",
"54 568 OFFCURVE",
"54 354 CURVE SMOOTH"
);
}
);
width = 787;
},
{
associatedMasterId = "B5B6FC57-28DA-495E-8DF1-4E68D36FF5F4";
background = {
paths = (
{
closed = 1;
nodes = (
"54 136 OFFCURVE",
"184 -10 OFFCURVE",
"380 -10 CURVE SMOOTH",
"542 -10 OFFCURVE",
"662 85 OFFCURVE",
"701 233 CURVE",
"626 260 LINE",
"596 136 OFFCURVE",
"503 60 OFFCURVE",
"380 60 CURVE SMOOTH",
"232 60 OFFCURVE",
"134 178 OFFCURVE",
"134 354 CURVE SMOOTH",
"134 526 OFFCURVE",
"232 640 OFFCURVE",
"380 640 CURVE SMOOTH",
"512 640 OFFCURVE",
"608 554 OFFCURVE",
"631 424 CURVE",
"707 449 LINE",
"675 612 OFFCURVE",
"545 710 OFFCURVE",
"380 710 CURVE SMOOTH",
"184 710 OFFCURVE",
"54 568 OFFCURVE",
"54 354 CURVE SMOOTH"
);
}
);
};
layerId = "F6A2C1CE-A39C-470A-A106-1F8658D2DDB6";
name = "Apr 30 19, 01:25";
paths = (
{
closed = 1;
nodes = (
"54 136 OFFCURVE",
"187 -10 OFFCURVE",
"387 -10 CURVE SMOOTH",
"492 -10 OFFCURVE",
"573 35 OFFCURVE",
"627 93 CURVE",
"627 -5 LINE",
"707 -5 LINE",
"707 320 LINE",
"387 320 LINE",
"387 250 LINE",
"653 250 LINE",
"620 259 LINE",
"608 151 OFFCURVE",
"508 60 OFFCURVE",
"377 60 CURVE SMOOTH",
"231 60 OFFCURVE",
"134 178 OFFCURVE",
"134 354 CURVE SMOOTH",
"134 526 OFFCURVE",
"229 640 OFFCURVE",
"384 640 CURVE SMOOTH",
"493 640 OFFCURVE",
"607 568 OFFCURVE",
"631 424 CURVE",
"707 449 LINE",
"673 616 OFFCURVE",
"541 710 OFFCURVE",
"384 710 CURVE SMOOTH",
"181 710 OFFCURVE",
"54 568 OFFCURVE",
"54 354 CURVE SMOOTH"
);
}
);
width = 787;
},
{
associatedMasterId = "273DC1B6-0844-4B23-906D-30A1B3BA0B12";
background = {
paths = (
{
closed = 1;
nodes = (
"571 -10 OFFCURVE",
"702 136 OFFCURVE",
"702 354 CURVE SMOOTH",
"702 568 OFFCURVE",
"571 710 OFFCURVE",
"374 710 CURVE SMOOTH",
"184 710 OFFCURVE",
"58 568 OFFCURVE",
"58 354 CURVE SMOOTH",
"58 136 OFFCURVE",
"184 -10 OFFCURVE",
"374 -10 CURVE SMOOTH"
);
},
{
closed = 1;
nodes = (
"202 19 OFFCURVE",
"88 153 OFFCURVE",
"88 354 CURVE SMOOTH",
"88 550 OFFCURVE",
"202 681 OFFCURVE",
"374 681 CURVE SMOOTH",
"553 681 OFFCURVE",
"672 550 OFFCURVE",
"672 354 CURVE SMOOTH",
"672 153 OFFCURVE",
"553 19 OFFCURVE",
"374 19 CURVE SMOOTH"
);
}
);
};
layerId = "F97FF856-7DDF-48FA-B51B-8E3C6242BBD0";
name = "May 2 19, 05:26";
paths = (
{
closed = 1;
nodes = (
"58 136 OFFCURVE",
"184 -10 OFFCURVE",
"374 -10 CURVE SMOOTH",
"513 -10 OFFCURVE",
"624 60 OFFCURVE",
"676 199 CURVE",
"676 -5 LINE",
"706 -5 LINE",
"706 290 LINE",
"403 290 LINE",
"403 260 LINE",
"682 260 LINE",
"663 264 LINE",
"635 116 OFFCURVE",
"525 19 OFFCURVE",
"374 19 CURVE SMOOTH",
"202 19 OFFCURVE",
"88 153 OFFCURVE",
"88 354 CURVE SMOOTH",
"88 550 OFFCURVE",
"202 681 OFFCURVE",
"372 681 CURVE SMOOTH",
"522 681 OFFCURVE",
"638 584 OFFCURVE",
"662 438 CURVE",
"692 450 LINE",
"661 606 OFFCURVE",
"533 710 OFFCURVE",
"372 710 CURVE SMOOTH",
"184 710 OFFCURVE",
"58 568 OFFCURVE",
"58 354 CURVE SMOOTH"
);
}
);
width = 754;
},
{
associatedMasterId = "B5B6FC57-28DA-495E-8DF1-4E68D36FF5F4";
background = {
paths = (
{
closed = 1;
nodes = (
"48 136 OFFCURVE",
"178 -10 OFFCURVE",
"374 -10 CURVE SMOOTH",
"536 -10 OFFCURVE",
"656 85 OFFCURVE",
"695 233 CURVE",
"620 260 LINE",
"590 136 OFFCURVE",
"497 60 OFFCURVE",
"374 60 CURVE SMOOTH",
"226 60 OFFCURVE",
"128 178 OFFCURVE",
"128 354 CURVE SMOOTH",
"128 526 OFFCURVE",
"226 640 OFFCURVE",
"374 640 CURVE SMOOTH",
"506 640 OFFCURVE",
"602 554 OFFCURVE",
"625 424 CURVE",
"701 449 LINE",
"669 612 OFFCURVE",
"539 710 OFFCURVE",
"374 710 CURVE SMOOTH",
"178 710 OFFCURVE",
"48 568 OFFCURVE",
"48 354 CURVE SMOOTH"
);
}
);
};
layerId = "4B594031-D2FA-4B19-A3B5-BE115F89F7A4";
name = "May 2 19, 05:26";
paths = (
{
closed = 1;
nodes = (
"48 136 OFFCURVE",
"181 -10 OFFCURVE",
"381 -10 CURVE SMOOTH",
"486 -10 OFFCURVE",
"567 35 OFFCURVE",
"621 93 CURVE",
"621 -5 LINE",
"701 -5 LINE",
"701 320 LINE",
"381 320 LINE",
"381 250 LINE",
"647 250 LINE",
"614 259 LINE",
"602 151 OFFCURVE",
"502 60 OFFCURVE",
"371 60 CURVE SMOOTH",
"225 60 OFFCURVE",
"128 178 OFFCURVE",
"128 354 CURVE SMOOTH",
"128 526 OFFCURVE",
"223 640 OFFCURVE",
"378 640 CURVE SMOOTH",
"487 640 OFFCURVE",
"601 568 OFFCURVE",
"625 424 CURVE",
"701 449 LINE",
"667 616 OFFCURVE",
"535 710 OFFCURVE",
"378 710 CURVE SMOOTH",
"175 710 OFFCURVE",
"48 568 OFFCURVE",
"48 354 CURVE SMOOTH"
);
}
);
width = 743;
},
{
associatedMasterId = "B5B6FC57-28DA-495E-8DF1-4E68D36FF5F4";
background = {
paths = (
{
closed = 1;
nodes = (
"48 136 OFFCURVE",
"178 -10 OFFCURVE",
"374 -10 CURVE SMOOTH",
"536 -10 OFFCURVE",
"656 85 OFFCURVE",
"695 233 CURVE",
"620 260 LINE",
"590 136 OFFCURVE",
"497 60 OFFCURVE",
"374 60 CURVE SMOOTH",
"226 60 OFFCURVE",
"128 178 OFFCURVE",
"128 354 CURVE SMOOTH",
"128 526 OFFCURVE",
"226 640 OFFCURVE",
"374 640 CURVE SMOOTH",
"506 640 OFFCURVE",
"602 554 OFFCURVE",
"625 424 CURVE",
"701 449 LINE",
"669 612 OFFCURVE",
"539 710 OFFCURVE",
"374 710 CURVE SMOOTH",
"178 710 OFFCURVE",
"48 568 OFFCURVE",
"48 354 CURVE SMOOTH"
);
}
);
};
layerId = "2F942CA9-82F6-4724-A1F8-A2F341DB3FE1";
name = "May 2 19, 05:29";
paths = (
{
closed = 1;
nodes = (
"48 136 OFFCURVE",
"181 -10 OFFCURVE",
"381 -10 CURVE SMOOTH",
"472 -10 OFFCURVE",
"569 30 OFFCURVE",
"631 108 CURVE",
"631 -5 LINE",
"701 -5 LINE",
"701 320 LINE",
"441 320 LINE",
"441 250 LINE",
"657 250 LINE",
"624 259 LINE",
"612 151 OFFCURVE",
"512 60 OFFCURVE",
"371 60 CURVE SMOOTH",
"225 60 OFFCURVE",
"128 178 OFFCURVE",
"128 354 CURVE SMOOTH",
"128 526 OFFCURVE",
"223 640 OFFCURVE",
"378 640 CURVE SMOOTH",
"487 640 OFFCURVE",
"601 568 OFFCURVE",
"625 424 CURVE",
"701 449 LINE",
"667 616 OFFCURVE",
"535 710 OFFCURVE",
"378 710 CURVE SMOOTH",
"175 710 OFFCURVE",
"48 568 OFFCURVE",
"48 354 CURVE SMOOTH"
);
}
);
width = 743;
},
{
associatedMasterId = "0E084538-2240-41A5-9525-5B99B37478DA";
background = {
paths = (
{
closed = 1;
nodes = (
"56 130 OFFCURVE",
"196 -20 OFFCURVE",
"405 -20 CURVE SMOOTH",
"560 -20 OFFCURVE",
"683 58 OFFCURVE",
"737 188 CURVE",
"595 268 LINE",
"566 178 OFFCURVE",
"490 134 OFFCURVE",
"405 134 CURVE SMOOTH",
"292 134 OFFCURVE",
"216 222 OFFCURVE",
"216 354 CURVE SMOOTH",
"216 481 OFFCURVE",
"294 566 OFFCURVE",
"410 566 CURVE SMOOTH",
"501 566 OFFCURVE",
"576 512 OFFCURVE",
"602 414 CURVE",
"753 472 LINE",
"710 628 OFFCURVE",
"575 720 OFFCURVE",
"410 720 CURVE SMOOTH",
"198 720 OFFCURVE",
"56 574 OFFCURVE",
"56 354 CURVE SMOOTH"
);
}
);
};
layerId = "E5C9D1C9-23CB-4663-8062-598FBADC10FE";
name = "May 2 19, 05:32";
paths = (
{
closed = 1;
nodes = (
"56 130 OFFCURVE",
"199 -20 OFFCURVE",
"414 -20 CURVE SMOOTH",
"526 -20 OFFCURVE",
"611 16 OFFCURVE",
"627 71 CURVE",
"627 0 LINE",
"777 0 LINE",
"777 380 LINE",
"458 380 LINE",
"458 230 LINE",
"706 230 LINE",
"576 266 LINE",
"569 178 OFFCURVE",
"484 134 OFFCURVE",
"413 134 CURVE SMOOTH",
"293 134 OFFCURVE",
"216 215 OFFCURVE",
"216 354 CURVE SMOOTH",
"216 482 OFFCURVE",
"295 566 OFFCURVE",
"414 566 CURVE SMOOTH",
"506 566 OFFCURVE",
"581 505 OFFCURVE",
"601 414 CURVE",
"752 471 LINE",
"716 618 OFFCURVE",
"585 720 OFFCURVE",
"414 720 CURVE SMOOTH",
"199 720 OFFCURVE",
"56 574 OFFCURVE",
"56 354 CURVE SMOOTH"
);
}
);
width = 811;
}
);
leftMetricsKey = "=O";
rightMetricsKey = "=H-12";
unicode = 0047;
},
{
glyphname = H;
lastChange = "2019-05-02 13:30:38 +0000";
layers = (
{
layerId = "B5B6FC57-28DA-495E-8DF1-4E68D36FF5F4";
paths = (
{
closed = 1;
nodes = (
"48 701 LINE",
"48 0 LINE",
"128 0 LINE",
"128 701 LINE"
);
},
{
closed = 1;
nodes = (
"48 333 LINE",
"588 333 LINE",
"588 403 LINE",
"48 403 LINE"
);
},
{
closed = 1;
nodes = (
"508 701 LINE",
"508 0 LINE",
"588 0 LINE",
"588 701 LINE"
);
}
);
width = 636;
},
{
layerId = "273DC1B6-0844-4B23-906D-30A1B3BA0B12";
paths = (
{
closed = 1;
nodes = (
"48 701 LINE",
"48 0 LINE",
"78 0 LINE",
"78 701 LINE"
);
},
{
closed = 1;
nodes = (
"48 353 LINE",
"548 353 LINE",
"548 382 LINE",
"48 382 LINE"
);
},
{
closed = 1;
nodes = (
"518 701 LINE",
"518 0 LINE",
"548 0 LINE",
"548 701 LINE"
);
}
);
width = 596;
},
{
layerId = "0E084538-2240-41A5-9525-5B99B37478DA";
paths = (
{
closed = 1;
nodes = (
"48 701 LINE",
"48 0 LINE",
"210 0 LINE",
"210 701 LINE"
);
},
{
closed = 1;
nodes = (
"48 288 LINE",
"632 288 LINE",
"632 442 LINE",
"48 442 LINE"
);
},
{
closed = 1;
nodes = (
"470 701 LINE",
"470 0 LINE",
"632 0 LINE",
"632 701 LINE"
);
}
);
width = 680;
},
{
associatedMasterId = "273DC1B6-0844-4B23-906D-30A1B3BA0B12";
layerId = "F7ECBC73-3A47-4B5E-8399-0D68297ADC4A";
width = 600;
},
{
associatedMasterId = "B5B6FC57-28DA-495E-8DF1-4E68D36FF5F4";
layerId = "F731F1C5-87C8-4EE1-8075-9BAB731DE0C9";
name = "Apr 30 19, 01:20";
paths = (
{
closed = 1;
nodes = (
"56 701 LINE",
"56 0 LINE",
"136 0 LINE",
"136 701 LINE"
);
},
{
closed = 1;
nodes = (
"56 333 LINE",
"596 333 LINE",
"596 403 LINE",
"56 403 LINE"
);
},
{
closed = 1;
nodes = (
"516 701 LINE",
"516 0 LINE",
"596 0 LINE",
"596 701 LINE"
);
}
);
width = 652;
},
{
associatedMasterId = "0E084538-2240-41A5-9525-5B99B37478DA";
layerId = "6CD61FE6-ADFD-4DEC-8222-47AE21A021FD";
name = "May 2 19, 02:49";
paths = (
{
closed = 1;
nodes = (
"56 701 LINE",
"56 0 LINE",
"218 0 LINE",
"218 701 LINE"
);
},
{
closed = 1;
nodes = (
"56 288 LINE",
"640 288 LINE",
"640 442 LINE",
"56 442 LINE"
);
},
{
closed = 1;
nodes = (
"478 701 LINE",
"478 0 LINE",
"640 0 LINE",
"640 701 LINE"
);
}
);
width = 696;
}
);
unicode = 0048;
},
{
glyphname = I;
lastChange = "2019-05-02 13:32:28 +0000";
layers = (
{
layerId = "B5B6FC57-28DA-495E-8DF1-4E68D36FF5F4";
paths = (
{
closed = 1;
nodes = (
"258 701 LINE",
"258 0 LINE",
"338 0 LINE",
"338 701 LINE"
);
},
{
closed = 1;
nodes = (
"48 623 LINE",
"548 623 LINE",
"548 701 LINE",
"48 701 LINE"
);
},
{
closed = 1;
nodes = (
"48 0 LINE",
"548 0 LINE",
"548 78 LINE",
"48 78 LINE"
);
}
);
width = 596;
},
{
layerId = "273DC1B6-0844-4B23-906D-30A1B3BA0B12";
paths = (
{
closed = 1;
nodes = (
"283 701 LINE",
"283 0 LINE",
"313 0 LINE",
"313 701 LINE"
);
},
{
closed = 1;
nodes = (
"48 672 LINE",
"548 672 LINE",
"548 701 LINE",
"48 701 LINE"
);
},
{
closed = 1;
nodes = (
"48 0 LINE",
"548 0 LINE",
"548 29 LINE",
"48 29 LINE"
);
}
);
width = 596;
},
{
layerId = "0E084538-2240-41A5-9525-5B99B37478DA";
paths = (
{
closed = 1;
nodes = (
"217 701 LINE",
"217 0 LINE",
"379 0 LINE",
"379 701 LINE"
);
},
{
closed = 1;
nodes = (
"48 547 LINE",
"548 547 LINE",
"548 701 LINE",
"48 701 LINE"
);
},
{
closed = 1;
nodes = (
"48 0 LINE",
"548 0 LINE",
"548 154 LINE",
"48 154 LINE"
);
}
);
width = 596;
},
{
associatedMasterId = "273DC1B6-0844-4B23-906D-30A1B3BA0B12";
layerId = "F7ECBC73-3A47-4B5E-8399-0D68297ADC4A";
width = 600;
},
{
associatedMasterId = "B5B6FC57-28DA-495E-8DF1-4E68D36FF5F4";
layerId = "82D97D73-185B-4D03-8563-E7BF8A46B9C4";
name = "Apr 29 19, 15:05";
paths = (
{
closed = 1;
nodes = (
"286 701 LINE",
"286 0 LINE",
"366 0 LINE",
"366 701 LINE"
);
},
{
closed = 1;
nodes = (
"76 623 LINE",
"576 623 LINE",
"576 701 LINE",
"76 701 LINE"
);
},
{
closed = 1;
nodes = (
"76 0 LINE",
"576 0 LINE",
"576 76 LINE",
"76 76 LINE"
);
}
);
width = 652;
},
{
associatedMasterId = "B5B6FC57-28DA-495E-8DF1-4E68D36FF5F4";
layerId = "FCE0322F-9A45-4A59-8883-A6B561FE8178";
name = "Apr 29 19, 15:05";
paths = (
{
closed = 1;
nodes = (
"286 701 LINE",
"286 0 LINE",
"366 0 LINE",
"366 701 LINE"
);
},
{
closed = 1;
nodes = (
"76 623 LINE",
"576 623 LINE",
"576 701 LINE",
"76 701 LINE"
);
},
{
closed = 1;
nodes = (
"76 0 LINE",
"576 0 LINE",
"576 78 LINE",
"76 78 LINE"
);
}
);
width = 652;
},
{
associatedMasterId = "B5B6FC57-28DA-495E-8DF1-4E68D36FF5F4";
layerId = "A41AD520-3AA7-4818-9450-EE4F4B5541B8";
name = "Apr 30 19, 01:20";
paths = (
{
closed = 1;
nodes = (
"266 701 LINE",
"266 0 LINE",
"346 0 LINE",
"346 701 LINE"
);
},
{
closed = 1;
nodes = (
"56 623 LINE",
"556 623 LINE",
"556 701 LINE",
"56 701 LINE"
);
},
{
closed = 1;
nodes = (
"56 0 LINE",
"556 0 LINE",
"556 78 LINE",
"56 78 LINE"
);
}
);
width = 612;
}
);
leftMetricsKey = H;
rightMetricsKey = H;
unicode = 0049;
},
{
glyphname = J;
lastChange = "2019-05-02 13:38:39 +0000";
layers = (
{
layerId = "B5B6FC57-28DA-495E-8DF1-4E68D36FF5F4";
paths = (
{
closed = 1;
nodes = (
"40 52 OFFCURVE",
"120 -10 OFFCURVE",
"248 -10 CURVE SMOOTH",
"386 -10 OFFCURVE",
"488 62 OFFCURVE",
"488 169 CURVE SMOOTH",
"488 700 LINE",
"408 700 LINE",
"408 169 LINE SMOOTH",
"408 104 OFFCURVE",
"335 60 OFFCURVE",
"248 60 CURVE SMOOTH",
"162 60 OFFCURVE",
"113 104 OFFCURVE",
"103 171 CURVE",
"32 144 LINE"
);
}
);
width = 536;
},
{
layerId = "273DC1B6-0844-4B23-906D-30A1B3BA0B12";
paths = (
{
closed = 1;
nodes = (
"40 55 OFFCURVE",
"112 -10 OFFCURVE",
"230 -10 CURVE SMOOTH",
"355 -10 OFFCURVE",
"450 62 OFFCURVE",
"450 169 CURVE SMOOTH",
"450 700 LINE",
"420 700 LINE",
"420 169 LINE SMOOTH",
"420 79 OFFCURVE",
"336 19 OFFCURVE",
"230 19 CURVE SMOOTH",
"126 19 OFFCURVE",
"68 76 OFFCURVE",
"61 161 CURVE",
"32 152 LINE"
);
}
);
width = 498;
},
{
layerId = "0E084538-2240-41A5-9525-5B99B37478DA";
paths = (
{
closed = 1;
nodes = (
"43 58 OFFCURVE",
"141 -20 OFFCURVE",
"291 -20 CURVE SMOOTH",
"459 -20 OFFCURVE",
"571 61 OFFCURVE",
"571 189 CURVE SMOOTH",
"571 700 LINE",
"409 700 LINE",
"409 238 LINE SMOOTH",
"409 173 OFFCURVE",
"367 130 OFFCURVE",
"303 130 CURVE SMOOTH",
"233 130 OFFCURVE",
"182 173 OFFCURVE",
"175 238 CURVE",
"32 178 LINE"
);
}
);
width = 619;
},
{
associatedMasterId = "273DC1B6-0844-4B23-906D-30A1B3BA0B12";
layerId = "F7ECBC73-3A47-4B5E-8399-0D68297ADC4A";
width = 600;
},
{
associatedMasterId = "273DC1B6-0844-4B23-906D-30A1B3BA0B12";
layerId = "E4128754-9E8E-4F1D-A4AA-CF0E41FDA241";
name = "Apr 29 19, 15:28";
paths = (
{
closed = 1;
nodes = (
"73 55 OFFCURVE",
"149 -10 OFFCURVE",
"256 -10 CURVE SMOOTH",
"388 -10 OFFCURVE",
"476 62 OFFCURVE",
"476 169 CURVE SMOOTH",
"476 700 LINE",
"446 700 LINE",
"446 169 LINE SMOOTH",
"446 79 OFFCURVE",
"370 19 OFFCURVE",
"256 19 CURVE SMOOTH",
"165 19 OFFCURVE",
"99 77 OFFCURVE",
"92 164 CURVE",
"65 152 LINE"
);
}
);
width = 556;
},
{
associatedMasterId = "B5B6FC57-28DA-495E-8DF1-4E68D36FF5F4";
layerId = "144108B9-B455-46D8-A758-1E89335F5228";
name = "Apr 29 19, 15:28";
paths = (
{
closed = 1;
nodes = (
"17 59 OFFCURVE",
"106 -20 OFFCURVE",
"216 -20 CURVE SMOOTH",
"355 -20 OFFCURVE",
"446 51 OFFCURVE",
"446 169 CURVE SMOOTH",
"446 700 LINE",
"366 700 LINE",
"366 169 LINE SMOOTH",
"366 96 OFFCURVE",
"307 58 OFFCURVE",
"216 58 CURVE SMOOTH",
"141 58 OFFCURVE",
"89 128 OFFCURVE",
"83 172 CURVE",
"10 144 LINE"
);
}
);
width = 502;
},
{
associatedMasterId = "0E084538-2240-41A5-9525-5B99B37478DA";
layerId = "4D18FD52-265F-4D56-9C1D-966E0DB6F0C8";
name = "Apr 29 19, 15:28";
paths = (
{
closed = 1;
nodes = (
"70 56 OFFCURVE",
"170 -24 OFFCURVE",
"309 -24 CURVE SMOOTH",
"471 -24 OFFCURVE",
"579 53 OFFCURVE",
"579 169 CURVE SMOOTH",
"579 700 LINE",
"417 700 LINE",
"417 222 LINE SMOOTH",
"417 160 OFFCURVE",
"374 119 OFFCURVE",
"309 119 CURVE SMOOTH",
"245 119 OFFCURVE",
"198 162 OFFCURVE",
"191 227 CURVE",
"59 177 LINE"
);
}
);
width = 643;
},
{
associatedMasterId = "B5B6FC57-28DA-495E-8DF1-4E68D36FF5F4";
layerId = "75AD6F59-1B95-4580-B5EF-5DC1D3FB43E2";
name = "Apr 29 19, 15:29";
paths = (
{
closed = 1;
nodes = (
"18 52 OFFCURVE",
"100 -10 OFFCURVE",
"216 -10 CURVE SMOOTH",
"354 -10 OFFCURVE",
"446 62 OFFCURVE",
"446 169 CURVE SMOOTH",
"446 700 LINE",
"366 700 LINE",
"366 169 LINE SMOOTH",
"366 108 OFFCURVE",
"306 68 OFFCURVE",
"216 68 CURVE SMOOTH",
"145 68 OFFCURVE",
"92 110 OFFCURVE",
"83 172 CURVE",
"10 144 LINE"
);
}
);
width = 502;
},
{
associatedMasterId = "0E084538-2240-41A5-9525-5B99B37478DA";
layerId = "4A2942F6-8755-4B93-9E0C-7E240A2900FD";
name = "Apr 29 19, 15:29";
paths = (
{
closed = 1;
nodes = (
"50 56 OFFCURVE",
"154 -24 OFFCURVE",
"299 -24 CURVE SMOOTH",
"467 -24 OFFCURVE",
"579 53 OFFCURVE",
"579 169 CURVE SMOOTH",
"579 700 LINE",
"417 700 LINE",
"417 222 LINE SMOOTH",
"417 167 OFFCURVE",
"370 130 OFFCURVE",
"299 130 CURVE SMOOTH",
"228 130 OFFCURVE",
"177 169 OFFCURVE",
"171 227 CURVE",
"39 177 LINE"
);
}
);
width = 635;
},
{
associatedMasterId = "B5B6FC57-28DA-495E-8DF1-4E68D36FF5F4";
layerId = "9736EEA4-1048-4A6F-A8A2-305A2E661675";
name = "Apr 30 19, 00:49";
paths = (
{
closed = 1;
nodes = (
"48 52 OFFCURVE",
"134 -10 OFFCURVE",
"256 -10 CURVE SMOOTH",
"400 -10 OFFCURVE",
"496 62 OFFCURVE",
"496 169 CURVE SMOOTH",
"496 700 LINE",
"416 700 LINE",
"416 169 LINE SMOOTH",
"416 104 OFFCURVE",
"352 60 OFFCURVE",
"256 60 CURVE SMOOTH",
"179 60 OFFCURVE",
"121 104 OFFCURVE",
"111 171 CURVE",
"40 144 LINE"
);
}
);
width = 552;
},
{
associatedMasterId = "B5B6FC57-28DA-495E-8DF1-4E68D36FF5F4";
layerId = "8977C970-8A4F-409A-82FB-A7A57DE0C4BE";
name = "Apr 30 19, 01:20";
paths = (
{
closed = 1;
nodes = (
"48 52 OFFCURVE",
"134 -10 OFFCURVE",
"256 -10 CURVE SMOOTH",
"400 -10 OFFCURVE",
"496 62 OFFCURVE",
"496 169 CURVE SMOOTH",
"496 700 LINE",
"416 700 LINE",
"416 169 LINE SMOOTH",
"416 104 OFFCURVE",
"352 60 OFFCURVE",
"256 60 CURVE SMOOTH",
"179 60 OFFCURVE",
"121 104 OFFCURVE",
"111 171 CURVE",
"40 144 LINE"
);
}
);
width = 552;
},
{
associatedMasterId = "273DC1B6-0844-4B23-906D-30A1B3BA0B12";
background = {
paths = (
{
closed = 1;
nodes = (
"48 52 OFFCURVE",
"134 -10 OFFCURVE",
"256 -10 CURVE SMOOTH",
"400 -10 OFFCURVE",
"496 62 OFFCURVE",
"496 169 CURVE SMOOTH",
"496 700 LINE",
"416 700 LINE",
"416 169 LINE SMOOTH",
"416 104 OFFCURVE",
"352 60 OFFCURVE",
"256 60 CURVE SMOOTH",
"179 60 OFFCURVE",
"121 104 OFFCURVE",
"111 171 CURVE",
"40 144 LINE"
);
}
);
};
layerId = "4E65677E-BF47-4045-84F5-208A885E4350";
name = "Apr 30 19, 05:17";
paths = (
{
closed = 1;
nodes = (
"66 54 OFFCURVE",
"145 -10 OFFCURVE",
"256 -10 CURVE SMOOTH",
"388 -10 OFFCURVE",
"476 62 OFFCURVE",
"476 169 CURVE SMOOTH",
"476 700 LINE",
"446 700 LINE",
"446 169 LINE SMOOTH",
"446 79 OFFCURVE",
"370 19 OFFCURVE",
"256 19 CURVE SMOOTH",
"160 19 OFFCURVE",
"92 76 OFFCURVE",
"85 161 CURVE",
"58 151 LINE"
);
}
);
width = 532;
}
);
rightMetricsKey = H;
unicode = 004A;
},
{
glyphname = K;
lastChange = "2019-05-02 13:38:12 +0000";
layers = (
{
layerId = "B5B6FC57-28DA-495E-8DF1-4E68D36FF5F4";
paths = (
{
closed = 1;
nodes = (
"48 0 LINE",
"128 0 LINE",
"128 700 LINE",
"48 700 LINE"
);
},
{
closed = 1;
nodes = (
"203 414 LINE",
"541 0 LINE",
"644 0 LINE",
"285 440 LINE"
);
},
{
closed = 1;
nodes = (
"89 242 LINE",
"119 247 LINE",
"607 700 LINE",
"499 699 LINE",
"74 300 LINE"
);
}
);
width = 668;
},
{
layerId = "273DC1B6-0844-4B23-906D-30A1B3BA0B12";
paths = (
{
closed = 1;
nodes = (
"48 0 LINE",
"78 0 LINE",
"78 700 LINE",
"48 700 LINE"
);
},
{
closed = 1;
nodes = (
"213 414 LINE",
"550 0 LINE",
"589 0 LINE",
"252 414 LINE"
);
},
{
closed = 1;
nodes = (
"54 242 LINE",
"68 242 LINE",
"555 700 LINE",
"512 700 LINE",
"54 269 LINE"
);
}
);
width = 613;
},
{
layerId = "0E084538-2240-41A5-9525-5B99B37478DA";
paths = (
{
closed = 1;
nodes = (
"48 0 LINE",
"210 0 LINE",
"210 700 LINE",
"48 700 LINE"
);
},
{
closed = 1;
nodes = (
"203 414 LINE",
"539 0 LINE",
"728 0 LINE",
"391 414 LINE"
);
},
{
closed = 1;
nodes = (
"107 83 LINE",
"61 105 LINE",
"703 700 LINE",
"486 699 LINE",
"107 342 LINE"
);
}
);
width = 752;
},
{
associatedMasterId = "273DC1B6-0844-4B23-906D-30A1B3BA0B12";
layerId = "F7ECBC73-3A47-4B5E-8399-0D68297ADC4A";
width = 600;
},
{
associatedMasterId = "273DC1B6-0844-4B23-906D-30A1B3BA0B12";
layerId = "EF897A86-5400-4D00-9C89-389D74E6BD53";
name = "Apr 29 19, 15:48";
paths = (
{
closed = 1;
nodes = (
"80 0 LINE",
"110 0 LINE",
"110 700 LINE",
"80 700 LINE"
);
},
{
closed = 1;
nodes = (
"245 414 LINE",
"582 0 LINE",
"621 0 LINE",
"284 414 LINE"
);
},
{
closed = 1;
nodes = (
"86 242 LINE",
"100 242 LINE",
"587 699 LINE",
"543 699 LINE",
"86 270 LINE"
);
}
);
width = 698;
},
{
associatedMasterId = "B5B6FC57-28DA-495E-8DF1-4E68D36FF5F4";
layerId = "EC152072-EE93-4044-BEA5-96C72F28AC79";
name = "Apr 29 19, 15:48";
paths = (
{
closed = 1;
nodes = (
"76 0 LINE",
"156 0 LINE",
"156 700 LINE",
"76 700 LINE"
);
},
{
closed = 1;
nodes = (
"231 414 LINE",
"569 0 LINE",
"672 0 LINE",
"334 414 LINE"
);
},
{
closed = 1;
nodes = (
"117 242 LINE",
"157 247 LINE",
"645 700 LINE",
"527 699 LINE",
"102 300 LINE"
);
}
);
width = 677;
},
{
associatedMasterId = "0E084538-2240-41A5-9525-5B99B37478DA";
layerId = "FB3B7F8F-CBA9-418A-B9AF-C872297487CC";
name = "Apr 29 19, 15:48";
paths = (
{
closed = 1;
nodes = (
"64 0 LINE",
"226 0 LINE",
"226 700 LINE",
"64 700 LINE"
);
},
{
closed = 1;
nodes = (
"219 414 LINE",
"555 0 LINE",
"744 0 LINE",
"407 414 LINE"
);
},
{
closed = 1;
nodes = (
"123 83 LINE",
"77 105 LINE",
"719 700 LINE",
"502 699 LINE",
"123 342 LINE"
);
}
);
width = 782;
},
{
associatedMasterId = "B5B6FC57-28DA-495E-8DF1-4E68D36FF5F4";
layerId = "5FA73C5C-10F2-4EE8-937B-EF766435C65A";
name = "Apr 30 19, 01:20";
paths = (
{
closed = 1;
nodes = (
"56 0 LINE",
"136 0 LINE",
"136 700 LINE",
"56 700 LINE"
);
},
{
closed = 1;
nodes = (
"211 414 LINE",
"549 0 LINE",
"652 0 LINE",
"293 440 LINE"
);
},
{
closed = 1;
nodes = (
"97 242 LINE",
"127 247 LINE",
"615 700 LINE",
"507 699 LINE",
"82 300 LINE"
);
}
);
width = 657;
}
);
leftMetricsKey = "=H";
unicode = 004B;
},
{
glyphname = L;
lastChange = "2019-05-02 13:37:58 +0000";
layers = (
{
layerId = "B5B6FC57-28DA-495E-8DF1-4E68D36FF5F4";
paths = (
{
closed = 1;
nodes = (
"48 701 LINE",
"48 0 LINE",
"128 0 LINE",
"128 701 LINE"
);
},
{
closed = 1;
nodes = (
"48 0 LINE",
"534 0 LINE",
"534 70 LINE",
"48 70 LINE"
);
}
);
width = 576;
},
{
layerId = "273DC1B6-0844-4B23-906D-30A1B3BA0B12";
paths = (
{
closed = 1;
nodes = (
"48 701 LINE",
"48 0 LINE",
"78 0 LINE",
"78 701 LINE"
);
},
{
closed = 1;
nodes = (
"48 0 LINE",
"494 0 LINE",
"494 29 LINE",
"48 29 LINE"
);
}
);
width = 536;
},
{
layerId = "0E084538-2240-41A5-9525-5B99B37478DA";
paths = (
{
closed = 1;
nodes = (
"48 701 LINE",
"48 0 LINE",
"210 0 LINE",
"210 701 LINE"
);
},
{
closed = 1;
nodes = (
"48 0 LINE",
"579 0 LINE",
"579 162 LINE",
"48 162 LINE"
);
}
);
width = 621;
},
{
associatedMasterId = "273DC1B6-0844-4B23-906D-30A1B3BA0B12";
layerId = "F7ECBC73-3A47-4B5E-8399-0D68297ADC4A";
width = 600;
},
{
associatedMasterId = "B5B6FC57-28DA-495E-8DF1-4E68D36FF5F4";
layerId = "ED7B285B-F674-4129-A440-AC5268727096";
name = "Apr 29 19, 15:07";
paths = (
{
closed = 1;
nodes = (
"56 701 LINE",
"56 0 LINE",
"136 0 LINE",
"136 701 LINE"
);
},
{
closed = 1;
nodes = (
"56 0 LINE",
"542 0 LINE",
"542 76 LINE",
"56 76 LINE"
);
}
);
width = 598;
},
{
associatedMasterId = "0E084538-2240-41A5-9525-5B99B37478DA";
layerId = "6F07F175-F398-407B-95B4-9F707A8AC2BB";
name = "Apr 29 19, 15:07";
paths = (
{
closed = 1;
nodes = (
"56 701 LINE",
"56 0 LINE",
"218 0 LINE",
"218 701 LINE"
);
},
{
closed = 1;
nodes = (
"56 0 LINE",
"587 0 LINE",
"587 162 LINE",
"56 162 LINE"
);
}
);
width = 650;
},
{
associatedMasterId = "273DC1B6-0844-4B23-906D-30A1B3BA0B12";
layerId = "2DEBF02C-09FA-4BC7-A22B-433928621E1C";
name = "Apr 29 19, 15:07";
paths = (
{
closed = 1;
nodes = (
"56 701 LINE",
"56 0 LINE",
"86 0 LINE",
"86 701 LINE"
);
},
{
closed = 1;
nodes = (
"56 0 LINE",
"502 0 LINE",
"502 30 LINE",
"56 30 LINE"
);
}
);
width = 558;
},
{
associatedMasterId = "B5B6FC57-28DA-495E-8DF1-4E68D36FF5F4";
layerId = "72D4ED68-CB97-461D-9F20-27132EF9F6A7";
name = "Apr 30 19, 01:20";
paths = (
{
closed = 1;
nodes = (
"56 701 LINE",
"56 0 LINE",
"136 0 LINE",
"136 701 LINE"
);
},
{
closed = 1;
nodes = (
"56 0 LINE",
"542 0 LINE",
"542 70 LINE",
"56 70 LINE"
);
}
);
width = 598;
}
);
leftMetricsKey = H;
unicode = 004C;
},
{
glyphname = M;
lastChange = "2019-05-02 13:32:28 +0000";
layers = (
{
layerId = "B5B6FC57-28DA-495E-8DF1-4E68D36FF5F4";
paths = (
{
closed = 1;
nodes = (
"48 0 LINE",
"128 0 LINE",
"126 676 LINE",
"106 674 LINE",
"341 0 LINE",
"451 0 LINE",
"684 670 LINE",
"664 672 LINE",
"666 0 LINE",
"746 0 LINE",
"744 700 LINE",
"610 700 LINE",
"374 23 LINE",
"418 23 LINE",
"182 700 LINE",
"46 700 LINE"
);
}
);
width = 792;
},
{
layerId = "273DC1B6-0844-4B23-906D-30A1B3BA0B12";
paths = (
{
closed = 1;
nodes = (
"48 0 LINE",
"78 0 LINE",
"76 697 LINE",
"61 697 LINE",
"353 0 LINE",
"399 0 LINE",
"689 697 LINE",
"674 697 LINE",
"676 0 LINE",
"706 0 LINE",
"704 700 LINE",
"658 700 LINE",
"371 10 LINE",
"381 10 LINE",
"92 700 LINE",
"46 700 LINE"
);
}
);
width = 752;
},
{
layerId = "0E084538-2240-41A5-9525-5B99B37478DA";
paths = (
{
closed = 1;
nodes = (
"49 0 LINE",
"208 0 LINE",
"206 435 LINE",
"181 433 LINE",
"329 0 LINE",
"507 0 LINE",
"653 433 LINE",
"629 435 LINE",
"631 0 LINE",
"791 0 LINE",
"788 700 LINE",
"576 700 LINE",
"404 173 LINE",
"432 173 LINE",
"257 700 LINE",
"46 700 LINE"
);
}
);
width = 837;
},
{
associatedMasterId = "273DC1B6-0844-4B23-906D-30A1B3BA0B12";
layerId = "F7ECBC73-3A47-4B5E-8399-0D68297ADC4A";
width = 600;
},
{
associatedMasterId = "0E084538-2240-41A5-9525-5B99B37478DA";
layerId = "1B6E2908-FEFC-4E89-B6ED-F14FBFEF5241";
name = "Apr 29 19, 15:49";
paths = (
{
closed = 1;
nodes = (
"56 0 LINE",
"219 0 LINE",
"217 390 LINE",
"350 0 LINE",
"508 0 LINE",
"640 390 LINE",
"642 0 LINE",
"804 0 LINE",
"802 700 LINE",
"591 700 LINE",
"429 216 LINE",
"268 700 LINE",
"54 700 LINE"
);
}
);
width = 858;
},
{
associatedMasterId = "B5B6FC57-28DA-495E-8DF1-4E68D36FF5F4";
layerId = "4D6B3C39-F5E2-49EE-A7FC-3E8520DB6FCB";
name = "Apr 29 19, 15:49";
paths = (
{
closed = 1;
nodes = (
"76 0 LINE",
"156 0 LINE",
"154 611 LINE",
"364 0 LINE",
"444 0 LINE",
"652 607 LINE",
"654 0 LINE",
"734 0 LINE",
"732 700 LINE",
"606 700 LINE",
"404 96 LINE",
"202 700 LINE",
"74 700 LINE"
);
}
);
width = 808;
},
{
associatedMasterId = "273DC1B6-0844-4B23-906D-30A1B3BA0B12";
layerId = "53BF27CE-BA4A-4E33-9D79-7E1EBE3CF0E9";
name = "Apr 29 19, 15:49";
paths = (
{
closed = 1;
nodes = (
"56 0 LINE",
"86 0 LINE",
"84 669 LINE",
"321 0 LINE",
"367 0 LINE",
"602 662 LINE",
"604 0 LINE",
"634 0 LINE",
"632 700 LINE",
"582 700 LINE",
"344 24 LINE",
"106 700 LINE",
"54 700 LINE"
);
}
);
width = 688;
},
{
associatedMasterId = "B5B6FC57-28DA-495E-8DF1-4E68D36FF5F4";
layerId = "5D10E5CC-F59D-45B5-BCF4-27DD5C932874";
name = "Apr 30 19, 01:20";
paths = (
{
closed = 1;
nodes = (
"56 0 LINE",
"136 0 LINE",
"134 611 LINE",
"344 0 LINE",
"424 0 LINE",
"632 607 LINE",
"634 0 LINE",
"714 0 LINE",
"712 700 LINE",
"586 700 LINE",
"384 96 LINE",
"182 700 LINE",
"54 700 LINE"
);
}
);
width = 768;
},
{
associatedMasterId = "273DC1B6-0844-4B23-906D-30A1B3BA0B12";
layerId = "46622701-620C-4132-9B3F-99053452DFF1";
name = "Apr 30 19, 16:36";
paths = (
{
closed = 1;
nodes = (
"60 0 LINE",
"90 0 LINE",
"88 697 LINE",
"73 697 LINE",
"365 0 LINE",
"411 0 LINE",
"701 697 LINE",
"686 697 LINE",
"688 0 LINE",
"718 0 LINE",
"716 700 LINE",
"670 700 LINE",
"383 10 LINE",
"393 10 LINE",
"104 700 LINE",
"58 700 LINE"
);
}
);
width = 776;
},
{
associatedMasterId = "B5B6FC57-28DA-495E-8DF1-4E68D36FF5F4";
layerId = "148C3C8F-FA75-445C-9F0A-185521206717";
name = "Apr 30 19, 16:37";
paths = (
{
closed = 1;
nodes = (
"54 0 LINE",
"134 0 LINE",
"132 656 LINE",
"117 654 LINE",
"342 0 LINE",
"422 0 LINE",
"645 650 LINE",
"630 652 LINE",
"632 0 LINE",
"712 0 LINE",
"710 700 LINE",
"584 700 LINE",
"368 53 LINE",
"396 53 LINE",
"180 700 LINE",
"52 700 LINE"
);
}
);
width = 764;
}
);
leftMetricsKey = "=H-2";
rightMetricsKey = "=H-2";
unicode = 004D;
},
{
glyphname = N;
lastChange = "2019-05-02 13:32:28 +0000";
layers = (
{
layerId = "B5B6FC57-28DA-495E-8DF1-4E68D36FF5F4";
paths = (
{
closed = 1;
nodes = (
"50 0 LINE",
"130 0 LINE",
"128 678 LINE",
"106 672 LINE",
"493 -3 LINE",
"619 -3 LINE",
"616 699 LINE",
"536 699 LINE",
"539 25 LINE",
"561 31 LINE",
"177 702 LINE",
"48 699 LINE"
);
}
);
width = 667;
},
{
layerId = "273DC1B6-0844-4B23-906D-30A1B3BA0B12";
paths = (
{
closed = 1;
nodes = (
"50 0 LINE",
"80 0 LINE",
"78 688 LINE",
"71 687 LINE",
"500 -2 LINE",
"549 -2 LINE",
"546 700 LINE",
"516 700 LINE",
"519 9 LINE",
"527 9 LINE",
"97 701 LINE",
"48 700 LINE"
);
}
);
width = 597;
},
{
layerId = "0E084538-2240-41A5-9525-5B99B37478DA";
paths = (
{
closed = 1;
nodes = (
"50 0 LINE",
"212 0 LINE",
"210 676 LINE",
"115 668 LINE",
"491 -3 LINE",
"706 -3 LINE",
"703 699 LINE",
"541 699 LINE",
"544 29 LINE",
"648 37 LINE",
"275 702 LINE",
"48 699 LINE"
);
}
);
width = 754;
},
{
associatedMasterId = "273DC1B6-0844-4B23-906D-30A1B3BA0B12";
layerId = "F7ECBC73-3A47-4B5E-8399-0D68297ADC4A";
width = 600;
},
{
associatedMasterId = "273DC1B6-0844-4B23-906D-30A1B3BA0B12";
layerId = "5ECFCB69-1D28-4A3C-B82A-522631E94325";
name = "Apr 29 19, 15:49";
paths = (
{
closed = 1;
nodes = (
"58 0 LINE",
"88 0 LINE",
"86 688 LINE",
"78 687 LINE",
"507 -2 LINE",
"557 -2 LINE",
"554 700 LINE",
"524 700 LINE",
"527 9 LINE",
"535 9 LINE",
"105 702 LINE",
"56 700 LINE"
);
}
);
width = 613;
},
{
associatedMasterId = "B5B6FC57-28DA-495E-8DF1-4E68D36FF5F4";
layerId = "ED28917D-22E6-4927-AF77-64BF53C3BEA9";
name = "Apr 29 19, 15:49";
paths = (
{
closed = 1;
nodes = (
"78 0 LINE",
"158 0 LINE",
"156 678 LINE",
"134 672 LINE",
"521 -3 LINE",
"647 -3 LINE",
"644 699 LINE",
"564 699 LINE",
"567 25 LINE",
"596 31 LINE",
"212 702 LINE",
"76 699 LINE"
);
}
);
width = 723;
},
{
associatedMasterId = "0E084538-2240-41A5-9525-5B99B37478DA";
layerId = "5EEEC34E-7337-461C-BA26-F574F79C083C";
name = "Apr 29 19, 15:49";
paths = (
{
closed = 1;
nodes = (
"66 0 LINE",
"228 0 LINE",
"226 676 LINE",
"131 668 LINE",
"507 -3 LINE",
"722 -3 LINE",
"719 699 LINE",
"557 699 LINE",
"560 29 LINE",
"664 37 LINE",
"291 702 LINE",
"64 699 LINE"
);
}
);
width = 786;
},
{
associatedMasterId = "B5B6FC57-28DA-495E-8DF1-4E68D36FF5F4";
layerId = "04C5FE6F-5F17-462F-B8EC-02590A3756BE";
name = "Apr 30 19, 01:20";
paths = (
{
closed = 1;
nodes = (
"58 0 LINE",
"138 0 LINE",
"136 678 LINE",
"114 672 LINE",
"501 -3 LINE",
"627 -3 LINE",
"624 699 LINE",
"544 699 LINE",
"547 25 LINE",
"569 31 LINE",
"185 702 LINE",
"56 699 LINE"
);
}
);
width = 683;
}
);
leftMetricsKey = "=H";
rightMetricsKey = "=H";
unicode = 004E;
},
{
glyphname = O;
lastChange = "2019-05-02 13:33:19 +0000";
layers = (
{
layerId = "B5B6FC57-28DA-495E-8DF1-4E68D36FF5F4";
paths = (
{
closed = 1;
nodes = (
"572 -10 OFFCURVE",
"710 138 OFFCURVE",
"710 354 CURVE SMOOTH",
"710 570 OFFCURVE",
"571 710 OFFCURVE",
"373 710 CURVE SMOOTH",
"174 710 OFFCURVE",
"48 568 OFFCURVE",
"48 354 CURVE SMOOTH",
"48 136 OFFCURVE",
"175 -10 OFFCURVE",
"373 -10 CURVE SMOOTH"
);
},
{
closed = 1;
nodes = (
"223 60 OFFCURVE",
"128 180 OFFCURVE",
"128 354 CURVE SMOOTH",
"128 528 OFFCURVE",
"223 640 OFFCURVE",
"373 640 CURVE SMOOTH",
"524 640 OFFCURVE",
"630 529 OFFCURVE",
"630 354 CURVE SMOOTH",
"630 181 OFFCURVE",
"524 60 OFFCURVE",
"373 60 CURVE SMOOTH"
);
}
);
width = 758;
},
{
layerId = "273DC1B6-0844-4B23-906D-30A1B3BA0B12";
paths = (
{
closed = 1;
nodes = (
"558 -10 OFFCURVE",
"692 138 OFFCURVE",
"692 354 CURVE SMOOTH",
"692 570 OFFCURVE",
"557 710 OFFCURVE",
"364 710 CURVE SMOOTH",
"170 710 OFFCURVE",
"48 570 OFFCURVE",
"48 354 CURVE SMOOTH",
"48 138 OFFCURVE",
"171 -10 OFFCURVE",
"364 -10 CURVE SMOOTH"
);
},
{
closed = 1;
nodes = (
"189 19 OFFCURVE",
"78 156 OFFCURVE",
"78 354 CURVE SMOOTH",
"78 553 OFFCURVE",
"189 681 OFFCURVE",
"364 681 CURVE SMOOTH",
"540 681 OFFCURVE",
"662 553 OFFCURVE",
"662 354 CURVE SMOOTH",
"662 156 OFFCURVE",
"540 19 OFFCURVE",
"364 19 CURVE SMOOTH"
);
}
);
width = 740;
},
{
layerId = "0E084538-2240-41A5-9525-5B99B37478DA";
paths = (
{
closed = 1;
nodes = (
"613 -20 OFFCURVE",
"761 132 OFFCURVE",
"761 354 CURVE SMOOTH",
"761 576 OFFCURVE",
"611 720 OFFCURVE",
"398 720 CURVE SMOOTH",
"183 720 OFFCURVE",
"48 574 OFFCURVE",
"48 354 CURVE SMOOTH",
"48 130 OFFCURVE",
"185 -20 OFFCURVE",
"398 -20 CURVE SMOOTH"
);
},
{
closed = 1;
nodes = (
"280 134 OFFCURVE",
"208 225 OFFCURVE",
"208 354 CURVE SMOOTH",
"208 484 OFFCURVE",
"281 566 OFFCURVE",
"398 566 CURVE SMOOTH",
"517 566 OFFCURVE",
"601 485 OFFCURVE",
"601 354 CURVE SMOOTH",
"601 226 OFFCURVE",
"516 134 OFFCURVE",
"398 134 CURVE SMOOTH"
);
}
);
width = 809;
},
{
associatedMasterId = "273DC1B6-0844-4B23-906D-30A1B3BA0B12";
layerId = "F7ECBC73-3A47-4B5E-8399-0D68297ADC4A";
width = 600;
},
{
associatedMasterId = "B5B6FC57-28DA-495E-8DF1-4E68D36FF5F4";
layerId = "2FA35217-74CD-4477-9F43-CFB77F2922B1";
name = "Apr 30 19, 01:20";
paths = (
{
closed = 1;
nodes = (
"582 -10 OFFCURVE",
"717 136 OFFCURVE",
"717 354 CURVE SMOOTH",
"717 568 OFFCURVE",
"582 710 OFFCURVE",
"380 710 CURVE SMOOTH",
"185 710 OFFCURVE",
"55 568 OFFCURVE",
"55 354 CURVE SMOOTH",
"55 136 OFFCURVE",
"185 -10 OFFCURVE",
"380 -10 CURVE SMOOTH"
);
},
{
closed = 1;
nodes = (
"233 60 OFFCURVE",
"135 178 OFFCURVE",
"135 354 CURVE SMOOTH",
"135 526 OFFCURVE",
"233 640 OFFCURVE",
"380 640 CURVE SMOOTH",
"534 640 OFFCURVE",
"637 526 OFFCURVE",
"637 354 CURVE SMOOTH",
"637 178 OFFCURVE",
"534 60 OFFCURVE",
"380 60 CURVE SMOOTH"
);
}
);
width = 772;
}
);
unicode = 004F;
},
{
glyphname = P;
lastChange = "2019-05-02 13:33:26 +0000";
layers = (
{
layerId = "B5B6FC57-28DA-495E-8DF1-4E68D36FF5F4";
paths = (
{
closed = 1;
nodes = (
"48 700 LINE",
"48 0 LINE",
"128 0 LINE",
"128 700 LINE"
);
},
{
closed = 1;
nodes = (
"312 280 LINE SMOOTH",
"478 280 OFFCURVE",
"576 360 OFFCURVE",
"576 492 CURVE SMOOTH",
"576 625 OFFCURVE",
"478 702 OFFCURVE",
"312 701 CURVE SMOOTH",
"48 700 LINE",
"48 630 LINE",
"312 631 LINE SMOOTH",
"428 631 OFFCURVE",
"496 580 OFFCURVE",
"496 492 CURVE SMOOTH",
"496 404 OFFCURVE",
"428 350 OFFCURVE",
"312 350 CURVE SMOOTH",
"48 351 LINE",
"48 280 LINE"
);
}
);
width = 624;
},
{
layerId = "273DC1B6-0844-4B23-906D-30A1B3BA0B12";
paths = (
{
closed = 1;
nodes = (
"48 700 LINE",
"48 0 LINE",
"78 0 LINE",
"78 700 LINE"
);
},
{
closed = 1;
nodes = (
"302 304 LINE SMOOTH",
"448 304 OFFCURVE",
"546 373 OFFCURVE",
"546 492 CURVE SMOOTH",
"546 612 OFFCURVE",
"448 702 OFFCURVE",
"302 701 CURVE SMOOTH",
"48 700 LINE",
"48 671 LINE",
"302 672 LINE SMOOTH",
"430 673 OFFCURVE",
"516 594 OFFCURVE",
"516 492 CURVE SMOOTH",
"516 390 OFFCURVE",
"430 333 OFFCURVE",
"302 333 CURVE SMOOTH",
"48 334 LINE",
"48 304 LINE"
);
}
);
width = 594;
},
{
layerId = "0E084538-2240-41A5-9525-5B99B37478DA";
paths = (
{
closed = 1;
nodes = (
"48 700 LINE",
"48 0 LINE",
"210 0 LINE",
"210 700 LINE"
);
},
{
closed = 1;
nodes = (
"280 202 LINE SMOOTH",
"524 202 OFFCURVE",
"636 286 OFFCURVE",
"636 457 CURVE SMOOTH",
"636 629 OFFCURVE",
"524 702 OFFCURVE",
"280 701 CURVE SMOOTH",
"48 700 LINE",
"48 546 LINE",
"280 547 LINE SMOOTH",
"413 548 OFFCURVE",
"474 523 OFFCURVE",
"474 457 CURVE SMOOTH",
"474 390 OFFCURVE",
"413 355 OFFCURVE",
"280 356 CURVE SMOOTH",
"48 357 LINE",
"48 202 LINE"
);
}
);
width = 684;
},
{
associatedMasterId = "273DC1B6-0844-4B23-906D-30A1B3BA0B12";
layerId = "F7ECBC73-3A47-4B5E-8399-0D68297ADC4A";
width = 600;
},
{
associatedMasterId = "273DC1B6-0844-4B23-906D-30A1B3BA0B12";
layerId = "EE8D1CEB-4C71-4684-9DF6-07001F2001A4";
name = "Apr 29 19, 15:32";
paths = (
{
closed = 1;
nodes = (
"80 700 LINE",
"80 0 LINE",
"110 0 LINE",
"110 700 LINE"
);
},
{
closed = 1;
nodes = (
"334 303 LINE SMOOTH",
"480 303 OFFCURVE",
"578 379 OFFCURVE",
"578 492 CURVE SMOOTH",
"578 618 OFFCURVE",
"480 702 OFFCURVE",
"334 701 CURVE SMOOTH",
"80 700 LINE",
"80 670 LINE",
"334 671 LINE SMOOTH",
"462 671 OFFCURVE",
"548 599 OFFCURVE",
"548 492 CURVE SMOOTH",
"548 397 OFFCURVE",
"462 333 OFFCURVE",
"334 333 CURVE SMOOTH",
"80 334 LINE",
"80 303 LINE"
);
}
);
width = 646;
},
{
associatedMasterId = "B5B6FC57-28DA-495E-8DF1-4E68D36FF5F4";
layerId = "0457538C-8687-46AD-A2F0-F82B66746368";
name = "Apr 29 19, 15:32";
paths = (
{
closed = 1;
nodes = (
"76 700 LINE",
"76 0 LINE",
"156 0 LINE",
"156 700 LINE"
);
},
{
closed = 1;
nodes = (
"340 277 LINE SMOOTH",
"515 277 OFFCURVE",
"614 354 OFFCURVE",
"614 492 CURVE SMOOTH",
"614 627 OFFCURVE",
"515 702 OFFCURVE",
"340 701 CURVE SMOOTH",
"76 700 LINE",
"76 624 LINE",
"340 625 LINE SMOOTH",
"464 625 OFFCURVE",
"534 577 OFFCURVE",
"534 492 CURVE SMOOTH",
"534 403 OFFCURVE",
"464 353 OFFCURVE",
"340 353 CURVE SMOOTH",
"76 354 LINE",
"76 277 LINE"
);
}
);
width = 678;
},
{
associatedMasterId = "0E084538-2240-41A5-9525-5B99B37478DA";
background = {
paths = (
{
closed = 1;
nodes = (
"187 0 LINE",
"187 237 LINE",
"181 237 LINE SMOOTH",
"2 237 OFFCURVE",
"406 241 OFFCURVE",
"434 196 CURVE SMOOTH",
"456 161 OFFCURVE",
"425 32 OFFCURVE",
"485 0 CURVE",
"648 0 LINE",
"585 41 OFFCURVE",
"603 218 OFFCURVE",
"574 263 CURVE SMOOTH",
"549 301 OFFCURVE",
"502 316 OFFCURVE",
"469 316 CURVE",
"555 333 OFFCURVE",
"613 400 OFFCURVE",
"613 483 CURVE SMOOTH",
"613 615 OFFCURVE",
"500 702 OFFCURVE",
"331 701 CURVE SMOOTH",
"25 700 LINE",
"25 0 LINE"
);
},
{
closed = 1;
nodes = (
"187 577 LINE",
"331 578 LINE SMOOTH",
"402 578 OFFCURVE",
"450 541 OFFCURVE",
"450 483 CURVE SMOOTH",
"450 419 OFFCURVE",
"400 377 OFFCURVE",
"325 378 CURVE SMOOTH",
"187 379 LINE"
);
}
);
};
layerId = "96D2D7C5-2CC8-4F70-A897-031FB08EFA41";
name = "Apr 29 19, 15:32";
paths = (
{
closed = 1;
nodes = (
"64 700 LINE",
"64 0 LINE",
"226 0 LINE",
"226 700 LINE"
);
},
{
closed = 1;
nodes = (
"296 216 LINE SMOOTH",
"550 216 OFFCURVE",
"652 286 OFFCURVE",
"652 462 CURVE SMOOTH",
"652 634 OFFCURVE",
"550 702 OFFCURVE",
"296 701 CURVE SMOOTH",
"64 700 LINE",
"64 560 LINE",
"296 561 LINE SMOOTH",
"435 562 OFFCURVE",
"490 534 OFFCURVE",
"490 462 CURVE SMOOTH",
"490 385 OFFCURVE",
"435 355 OFFCURVE",
"296 356 CURVE SMOOTH",
"64 357 LINE",
"64 216 LINE"
);
}
);
width = 712;
},
{
associatedMasterId = "0E084538-2240-41A5-9525-5B99B37478DA";
layerId = "83EA9C3B-3D9A-429A-BA74-2E9E1B630AE9";
name = "Apr 29 19, 15:41";
paths = (
{
closed = 1;
nodes = (
"64 700 LINE",
"64 0 LINE",
"226 0 LINE",
"226 700 LINE"
);
},
{
closed = 1;
nodes = (
"296 202 LINE SMOOTH",
"540 202 OFFCURVE",
"652 282 OFFCURVE",
"652 457 CURVE SMOOTH",
"652 625 OFFCURVE",
"540 702 OFFCURVE",
"296 701 CURVE SMOOTH",
"64 700 LINE",
"64 546 LINE",
"296 547 LINE SMOOTH",
"429 548 OFFCURVE",
"490 520 OFFCURVE",
"490 457 CURVE SMOOTH",
"490 387 OFFCURVE",
"429 355 OFFCURVE",
"296 356 CURVE SMOOTH",
"64 357 LINE",
"64 202 LINE"
);
}
);
width = 712;
},
{
associatedMasterId = "B5B6FC57-28DA-495E-8DF1-4E68D36FF5F4";
layerId = "CE9BCB3D-3432-41C9-97E9-91DD0B41311A";
name = "Apr 30 19, 01:20";
paths = (
{
closed = 1;
nodes = (
"56 700 LINE",
"56 0 LINE",
"136 0 LINE",
"136 700 LINE"
);
},
{
closed = 1;
nodes = (
"320 280 LINE SMOOTH",
"486 280 OFFCURVE",
"584 359 OFFCURVE",
"584 492 CURVE SMOOTH",
"584 624 OFFCURVE",
"486 702 OFFCURVE",
"320 701 CURVE SMOOTH",
"56 700 LINE",
"56 630 LINE",
"320 631 LINE SMOOTH",
"436 631 OFFCURVE",
"504 579 OFFCURVE",
"504 492 CURVE SMOOTH",
"504 403 OFFCURVE",
"436 350 OFFCURVE",
"320 350 CURVE SMOOTH",
"56 351 LINE",
"56 280 LINE"
);
}
);
width = 648;
}
);
leftMetricsKey = D;
rightKerningGroup = "0";
rightMetricsKey = O;
unicode = 0050;
},
{
glyphname = Q;
lastChange = "2019-05-02 13:33:26 +0000";
layers = (
{
layerId = "B5B6FC57-28DA-495E-8DF1-4E68D36FF5F4";
paths = (
{
closed = 1;
nodes = (
"572 -10 OFFCURVE",
"710 138 OFFCURVE",
"710 354 CURVE SMOOTH",
"710 570 OFFCURVE",
"571 710 OFFCURVE",
"373 710 CURVE SMOOTH",
"174 710 OFFCURVE",
"48 568 OFFCURVE",
"48 354 CURVE SMOOTH",
"48 136 OFFCURVE",
"175 -10 OFFCURVE",
"373 -10 CURVE SMOOTH"
);
},
{
closed = 1;
nodes = (
"223 60 OFFCURVE",
"128 180 OFFCURVE",
"128 354 CURVE SMOOTH",
"128 528 OFFCURVE",
"223 640 OFFCURVE",
"373 640 CURVE SMOOTH",
"524 640 OFFCURVE",
"630 529 OFFCURVE",
"630 354 CURVE SMOOTH",
"630 181 OFFCURVE",
"524 60 OFFCURVE",
"373 60 CURVE SMOOTH"
);
},
{
closed = 1;
nodes = (
"805 75 LINE",
"711 75 OFFCURVE",
"649 117 OFFCURVE",
"600 209 CURVE SMOOTH",
"544 312 OFFCURVE",
"480 340 OFFCURVE",
"360 340 CURVE",
"360 260 LINE",
"451 260 OFFCURVE",
"506 223 OFFCURVE",
"552 137 CURVE SMOOTH",
"607 32 OFFCURVE",
"679 -4 OFFCURVE",
"805 -5 CURVE"
);
}
);
width = 829;
},
{
layerId = "273DC1B6-0844-4B23-906D-30A1B3BA0B12";
paths = (
{
closed = 1;
nodes = (
"558 -10 OFFCURVE",
"692 138 OFFCURVE",
"692 354 CURVE SMOOTH",
"692 570 OFFCURVE",
"557 710 OFFCURVE",
"364 710 CURVE SMOOTH",
"170 710 OFFCURVE",
"48 568 OFFCURVE",
"48 354 CURVE SMOOTH",
"48 136 OFFCURVE",
"171 -10 OFFCURVE",
"364 -10 CURVE SMOOTH"
);
},
{
closed = 1;
nodes = (
"189 19 OFFCURVE",
"78 156 OFFCURVE",
"78 354 CURVE SMOOTH",
"78 553 OFFCURVE",
"190 681 OFFCURVE",
"364 681 CURVE SMOOTH",
"541 681 OFFCURVE",
"662 553 OFFCURVE",
"662 354 CURVE SMOOTH",
"662 156 OFFCURVE",
"540 19 OFFCURVE",
"364 19 CURVE SMOOTH"
);
},
{
closed = 1;
nodes = (
"796 26 LINE",
"683 26 OFFCURVE",
"640 52 OFFCURVE",
"578 165 CURVE SMOOTH",
"516 279 OFFCURVE",
"470 310 OFFCURVE",
"351 310 CURVE",
"351 280 LINE",
"459 280 OFFCURVE",
"502 251 OFFCURVE",
"557 143 CURVE SMOOTH",
"618 24 OFFCURVE",
"664 -3 OFFCURVE",
"796 -4 CURVE"
);
}
);
width = 820;
},
{
layerId = "0E084538-2240-41A5-9525-5B99B37478DA";
paths = (
{
closed = 1;
nodes = (
"613 -20 OFFCURVE",
"761 132 OFFCURVE",
"761 354 CURVE SMOOTH",
"761 576 OFFCURVE",
"611 720 OFFCURVE",
"398 720 CURVE SMOOTH",
"183 720 OFFCURVE",
"48 574 OFFCURVE",
"48 354 CURVE SMOOTH",
"48 130 OFFCURVE",
"185 -20 OFFCURVE",
"398 -20 CURVE SMOOTH"
);
},
{
closed = 1;
nodes = (
"280 134 OFFCURVE",
"208 225 OFFCURVE",
"208 354 CURVE SMOOTH",
"208 484 OFFCURVE",
"281 566 OFFCURVE",
"398 566 CURVE SMOOTH",
"517 566 OFFCURVE",
"601 485 OFFCURVE",
"601 354 CURVE SMOOTH",
"601 226 OFFCURVE",
"516 134 OFFCURVE",
"398 134 CURVE SMOOTH"
);
},
{
closed = 1;
nodes = (
"840 122 LINE",
"734 122 OFFCURVE",
"675 157 OFFCURVE",
"634 243 CURVE SMOOTH",
"586 344 OFFCURVE",
"508 385 OFFCURVE",
"360 385 CURVE",
"360 243 LINE",
"446 243 OFFCURVE",
"501 202 OFFCURVE",
"541 123 CURVE SMOOTH",
"596 14 OFFCURVE",
"679 -20 OFFCURVE",
"840 -20 CURVE"
);
}
);
width = 864;
},
{
associatedMasterId = "273DC1B6-0844-4B23-906D-30A1B3BA0B12";
layerId = "F7ECBC73-3A47-4B5E-8399-0D68297ADC4A";
width = 600;
},
{
associatedMasterId = "0E084538-2240-41A5-9525-5B99B37478DA";
layerId = "64AC96DB-1D5B-41C1-9263-2FA6A889D22F";
name = "Apr 29 19, 15:42";
paths = (
{
closed = 1;
nodes = (
"455 243 OFFCURVE",
"489 221 OFFCURVE",
"543 133 CURVE SMOOTH",
"618 11 OFFCURVE",
"680 -20 OFFCURVE",
"852 -20 CURVE",
"852 122 LINE",
"731 122 OFFCURVE",
"688 148 OFFCURVE",
"636 253 CURVE SMOOTH",
"583 359 OFFCURVE",
"530 385 OFFCURVE",
"372 385 CURVE",
"372 243 LINE"
);
},
{
closed = 0;
nodes = (
"386 192 LINE"
);
},
{
closed = 1;
nodes = (
"631 -20 OFFCURVE",
"777 130 OFFCURVE",
"777 354 CURVE SMOOTH",
"777 568 OFFCURVE",
"631 710 OFFCURVE",
"412 710 CURVE SMOOTH",
"201 710 OFFCURVE",
"60 568 OFFCURVE",
"60 354 CURVE SMOOTH",
"60 130 OFFCURVE",
"201 -20 OFFCURVE",
"412 -20 CURVE SMOOTH"
);
},
{
closed = 1;
nodes = (
"291 122 OFFCURVE",
"211 215 OFFCURVE",
"211 354 CURVE SMOOTH",
"211 482 OFFCURVE",
"291 568 OFFCURVE",
"412 568 CURVE SMOOTH",
"540 568 OFFCURVE",
"625 482 OFFCURVE",
"625 354 CURVE SMOOTH",
"625 215 OFFCURVE",
"540 122 OFFCURVE",
"412 122 CURVE SMOOTH"
);
}
);
width = 882;
},
{
associatedMasterId = "B5B6FC57-28DA-495E-8DF1-4E68D36FF5F4";
layerId = "941F559A-12FE-4D17-9FDF-38130902829F";
name = "Apr 29 19, 15:42";
paths = (
{
closed = 1;
nodes = (
"455 260 OFFCURVE",
"517 248 OFFCURVE",
"572 123 CURVE SMOOTH",
"626 0 OFFCURVE",
"704 -20 OFFCURVE",
"822 -21 CURVE",
"822 59 LINE",
"734 59 OFFCURVE",
"673 66 OFFCURVE",
"622 195 CURVE SMOOTH",
"579 304 OFFCURVE",
"489 340 OFFCURVE",
"377 340 CURVE",
"377 260 LINE"
);
},
{
closed = 0;
nodes = (
"381 227 LINE"
);
},
{
closed = 1;
nodes = (
"593 -20 OFFCURVE",
"728 130 OFFCURVE",
"728 354 CURVE SMOOTH",
"728 568 OFFCURVE",
"593 710 OFFCURVE",
"390 710 CURVE SMOOTH",
"194 710 OFFCURVE",
"64 568 OFFCURVE",
"64 354 CURVE SMOOTH",
"64 130 OFFCURVE",
"194 -20 OFFCURVE",
"390 -20 CURVE SMOOTH"
);
},
{
closed = 1;
nodes = (
"244 58 OFFCURVE",
"146 176 OFFCURVE",
"146 354 CURVE SMOOTH",
"146 521 OFFCURVE",
"244 632 OFFCURVE",
"390 632 CURVE SMOOTH",
"544 632 OFFCURVE",
"646 521 OFFCURVE",
"646 354 CURVE SMOOTH",
"646 176 OFFCURVE",
"544 58 OFFCURVE",
"390 58 CURVE SMOOTH"
);
}
);
width = 854;
},
{
associatedMasterId = "273DC1B6-0844-4B23-906D-30A1B3BA0B12";
layerId = "5F815481-1B1E-47D4-AF56-69E9DDF31639";
name = "Apr 29 19, 15:42";
paths = (
{
closed = 1;
nodes = (
"471 280 OFFCURVE",
"520 253 OFFCURVE",
"577 143 CURVE SMOOTH",
"642 18 OFFCURVE",
"712 -3 OFFCURVE",
"816 -4 CURVE",
"816 26 LINE",
"713 26 OFFCURVE",
"664 46 OFFCURVE",
"598 165 CURVE SMOOTH",
"536 277 OFFCURVE",
"483 310 OFFCURVE",
"371 310 CURVE",
"371 280 LINE"
);
},
{
closed = 0;
nodes = (
"375 247 LINE"
);
},
{
closed = 1;
nodes = (
"581 -6 OFFCURVE",
"712 138 OFFCURVE",
"712 354 CURVE SMOOTH",
"712 562 OFFCURVE",
"581 700 OFFCURVE",
"384 700 CURVE SMOOTH",
"194 700 OFFCURVE",
"68 562 OFFCURVE",
"68 354 CURVE SMOOTH",
"68 138 OFFCURVE",
"194 -6 OFFCURVE",
"384 -6 CURVE SMOOTH"
);
},
{
closed = 1;
nodes = (
"212 23 OFFCURVE",
"98 155 OFFCURVE",
"98 354 CURVE SMOOTH",
"98 544 OFFCURVE",
"212 671 OFFCURVE",
"384 671 CURVE SMOOTH",
"563 671 OFFCURVE",
"682 544 OFFCURVE",
"682 354 CURVE SMOOTH",
"682 155 OFFCURVE",
"563 23 OFFCURVE",
"384 23 CURVE SMOOTH"
);
}
);
width = 850;
},
{
associatedMasterId = "0E084538-2240-41A5-9525-5B99B37478DA";
layerId = "78F38148-FC1F-40DD-A422-A1AD87C4B530";
name = "Apr 29 19, 15:44";
paths = (
{
closed = 1;
nodes = (
"454 243 OFFCURVE",
"506 209 OFFCURVE",
"549 123 CURVE SMOOTH",
"601 21 OFFCURVE",
"687 -20 OFFCURVE",
"848 -20 CURVE",
"848 122 LINE",
"742 122 OFFCURVE",
"683 157 OFFCURVE",
"642 243 CURVE SMOOTH",
"594 344 OFFCURVE",
"516 385 OFFCURVE",
"368 385 CURVE",
"368 243 LINE"
);
},
{
closed = 0;
nodes = (
"382 192 LINE"
);
},
{
closed = 1;
nodes = (
"624 -20 OFFCURVE",
"769 130 OFFCURVE",
"769 354 CURVE SMOOTH",
"769 574 OFFCURVE",
"624 720 OFFCURVE",
"406 720 CURVE SMOOTH",
"196 720 OFFCURVE",
"56 574 OFFCURVE",
"56 354 CURVE SMOOTH",
"56 130 OFFCURVE",
"196 -20 OFFCURVE",
"406 -20 CURVE SMOOTH"
);
},
{
closed = 1;
nodes = (
"292 134 OFFCURVE",
"216 222 OFFCURVE",
"216 354 CURVE SMOOTH",
"216 481 OFFCURVE",
"292 566 OFFCURVE",
"406 566 CURVE SMOOTH",
"528 566 OFFCURVE",
"609 481 OFFCURVE",
"609 354 CURVE SMOOTH",
"609 222 OFFCURVE",
"528 134 OFFCURVE",
"406 134 CURVE SMOOTH"
);
}
);
width = 876;
},
{
associatedMasterId = "B5B6FC57-28DA-495E-8DF1-4E68D36FF5F4";
layerId = "18D5C1CD-8052-41D1-AB96-8F88074B545C";
name = "Apr 29 19, 15:47";
paths = (
{
closed = 1;
nodes = (
"449 260 OFFCURVE",
"526 211 OFFCURVE",
"558 137 CURVE SMOOTH",
"595 53 OFFCURVE",
"696 -4 OFFCURVE",
"812 -5 CURVE",
"812 75 LINE",
"725 75 OFFCURVE",
"644 129 OFFCURVE",
"608 209 CURVE SMOOTH",
"573 288 OFFCURVE",
"477 340 OFFCURVE",
"367 340 CURVE",
"367 260 LINE"
);
},
{
closed = 0;
nodes = (
"371 227 LINE"
);
},
{
closed = 1;
nodes = (
"583 -10 OFFCURVE",
"718 136 OFFCURVE",
"718 354 CURVE SMOOTH",
"718 568 OFFCURVE",
"583 710 OFFCURVE",
"380 710 CURVE SMOOTH",
"184 710 OFFCURVE",
"54 568 OFFCURVE",
"54 354 CURVE SMOOTH",
"54 136 OFFCURVE",
"184 -10 OFFCURVE",
"380 -10 CURVE SMOOTH"
);
},
{
closed = 1;
nodes = (
"234 68 OFFCURVE",
"136 182 OFFCURVE",
"136 354 CURVE SMOOTH",
"136 521 OFFCURVE",
"234 632 OFFCURVE",
"380 632 CURVE SMOOTH",
"534 632 OFFCURVE",
"636 521 OFFCURVE",
"636 354 CURVE SMOOTH",
"636 182 OFFCURVE",
"534 68 OFFCURVE",
"380 68 CURVE SMOOTH"
);
}
);
width = 839;
},
{
associatedMasterId = "273DC1B6-0844-4B23-906D-30A1B3BA0B12";
layerId = "0FBD94E0-6901-4095-8D9E-DF14B41E206F";
name = "Apr 29 19, 15:47";
paths = (
{
closed = 1;
nodes = (
"457 280 OFFCURVE",
"506 253 OFFCURVE",
"563 143 CURVE SMOOTH",
"628 18 OFFCURVE",
"698 -3 OFFCURVE",
"802 -4 CURVE",
"802 26 LINE",
"699 26 OFFCURVE",
"650 46 OFFCURVE",
"584 165 CURVE SMOOTH",
"522 277 OFFCURVE",
"469 310 OFFCURVE",
"357 310 CURVE",
"357 280 LINE"
);
},
{
closed = 0;
nodes = (
"361 247 LINE"
);
},
{
closed = 1;
nodes = (
"567 -10 OFFCURVE",
"698 136 OFFCURVE",
"698 354 CURVE SMOOTH",
"698 568 OFFCURVE",
"567 710 OFFCURVE",
"370 710 CURVE SMOOTH",
"180 710 OFFCURVE",
"54 568 OFFCURVE",
"54 354 CURVE SMOOTH",
"54 136 OFFCURVE",
"180 -10 OFFCURVE",
"370 -10 CURVE SMOOTH"
);
},
{
closed = 1;
nodes = (
"200 20 OFFCURVE",
"86 154 OFFCURVE",
"86 354 CURVE SMOOTH",
"86 550 OFFCURVE",
"200 680 OFFCURVE",
"370 680 CURVE SMOOTH",
"548 680 OFFCURVE",
"666 550 OFFCURVE",
"666 354 CURVE SMOOTH",
"666 154 OFFCURVE",
"548 20 OFFCURVE",
"370 20 CURVE SMOOTH"
);
}
);
width = 829;
},
{
associatedMasterId = "B5B6FC57-28DA-495E-8DF1-4E68D36FF5F4";
layerId = "11217DBB-AC36-4E69-829C-15CFDC4FECD5";
name = "Apr 30 19, 00:59";
paths = (
{
closed = 1;
nodes = (
"449 260 OFFCURVE",
"526 211 OFFCURVE",
"558 137 CURVE SMOOTH",
"595 53 OFFCURVE",
"696 -4 OFFCURVE",
"812 -5 CURVE",
"812 75 LINE",
"725 75 OFFCURVE",
"644 129 OFFCURVE",
"608 209 CURVE SMOOTH",
"573 288 OFFCURVE",
"477 340 OFFCURVE",
"367 340 CURVE",
"367 260 LINE"
);
},
{
closed = 0;
nodes = (
"371 227 LINE"
);
},
{
closed = 1;
nodes = (
"582 -10 OFFCURVE",
"717 136 OFFCURVE",
"717 354 CURVE SMOOTH",
"717 568 OFFCURVE",
"582 710 OFFCURVE",
"380 710 CURVE SMOOTH",
"185 710 OFFCURVE",
"55 568 OFFCURVE",
"55 354 CURVE SMOOTH",
"55 136 OFFCURVE",
"185 -10 OFFCURVE",
"380 -10 CURVE SMOOTH"
);
},
{
closed = 1;
nodes = (
"233 60 OFFCURVE",
"135 178 OFFCURVE",
"135 354 CURVE SMOOTH",
"135 526 OFFCURVE",
"233 640 OFFCURVE",
"380 640 CURVE SMOOTH",
"534 640 OFFCURVE",
"637 526 OFFCURVE",
"637 354 CURVE SMOOTH",
"637 178 OFFCURVE",
"534 60 OFFCURVE",
"380 60 CURVE SMOOTH"
);
}
);
width = 839;
},
{
associatedMasterId = "B5B6FC57-28DA-495E-8DF1-4E68D36FF5F4";
layerId = "F563943B-DE94-43C1-A95F-BBF0BD8B2FCA";
name = "Apr 30 19, 01:20";
paths = (
{
closed = 1;
nodes = (
"582 -10 OFFCURVE",
"717 136 OFFCURVE",
"717 354 CURVE SMOOTH",
"717 568 OFFCURVE",
"582 710 OFFCURVE",
"380 710 CURVE SMOOTH",
"185 710 OFFCURVE",
"55 568 OFFCURVE",
"55 354 CURVE SMOOTH",
"55 136 OFFCURVE",
"185 -10 OFFCURVE",
"380 -10 CURVE SMOOTH"
);
},
{
closed = 1;
nodes = (
"233 60 OFFCURVE",
"135 178 OFFCURVE",
"135 354 CURVE SMOOTH",
"135 526 OFFCURVE",
"233 640 OFFCURVE",
"380 640 CURVE SMOOTH",
"534 640 OFFCURVE",
"637 526 OFFCURVE",
"637 354 CURVE SMOOTH",
"637 178 OFFCURVE",
"534 60 OFFCURVE",
"380 60 CURVE SMOOTH"
);
},
{
closed = 1;
nodes = (
"812 75 LINE",
"718 75 OFFCURVE",
"666 99 OFFCURVE",
"607 209 CURVE SMOOTH",
"561 294 OFFCURVE",
"487 340 OFFCURVE",
"367 340 CURVE",
"367 260 LINE",
"458 260 OFFCURVE",
"507 235 OFFCURVE",
"559 137 CURVE SMOOTH",
"608 44 OFFCURVE",
"686 -4 OFFCURVE",
"812 -5 CURVE"
);
}
);
width = 839;
},
{
associatedMasterId = "0E084538-2240-41A5-9525-5B99B37478DA";
layerId = "C0B66F05-A575-4898-9450-7A3EFDBFE36E";
name = "May 2 19, 05:40";
paths = (
{
closed = 1;
nodes = (
"621 -20 OFFCURVE",
"769 132 OFFCURVE",
"769 354 CURVE SMOOTH",
"769 576 OFFCURVE",
"619 720 OFFCURVE",
"406 720 CURVE SMOOTH",
"191 720 OFFCURVE",
"56 574 OFFCURVE",
"56 354 CURVE SMOOTH",
"56 130 OFFCURVE",
"193 -20 OFFCURVE",
"406 -20 CURVE SMOOTH"
);
},
{
closed = 1;
nodes = (
"288 134 OFFCURVE",
"216 225 OFFCURVE",
"216 354 CURVE SMOOTH",
"216 484 OFFCURVE",
"289 566 OFFCURVE",
"406 566 CURVE SMOOTH",
"525 566 OFFCURVE",
"609 485 OFFCURVE",
"609 354 CURVE SMOOTH",
"609 226 OFFCURVE",
"524 134 OFFCURVE",
"406 134 CURVE SMOOTH"
);
},
{
closed = 1;
nodes = (
"848 122 LINE",
"742 122 OFFCURVE",
"683 157 OFFCURVE",
"642 243 CURVE SMOOTH",
"594 344 OFFCURVE",
"516 385 OFFCURVE",
"368 385 CURVE",
"368 243 LINE",
"454 243 OFFCURVE",
"509 202 OFFCURVE",
"549 123 CURVE SMOOTH",
"604 14 OFFCURVE",
"687 -20 OFFCURVE",
"848 -20 CURVE"
);
}
);
width = 876;
},
{
associatedMasterId = "B5B6FC57-28DA-495E-8DF1-4E68D36FF5F4";
layerId = "15499F04-4FE8-438E-9FBD-91B763600653";
name = "May 2 19, 05:40";
paths = (
{
closed = 1;
nodes = (
"572 -10 OFFCURVE",
"710 138 OFFCURVE",
"710 354 CURVE SMOOTH",
"710 570 OFFCURVE",
"571 710 OFFCURVE",
"373 710 CURVE SMOOTH",
"174 710 OFFCURVE",
"48 568 OFFCURVE",
"48 354 CURVE SMOOTH",
"48 136 OFFCURVE",
"175 -10 OFFCURVE",
"373 -10 CURVE SMOOTH"
);
},
{
closed = 1;
nodes = (
"223 60 OFFCURVE",
"128 180 OFFCURVE",
"128 354 CURVE SMOOTH",
"128 528 OFFCURVE",
"223 640 OFFCURVE",
"373 640 CURVE SMOOTH",
"524 640 OFFCURVE",
"630 529 OFFCURVE",
"630 354 CURVE SMOOTH",
"630 181 OFFCURVE",
"524 60 OFFCURVE",
"373 60 CURVE SMOOTH"
);
},
{
closed = 1;
nodes = (
"805 75 LINE",
"711 75 OFFCURVE",
"649 117 OFFCURVE",
"600 209 CURVE SMOOTH",
"544 312 OFFCURVE",
"480 340 OFFCURVE",
"360 340 CURVE",
"360 260 LINE",
"451 260 OFFCURVE",
"506 223 OFFCURVE",
"552 137 CURVE SMOOTH",
"607 32 OFFCURVE",
"679 -4 OFFCURVE",
"805 -5 CURVE"
);
}
);
width = 829;
},
{
associatedMasterId = "273DC1B6-0844-4B23-906D-30A1B3BA0B12";
layerId = "42BD19B5-F21E-4C8B-9E0A-51A4102DC7B5";
name = "May 2 19, 05:40";
paths = (
{
closed = 1;
nodes = (
"568 -10 OFFCURVE",
"702 138 OFFCURVE",
"702 354 CURVE SMOOTH",
"702 570 OFFCURVE",
"567 710 OFFCURVE",
"374 710 CURVE SMOOTH",
"180 710 OFFCURVE",
"58 568 OFFCURVE",
"58 354 CURVE SMOOTH",
"58 136 OFFCURVE",
"181 -10 OFFCURVE",
"374 -10 CURVE SMOOTH"
);
},
{
closed = 1;
nodes = (
"199 19 OFFCURVE",
"88 156 OFFCURVE",
"88 354 CURVE SMOOTH",
"88 553 OFFCURVE",
"200 681 OFFCURVE",
"374 681 CURVE SMOOTH",
"551 681 OFFCURVE",
"672 553 OFFCURVE",
"672 354 CURVE SMOOTH",
"672 156 OFFCURVE",
"550 19 OFFCURVE",
"374 19 CURVE SMOOTH"
);
},
{
closed = 1;
nodes = (
"806 26 LINE",
"693 26 OFFCURVE",
"650 52 OFFCURVE",
"588 165 CURVE SMOOTH",
"526 279 OFFCURVE",
"480 310 OFFCURVE",
"361 310 CURVE",
"361 280 LINE",
"469 280 OFFCURVE",
"512 251 OFFCURVE",
"567 143 CURVE SMOOTH",
"628 24 OFFCURVE",
"674 -3 OFFCURVE",
"806 -4 CURVE"
);
}
);
width = 835;
}
);
leftMetricsKey = O;
rightMetricsKey = "=O/2";
unicode = 0051;
},
{
glyphname = R;
lastChange = "2019-05-02 13:37:19 +0000";
layers = (
{
layerId = "B5B6FC57-28DA-495E-8DF1-4E68D36FF5F4";
paths = (
{
closed = 1;
nodes = (
"128 0 LINE",
"128 280 LINE",
"302 279 LINE SMOOTH",
"405 278 OFFCURVE",
"457 252 OFFCURVE",
"475 224 CURVE SMOOTH",
"509 171 OFFCURVE",
"482 11 OFFCURVE",
"514 0 CURVE",
"596 0 LINE",
"560 14 OFFCURVE",
"588 195 OFFCURVE",
"544 264 CURVE SMOOTH",
"526 292 OFFCURVE",
"484 320 OFFCURVE",
"448 320 CURVE",
"525 342 OFFCURVE",
"576 398 OFFCURVE",
"576 488 CURVE SMOOTH",
"576 612 OFFCURVE",
"478 702 OFFCURVE",
"312 701 CURVE SMOOTH",
"48 700 LINE",
"48 0 LINE"
);
},
{
closed = 1;
nodes = (
"128 630 LINE",
"312 631 LINE SMOOTH",
"428 632 OFFCURVE",
"496 572 OFFCURVE",
"496 488 CURVE SMOOTH",
"496 397 OFFCURVE",
"418 348 OFFCURVE",
"302 349 CURVE SMOOTH",
"128 350 LINE"
);
}
);
width = 628;
},
{
layerId = "273DC1B6-0844-4B23-906D-30A1B3BA0B12";
paths = (
{
closed = 1;
nodes = (
"78 0 LINE",
"78 299 LINE",
"319 299 LINE SMOOTH",
"408 299 OFFCURVE",
"471 278 OFFCURVE",
"497 241 CURVE SMOOTH",
"542 175 OFFCURVE",
"505 11 OFFCURVE",
"537 0 CURVE",
"573 0 LINE",
"533 13 OFFCURVE",
"577 175 OFFCURVE",
"525 253 CURVE SMOOTH",
"500 290 OFFCURVE",
"449 316 OFFCURVE",
"409 318 CURVE",
"494 329 OFFCURVE",
"556 398 OFFCURVE",
"556 499 CURVE SMOOTH",
"556 624 OFFCURVE",
"462 702 OFFCURVE",
"302 701 CURVE SMOOTH",
"48 700 LINE",
"48 0 LINE"
);
},
{
closed = 1;
nodes = (
"78 671 LINE",
"302 672 LINE SMOOTH",
"443 673 OFFCURVE",
"526 610 OFFCURVE",
"526 499 CURVE SMOOTH",
"526 393 OFFCURVE",
"449 329 OFFCURVE",
"319 329 CURVE SMOOTH",
"78 329 LINE"
);
}
);
width = 605;
},
{
layerId = "0E084538-2240-41A5-9525-5B99B37478DA";
paths = (
{
closed = 1;
nodes = (
"208 0 LINE",
"208 238 LINE",
"322 238 LINE SMOOTH",
"405 238 OFFCURVE",
"442 217 OFFCURVE",
"455 196 CURVE SMOOTH",
"484 150 OFFCURVE",
"451 32 OFFCURVE",
"501 0 CURVE",
"664 0 LINE",
"611 41 OFFCURVE",
"640 203 OFFCURVE",
"602 263 CURVE SMOOTH",
"586 289 OFFCURVE",
"545 316 OFFCURVE",
"510 316 CURVE",
"583 324 OFFCURVE",
"631 383 OFFCURVE",
"631 472 CURVE SMOOTH",
"631 608 OFFCURVE",
"519 702 OFFCURVE",
"352 701 CURVE SMOOTH",
"48 700 LINE",
"48 0 LINE"
);
},
{
closed = 1;
nodes = (
"208 560 LINE",
"352 561 LINE SMOOTH",
"423 561 OFFCURVE",
"471 527 OFFCURVE",
"471 472 CURVE SMOOTH",
"471 416 OFFCURVE",
"421 377 OFFCURVE",
"322 378 CURVE SMOOTH",
"208 379 LINE"
);
}
);
width = 696;
},
{
associatedMasterId = "273DC1B6-0844-4B23-906D-30A1B3BA0B12";
layerId = "F7ECBC73-3A47-4B5E-8399-0D68297ADC4A";
width = 600;
},
{
associatedMasterId = "273DC1B6-0844-4B23-906D-30A1B3BA0B12";
layerId = "ADBF0500-43F0-4EC1-8760-A5A52C2F55C5";
name = "Apr 29 19, 15:31";
paths = (
{
closed = 1;
nodes = (
"110 0 LINE",
"110 302 LINE",
"324 302 LINE SMOOTH",
"422 302 OFFCURVE",
"480 291 OFFCURVE",
"514 241 CURVE SMOOTH",
"558 176 OFFCURVE",
"526 11 OFFCURVE",
"558 0 CURVE",
"593 0 LINE",
"553 13 OFFCURVE",
"590 175 OFFCURVE",
"541 253 CURVE SMOOTH",
"510 302 OFFCURVE",
"471 318 OFFCURVE",
"409 318 CURVE",
"504 331 OFFCURVE",
"568 403 OFFCURVE",
"568 499 CURVE SMOOTH",
"568 621 OFFCURVE",
"466 702 OFFCURVE",
"314 701 CURVE SMOOTH",
"80 700 LINE",
"80 0 LINE"
);
},
{
closed = 1;
nodes = (
"110 671 LINE",
"314 672 LINE SMOOTH",
"448 673 OFFCURVE",
"538 604 OFFCURVE",
"538 499 CURVE SMOOTH",
"538 397 OFFCURVE",
"458 329 OFFCURVE",
"338 330 CURVE SMOOTH",
"110 331 LINE"
);
}
);
width = 638;
},
{
associatedMasterId = "B5B6FC57-28DA-495E-8DF1-4E68D36FF5F4";
layerId = "B4D0EC06-3ADF-4F57-A5B7-2B50FB3A5803";
name = "Apr 29 19, 15:31";
paths = (
{
closed = 1;
nodes = (
"156 0 LINE",
"156 278 LINE",
"320 278 LINE SMOOTH",
"410 278 OFFCURVE",
"453 272 OFFCURVE",
"484 224 CURVE SMOOTH",
"510 183 OFFCURVE",
"492 11 OFFCURVE",
"524 0 CURVE",
"619 0 LINE",
"583 14 OFFCURVE",
"600 201 OFFCURVE",
"567 253 CURVE SMOOTH",
"531 309 OFFCURVE",
"483 316 OFFCURVE",
"456 316 CURVE",
"546 342 OFFCURVE",
"604 411 OFFCURVE",
"604 499 CURVE SMOOTH",
"604 629 OFFCURVE",
"509 702 OFFCURVE",
"340 701 CURVE SMOOTH",
"76 700 LINE",
"76 0 LINE"
);
},
{
closed = 1;
nodes = (
"156 624 LINE",
"340 625 LINE SMOOTH",
"458 626 OFFCURVE",
"524 581 OFFCURVE",
"524 499 CURVE SMOOTH",
"524 406 OFFCURVE",
"458 354 OFFCURVE",
"340 355 CURVE SMOOTH",
"156 356 LINE"
);
}
);
width = 664;
},
{
associatedMasterId = "0E084538-2240-41A5-9525-5B99B37478DA";
layerId = "FDC92B1D-39B2-4637-85B1-1CA2D2AED3D6";
name = "Apr 29 19, 15:31";
paths = (
{
closed = 1;
nodes = (
"226 0 LINE",
"226 237 LINE",
"220 237 LINE SMOOTH",
"399 237 OFFCURVE",
"445 241 OFFCURVE",
"473 196 CURVE SMOOTH",
"495 161 OFFCURVE",
"464 32 OFFCURVE",
"524 0 CURVE",
"687 0 LINE",
"624 41 OFFCURVE",
"642 218 OFFCURVE",
"613 263 CURVE SMOOTH",
"590 298 OFFCURVE",
"547 316 OFFCURVE",
"488 316 CURVE",
"586 335 OFFCURVE",
"652 400 OFFCURVE",
"652 478 CURVE SMOOTH",
"652 613 OFFCURVE",
"539 702 OFFCURVE",
"370 701 CURVE SMOOTH",
"64 700 LINE",
"64 0 LINE"
);
},
{
closed = 1;
nodes = (
"226 564 LINE",
"370 565 LINE SMOOTH",
"441 565 OFFCURVE",
"489 530 OFFCURVE",
"489 478 CURVE SMOOTH",
"489 417 OFFCURVE",
"439 377 OFFCURVE",
"364 378 CURVE SMOOTH",
"226 379 LINE"
);
}
);
width = 715;
},
{
associatedMasterId = "0E084538-2240-41A5-9525-5B99B37478DA";
layerId = "18FFA1F3-108C-40A3-8637-97D64E66A919";
name = "Apr 29 19, 15:37";
paths = (
{
closed = 1;
nodes = (
"226 0 LINE",
"226 237 LINE",
"220 237 LINE SMOOTH",
"405 237 OFFCURVE",
"455 229 OFFCURVE",
"473 196 CURVE SMOOTH",
"495 161 OFFCURVE",
"469 32 OFFCURVE",
"529 0 CURVE",
"692 0 LINE",
"629 41 OFFCURVE",
"642 218 OFFCURVE",
"613 263 CURVE SMOOTH",
"585 305 OFFCURVE",
"560 316 OFFCURVE",
"488 316 CURVE",
"585 327 OFFCURVE",
"649 390 OFFCURVE",
"649 469 CURVE SMOOTH",
"649 611 OFFCURVE",
"537 702 OFFCURVE",
"370 701 CURVE SMOOTH",
"64 700 LINE",
"64 0 LINE"
);
},
{
closed = 1;
nodes = (
"226 560 LINE",
"370 561 LINE SMOOTH",
"441 561 OFFCURVE",
"489 526 OFFCURVE",
"489 469 CURVE SMOOTH",
"489 415 OFFCURVE",
"439 377 OFFCURVE",
"364 378 CURVE SMOOTH",
"226 379 LINE"
);
}
);
width = 715;
},
{
associatedMasterId = "273DC1B6-0844-4B23-906D-30A1B3BA0B12";
layerId = "9FBE6265-24F1-423E-B722-28E8920621D6";
name = "Apr 29 19, 15:38";
paths = (
{
closed = 1;
nodes = (
"110 0 LINE",
"110 300 LINE",
"324 300 LINE SMOOTH",
"422 300 OFFCURVE",
"475 291 OFFCURVE",
"509 241 CURVE SMOOTH",
"553 176 OFFCURVE",
"516 11 OFFCURVE",
"548 0 CURVE",
"583 0 LINE",
"543 13 OFFCURVE",
"587 177 OFFCURVE",
"536 253 CURVE SMOOTH",
"504 301 OFFCURVE",
"471 318 OFFCURVE",
"409 318 CURVE",
"504 331 OFFCURVE",
"568 403 OFFCURVE",
"568 499 CURVE SMOOTH",
"568 621 OFFCURVE",
"466 702 OFFCURVE",
"314 701 CURVE SMOOTH",
"80 700 LINE",
"80 0 LINE"
);
},
{
closed = 1;
nodes = (
"110 671 LINE",
"314 672 LINE SMOOTH",
"448 673 OFFCURVE",
"538 604 OFFCURVE",
"538 499 CURVE SMOOTH",
"538 397 OFFCURVE",
"458 328 OFFCURVE",
"338 329 CURVE SMOOTH",
"110 330 LINE"
);
}
);
width = 638;
},
{
associatedMasterId = "273DC1B6-0844-4B23-906D-30A1B3BA0B12";
layerId = "16AC8DB4-D69C-43A2-8F77-731AB120637B";
name = "Apr 29 19, 15:38";
paths = (
{
closed = 1;
nodes = (
"110 0 LINE",
"110 300 LINE",
"324 300 LINE SMOOTH",
"422 300 OFFCURVE",
"475 291 OFFCURVE",
"509 241 CURVE SMOOTH",
"553 176 OFFCURVE",
"516 11 OFFCURVE",
"548 0 CURVE",
"583 0 LINE",
"543 13 OFFCURVE",
"587 177 OFFCURVE",
"536 253 CURVE SMOOTH",
"504 301 OFFCURVE",
"471 318 OFFCURVE",
"409 318 CURVE",
"504 331 OFFCURVE",
"568 403 OFFCURVE",
"568 499 CURVE SMOOTH",
"568 621 OFFCURVE",
"466 702 OFFCURVE",
"314 701 CURVE SMOOTH",
"80 700 LINE",
"80 0 LINE"
);
},
{
closed = 1;
nodes = (
"110 671 LINE",
"314 672 LINE SMOOTH",
"448 673 OFFCURVE",
"538 604 OFFCURVE",
"538 499 CURVE SMOOTH",
"538 397 OFFCURVE",
"458 328 OFFCURVE",
"338 329 CURVE SMOOTH",
"110 330 LINE"
);
}
);
width = 638;
},
{
associatedMasterId = "B5B6FC57-28DA-495E-8DF1-4E68D36FF5F4";
layerId = "C93A5981-877B-422F-84DC-AC48BAA50FAA";
name = "Apr 29 19, 15:38";
paths = (
{
closed = 1;
nodes = (
"156 0 LINE",
"156 277 LINE",
"320 277 LINE SMOOTH",
"410 277 OFFCURVE",
"453 272 OFFCURVE",
"484 224 CURVE SMOOTH",
"510 183 OFFCURVE",
"492 11 OFFCURVE",
"524 0 CURVE",
"619 0 LINE",
"583 14 OFFCURVE",
"600 201 OFFCURVE",
"567 253 CURVE SMOOTH",
"531 309 OFFCURVE",
"483 316 OFFCURVE",
"456 316 CURVE",
"546 342 OFFCURVE",
"604 411 OFFCURVE",
"604 499 CURVE SMOOTH",
"604 629 OFFCURVE",
"509 702 OFFCURVE",
"340 701 CURVE SMOOTH",
"76 700 LINE",
"76 0 LINE"
);
},
{
closed = 1;
nodes = (
"156 624 LINE",
"340 625 LINE SMOOTH",
"458 626 OFFCURVE",
"524 581 OFFCURVE",
"524 499 CURVE SMOOTH",
"524 406 OFFCURVE",
"458 354 OFFCURVE",
"340 355 CURVE SMOOTH",
"156 356 LINE"
);
}
);
width = 664;
},
{
associatedMasterId = "0E084538-2240-41A5-9525-5B99B37478DA";
layerId = "8A900BAD-A515-4F4A-BF97-D1E4B97C0776";
name = "Apr 29 19, 15:38";
paths = (
{
closed = 1;
nodes = (
"226 0 LINE",
"226 237 LINE",
"220 237 LINE SMOOTH",
"405 237 OFFCURVE",
"455 229 OFFCURVE",
"473 196 CURVE SMOOTH",
"495 161 OFFCURVE",
"469 32 OFFCURVE",
"529 0 CURVE",
"692 0 LINE",
"629 41 OFFCURVE",
"642 218 OFFCURVE",
"613 263 CURVE SMOOTH",
"585 305 OFFCURVE",
"560 316 OFFCURVE",
"488 316 CURVE",
"585 327 OFFCURVE",
"649 390 OFFCURVE",
"649 469 CURVE SMOOTH",
"649 611 OFFCURVE",
"537 702 OFFCURVE",
"370 701 CURVE SMOOTH",
"64 700 LINE",
"64 0 LINE"
);
},
{
closed = 1;
nodes = (
"226 560 LINE",
"370 561 LINE SMOOTH",
"441 561 OFFCURVE",
"489 526 OFFCURVE",
"489 469 CURVE SMOOTH",
"489 415 OFFCURVE",
"439 377 OFFCURVE",
"364 378 CURVE SMOOTH",
"226 379 LINE"
);
}
);
width = 715;
},
{
associatedMasterId = "0E084538-2240-41A5-9525-5B99B37478DA";
layerId = "FA25A692-A34A-4A56-B1F6-77BEF694C1F1";
name = "Apr 29 19, 15:39";
paths = (
{
closed = 1;
nodes = (
"226 0 LINE",
"226 237 LINE",
"220 237 LINE SMOOTH",
"405 237 OFFCURVE",
"455 229 OFFCURVE",
"473 196 CURVE SMOOTH",
"495 161 OFFCURVE",
"479 32 OFFCURVE",
"539 0 CURVE",
"702 0 LINE",
"639 41 OFFCURVE",
"642 218 OFFCURVE",
"613 263 CURVE SMOOTH",
"585 305 OFFCURVE",
"560 316 OFFCURVE",
"488 316 CURVE",
"585 327 OFFCURVE",
"649 390 OFFCURVE",
"649 469 CURVE SMOOTH",
"649 611 OFFCURVE",
"537 702 OFFCURVE",
"370 701 CURVE SMOOTH",
"64 700 LINE",
"64 0 LINE"
);
},
{
closed = 1;
nodes = (
"226 560 LINE",
"370 561 LINE SMOOTH",
"441 561 OFFCURVE",
"489 526 OFFCURVE",
"489 469 CURVE SMOOTH",
"489 415 OFFCURVE",
"439 377 OFFCURVE",
"364 378 CURVE SMOOTH",
"226 379 LINE"
);
}
);
width = 715;
},
{
associatedMasterId = "0E084538-2240-41A5-9525-5B99B37478DA";
layerId = "CDD2B365-D118-44E7-B306-AA3BA47DC8BB";
name = "Apr 29 19, 15:41";
paths = (
{
closed = 1;
nodes = (
"226 0 LINE",
"226 237 LINE",
"220 237 LINE SMOOTH",
"405 237 OFFCURVE",
"455 229 OFFCURVE",
"473 196 CURVE SMOOTH",
"495 161 OFFCURVE",
"479 32 OFFCURVE",
"539 0 CURVE",
"702 0 LINE",
"639 41 OFFCURVE",
"642 218 OFFCURVE",
"613 263 CURVE SMOOTH",
"585 305 OFFCURVE",
"560 316 OFFCURVE",
"488 316 CURVE",
"585 327 OFFCURVE",
"649 390 OFFCURVE",
"649 469 CURVE SMOOTH",
"649 611 OFFCURVE",
"537 702 OFFCURVE",
"370 701 CURVE SMOOTH",
"64 700 LINE",
"64 0 LINE"
);
},
{
closed = 1;
nodes = (
"226 560 LINE",
"370 561 LINE SMOOTH",
"441 561 OFFCURVE",
"489 526 OFFCURVE",
"489 469 CURVE SMOOTH",
"489 415 OFFCURVE",
"439 377 OFFCURVE",
"364 378 CURVE SMOOTH",
"226 379 LINE"
);
}
);
width = 715;
},
{
associatedMasterId = "B5B6FC57-28DA-495E-8DF1-4E68D36FF5F4";
layerId = "BBBC5403-E9DA-4000-A545-AD83C71F8E14";
name = "Apr 30 19, 00:53";
paths = (
{
closed = 1;
nodes = (
"136 0 LINE",
"136 280 LINE",
"300 280 LINE SMOOTH",
"390 280 OFFCURVE",
"442 272 OFFCURVE",
"473 224 CURVE SMOOTH",
"499 183 OFFCURVE",
"480 11 OFFCURVE",
"512 0 CURVE",
"592 0 LINE",
"556 14 OFFCURVE",
"580 201 OFFCURVE",
"547 253 CURVE SMOOTH",
"511 309 OFFCURVE",
"463 316 OFFCURVE",
"436 316 CURVE",
"526 342 OFFCURVE",
"584 411 OFFCURVE",
"584 499 CURVE SMOOTH",
"584 629 OFFCURVE",
"489 702 OFFCURVE",
"320 701 CURVE SMOOTH",
"56 700 LINE",
"56 0 LINE"
);
},
{
closed = 1;
nodes = (
"136 630 LINE",
"320 631 LINE SMOOTH",
"438 632 OFFCURVE",
"504 581 OFFCURVE",
"504 499 CURVE SMOOTH",
"504 406 OFFCURVE",
"438 349 OFFCURVE",
"320 350 CURVE SMOOTH",
"136 351 LINE"
);
}
);
width = 644;
},
{
associatedMasterId = "B5B6FC57-28DA-495E-8DF1-4E68D36FF5F4";
layerId = "2D8E1906-5184-4394-B953-06B16C1C2EC7";
name = "Apr 30 19, 00:54";
paths = (
{
closed = 1;
nodes = (
"136 0 LINE",
"136 280 LINE",
"300 280 LINE SMOOTH",
"382 280 OFFCURVE",
"457 258 OFFCURVE",
"479 224 CURVE SMOOTH",
"505 183 OFFCURVE",
"480 11 OFFCURVE",
"512 0 CURVE",
"594 0 LINE",
"558 14 OFFCURVE",
"588 201 OFFCURVE",
"548 264 CURVE SMOOTH",
"531 291 OFFCURVE",
"487 316 OFFCURVE",
"456 316 CURVE",
"533 338 OFFCURVE",
"584 411 OFFCURVE",
"584 499 CURVE SMOOTH",
"584 629 OFFCURVE",
"489 702 OFFCURVE",
"320 701 CURVE SMOOTH",
"56 700 LINE",
"56 0 LINE"
);
},
{
closed = 1;
nodes = (
"136 630 LINE",
"320 631 LINE SMOOTH",
"438 632 OFFCURVE",
"504 581 OFFCURVE",
"504 499 CURVE SMOOTH",
"504 409 OFFCURVE",
"430 349 OFFCURVE",
"320 350 CURVE SMOOTH",
"136 351 LINE"
);
}
);
width = 644;
},
{
associatedMasterId = "B5B6FC57-28DA-495E-8DF1-4E68D36FF5F4";
layerId = "28520E69-B0A7-42AB-8A34-4A72ADFA9213";
name = "Apr 30 19, 01:20";
paths = (
{
closed = 1;
nodes = (
"136 0 LINE",
"136 280 LINE",
"300 280 LINE SMOOTH",
"386 280 OFFCURVE",
"461 258 OFFCURVE",
"483 224 CURVE SMOOTH",
"509 183 OFFCURVE",
"490 11 OFFCURVE",
"522 0 CURVE",
"604 0 LINE",
"568 14 OFFCURVE",
"592 201 OFFCURVE",
"552 264 CURVE SMOOTH",
"530 298 OFFCURVE",
"492 320 OFFCURVE",
"456 320 CURVE",
"536 343 OFFCURVE",
"584 406 OFFCURVE",
"584 488 CURVE SMOOTH",
"584 623 OFFCURVE",
"486 702 OFFCURVE",
"320 701 CURVE SMOOTH",
"56 700 LINE",
"56 0 LINE"
);
},
{
closed = 1;
nodes = (
"136 630 LINE",
"320 631 LINE SMOOTH",
"436 632 OFFCURVE",
"504 579 OFFCURVE",
"504 488 CURVE SMOOTH",
"504 400 OFFCURVE",
"436 348 OFFCURVE",
"320 349 CURVE SMOOTH",
"136 350 LINE"
);
}
);
width = 644;
},
{
associatedMasterId = "B5B6FC57-28DA-495E-8DF1-4E68D36FF5F4";
layerId = "8DA85B5D-7621-4032-9548-226A673FEBAB";
name = "Apr 30 19, 16:21";
paths = (
{
closed = 1;
nodes = (
"134 0 LINE",
"134 280 LINE",
"308 279 LINE SMOOTH",
"384 278 OFFCURVE",
"459 258 OFFCURVE",
"481 224 CURVE SMOOTH",
"507 183 OFFCURVE",
"488 11 OFFCURVE",
"520 0 CURVE",
"602 0 LINE",
"566 14 OFFCURVE",
"590 201 OFFCURVE",
"550 264 CURVE SMOOTH",
"528 298 OFFCURVE",
"490 320 OFFCURVE",
"454 320 CURVE",
"531 342 OFFCURVE",
"582 409 OFFCURVE",
"582 488 CURVE SMOOTH",
"582 623 OFFCURVE",
"484 702 OFFCURVE",
"318 701 CURVE SMOOTH",
"54 700 LINE",
"54 0 LINE"
);
},
{
closed = 1;
nodes = (
"134 630 LINE",
"318 631 LINE SMOOTH",
"434 632 OFFCURVE",
"502 579 OFFCURVE",
"502 488 CURVE SMOOTH",
"502 404 OFFCURVE",
"424 348 OFFCURVE",
"308 349 CURVE SMOOTH",
"134 350 LINE"
);
}
);
width = 642;
},
{
associatedMasterId = "0E084538-2240-41A5-9525-5B99B37478DA";
layerId = "85A0FAC8-53EA-47C2-80FE-8CB28C899631";
name = "Apr 30 19, 16:25";
paths = (
{
closed = 1;
nodes = (
"216 0 LINE",
"216 238 LINE",
"330 238 LINE SMOOTH",
"430 238 OFFCURVE",
"445 229 OFFCURVE",
"463 196 CURVE SMOOTH",
"485 161 OFFCURVE",
"459 32 OFFCURVE",
"509 0 CURVE",
"672 0 LINE",
"619 41 OFFCURVE",
"632 218 OFFCURVE",
"603 263 CURVE SMOOTH",
"582 295 OFFCURVE",
"560 316 OFFCURVE",
"518 316 CURVE",
"591 324 OFFCURVE",
"639 386 OFFCURVE",
"639 472 CURVE SMOOTH",
"639 611 OFFCURVE",
"527 702 OFFCURVE",
"360 701 CURVE SMOOTH",
"56 700 LINE",
"56 0 LINE"
);
},
{
closed = 1;
nodes = (
"216 560 LINE",
"360 561 LINE SMOOTH",
"431 561 OFFCURVE",
"479 526 OFFCURVE",
"479 472 CURVE SMOOTH",
"479 415 OFFCURVE",
"429 377 OFFCURVE",
"330 378 CURVE SMOOTH",
"216 379 LINE"
);
}
);
width = 705;
},
{
associatedMasterId = "B5B6FC57-28DA-495E-8DF1-4E68D36FF5F4";
layerId = "718D60A0-4F4D-465C-9713-8F303AEC9A0A";
name = "May 2 19, 05:42";
paths = (
{
closed = 1;
nodes = (
"134 0 LINE",
"134 280 LINE",
"308 279 LINE SMOOTH",
"411 278 OFFCURVE",
"463 252 OFFCURVE",
"481 224 CURVE SMOOTH",
"515 171 OFFCURVE",
"488 11 OFFCURVE",
"520 0 CURVE",
"602 0 LINE",
"566 14 OFFCURVE",
"594 195 OFFCURVE",
"550 264 CURVE SMOOTH",
"532 292 OFFCURVE",
"490 320 OFFCURVE",
"454 320 CURVE",
"531 342 OFFCURVE",
"582 398 OFFCURVE",
"582 488 CURVE SMOOTH",
"582 612 OFFCURVE",
"484 702 OFFCURVE",
"318 701 CURVE SMOOTH",
"54 700 LINE",
"54 0 LINE"
);
},
{
closed = 1;
nodes = (
"134 630 LINE",
"318 631 LINE SMOOTH",
"434 632 OFFCURVE",
"502 572 OFFCURVE",
"502 488 CURVE SMOOTH",
"502 397 OFFCURVE",
"424 348 OFFCURVE",
"308 349 CURVE SMOOTH",
"134 350 LINE"
);
}
);
width = 642;
},
{
associatedMasterId = "0E084538-2240-41A5-9525-5B99B37478DA";
layerId = "41DC8693-A261-4202-93C1-25907FF6190A";
name = "May 2 19, 05:42";
paths = (
{
closed = 1;
nodes = (
"216 0 LINE",
"216 238 LINE",
"330 238 LINE SMOOTH",
"413 238 OFFCURVE",
"450 217 OFFCURVE",
"463 196 CURVE SMOOTH",
"492 150 OFFCURVE",
"459 32 OFFCURVE",
"509 0 CURVE",
"672 0 LINE",
"619 41 OFFCURVE",
"648 203 OFFCURVE",
"610 263 CURVE SMOOTH",
"594 289 OFFCURVE",
"553 316 OFFCURVE",
"518 316 CURVE",
"591 324 OFFCURVE",
"639 383 OFFCURVE",
"639 472 CURVE SMOOTH",
"639 608 OFFCURVE",
"527 702 OFFCURVE",
"360 701 CURVE SMOOTH",
"56 700 LINE",
"56 0 LINE"
);
},
{
closed = 1;
nodes = (
"216 560 LINE",
"360 561 LINE SMOOTH",
"431 561 OFFCURVE",
"479 527 OFFCURVE",
"479 472 CURVE SMOOTH",
"479 416 OFFCURVE",
"429 377 OFFCURVE",
"330 378 CURVE SMOOTH",
"216 379 LINE"
);
}
);
width = 714;
},
{
associatedMasterId = "273DC1B6-0844-4B23-906D-30A1B3BA0B12";
layerId = "82039FDD-FFB5-4464-8345-3625FFEA4583";
name = "May 2 19, 05:42";
paths = (
{
closed = 1;
nodes = (
"90 0 LINE",
"90 299 LINE",
"311 299 LINE SMOOTH",
"400 299 OFFCURVE",
"463 279 OFFCURVE",
"489 241 CURVE SMOOTH",
"533 175 OFFCURVE",
"497 11 OFFCURVE",
"529 0 CURVE",
"565 0 LINE",
"525 13 OFFCURVE",
"569 175 OFFCURVE",
"517 253 CURVE SMOOTH",
"492 290 OFFCURVE",
"441 316 OFFCURVE",
"401 318 CURVE",
"486 329 OFFCURVE",
"548 398 OFFCURVE",
"548 499 CURVE SMOOTH",
"548 624 OFFCURVE",
"454 702 OFFCURVE",
"294 701 CURVE SMOOTH",
"60 700 LINE",
"60 0 LINE"
);
},
{
closed = 1;
nodes = (
"90 671 LINE",
"294 672 LINE SMOOTH",
"435 673 OFFCURVE",
"518 610 OFFCURVE",
"518 499 CURVE SMOOTH",
"518 393 OFFCURVE",
"441 329 OFFCURVE",
"311 329 CURVE SMOOTH",
"90 329 LINE"
);
}
);
width = 618;
}
);
leftMetricsKey = D;
unicode = 0052;
},
{
glyphname = S;
lastChange = "2019-05-02 13:36:59 +0000";
layers = (
{
layerId = "B5B6FC57-28DA-495E-8DF1-4E68D36FF5F4";
paths = (
{
closed = 1;
nodes = (
"49 61 OFFCURVE",
"159 -10 OFFCURVE",
"302 -10 CURVE SMOOTH",
"462 -10 OFFCURVE",
"571 78 OFFCURVE",
"571 194 CURVE SMOOTH",
"571 292 OFFCURVE",
"494 345 OFFCURVE",
"301 400 CURVE SMOOTH",
"178 434 OFFCURVE",
"129 471 OFFCURVE",
"129 529 CURVE SMOOTH",
"129 597 OFFCURVE",
"210 640 OFFCURVE",
"302 640 CURVE SMOOTH",
"400 640 OFFCURVE",
"456 591 OFFCURVE",
"472 517 CURVE",
"548 542 LINE",
"533 643 OFFCURVE",
"445 710 OFFCURVE",
"302 710 CURVE SMOOTH",
"160 710 OFFCURVE",
"49 643 OFFCURVE",
"49 529 CURVE SMOOTH",
"49 432 OFFCURVE",
"121 366 OFFCURVE",
"302 317 CURVE SMOOTH",
"437 280 OFFCURVE",
"491 254 OFFCURVE",
"491 194 CURVE SMOOTH",
"491 123 OFFCURVE",
"409 60 OFFCURVE",
"302 60 CURVE SMOOTH",
"200 60 OFFCURVE",
"123 117 OFFCURVE",
"95 203 CURVE",
"24 168 LINE"
);
}
);
width = 595;
},
{
layerId = "273DC1B6-0844-4B23-906D-30A1B3BA0B12";
paths = (
{
closed = 1;
nodes = (
"47 57 OFFCURVE",
"145 -10 OFFCURVE",
"302 -10 CURVE SMOOTH",
"451 -10 OFFCURVE",
"572 50 OFFCURVE",
"572 171 CURVE SMOOTH",
"572 257 OFFCURVE",
"518 308 OFFCURVE",
"301 367 CURVE SMOOTH",
"123 417 OFFCURVE",
"79 458 OFFCURVE",
"79 529 CURVE SMOOTH",
"79 629 OFFCURVE",
"179 681 OFFCURVE",
"302 681 CURVE SMOOTH",
"435 681 OFFCURVE",
"511 621 OFFCURVE",
"519 532 CURVE",
"548 542 LINE",
"535 643 OFFCURVE",
"450 710 OFFCURVE",
"302 710 CURVE SMOOTH",
"164 710 OFFCURVE",
"50 651 OFFCURVE",
"50 529 CURVE SMOOTH",
"50 443 OFFCURVE",
"100 392 OFFCURVE",
"302 337 CURVE SMOOTH",
"494 284 OFFCURVE",
"542 242 OFFCURVE",
"542 171 CURVE SMOOTH",
"542 71 OFFCURVE",
"434 19 OFFCURVE",
"302 19 CURVE SMOOTH",
"156 19 OFFCURVE",
"67 82 OFFCURVE",
"50 176 CURVE",
"24 158 LINE"
);
}
);
width = 596;
},
{
layerId = "0E084538-2240-41A5-9525-5B99B37478DA";
paths = (
{
closed = 1;
nodes = (
"49 55 OFFCURVE",
"154 -20 OFFCURVE",
"342 -20 CURVE SMOOTH",
"504 -20 OFFCURVE",
"649 36 OFFCURVE",
"649 187 CURVE SMOOTH",
"649 294 OFFCURVE",
"587 371 OFFCURVE",
"339 437 CURVE SMOOTH",
"234 466 OFFCURVE",
"208 483 OFFCURVE",
"208 512 CURVE SMOOTH",
"208 554 OFFCURVE",
"265 578 OFFCURVE",
"342 578 CURVE SMOOTH",
"436 578 OFFCURVE",
"499 542 OFFCURVE",
"506 487 CURVE",
"641 545 LINE",
"623 650 OFFCURVE",
"515 720 OFFCURVE",
"342 720 CURVE SMOOTH",
"176 720 OFFCURVE",
"46 656 OFFCURVE",
"46 512 CURVE SMOOTH",
"46 411 OFFCURVE",
"105 347 OFFCURVE",
"340 286 CURVE SMOOTH",
"458 255 OFFCURVE",
"487 223 OFFCURVE",
"487 187 CURVE SMOOTH",
"487 135 OFFCURVE",
"404 121 OFFCURVE",
"342 121 CURVE SMOOTH",
"231 121 OFFCURVE",
"183 165 OFFCURVE",
"160 231 CURVE",
"24 168 LINE"
);
}
);
width = 673;
},
{
associatedMasterId = "273DC1B6-0844-4B23-906D-30A1B3BA0B12";
layerId = "F7ECBC73-3A47-4B5E-8399-0D68297ADC4A";
width = 600;
},
{
associatedMasterId = "B5B6FC57-28DA-495E-8DF1-4E68D36FF5F4";
layerId = "45BDD731-59EB-4E29-80C9-C2486D5CF707";
name = "Apr 29 19, 15:09";
paths = (
{
closed = 1;
nodes = (
"68 83 OFFCURVE",
"165 -10 OFFCURVE",
"326 -10 CURVE SMOOTH",
"487 -10 OFFCURVE",
"595 54 OFFCURVE",
"595 194 CURVE SMOOTH",
"595 332 OFFCURVE",
"491 355 OFFCURVE",
"325 401 CURVE SMOOTH",
"170 443 OFFCURVE",
"151 487 OFFCURVE",
"151 529 CURVE SMOOTH",
"151 582 OFFCURVE",
"206 633 OFFCURVE",
"326 633 CURVE SMOOTH",
"451 633 OFFCURVE",
"481 578 OFFCURVE",
"494 517 CURVE",
"572 542 LINE",
"559 627 OFFCURVE",
"476 710 OFFCURVE",
"326 710 CURVE SMOOTH",
"178 710 OFFCURVE",
"74 635 OFFCURVE",
"74 529 CURVE SMOOTH",
"74 426 OFFCURVE",
"120 373 OFFCURVE",
"326 317 CURVE SMOOTH",
"441 285 OFFCURVE",
"515 281 OFFCURVE",
"515 194 CURVE SMOOTH",
"515 117 OFFCURVE",
"447 66 OFFCURVE",
"326 66 CURVE SMOOTH",
"193 66 OFFCURVE",
"139 142 OFFCURVE",
"119 203 CURVE",
"48 168 LINE"
);
}
);
width = 635;
},
{
associatedMasterId = "0E084538-2240-41A5-9525-5B99B37478DA";
layerId = "5B9FDB65-537D-4008-918D-28B49A5F9E9C";
name = "Apr 29 19, 15:09";
paths = (
{
closed = 1;
nodes = (
"43 51 OFFCURVE",
"166 -20 OFFCURVE",
"327 -20 CURVE SMOOTH",
"511 -20 OFFCURVE",
"634 63 OFFCURVE",
"634 187 CURVE SMOOTH",
"634 310 OFFCURVE",
"572 367 OFFCURVE",
"324 433 CURVE SMOOTH",
"219 462 OFFCURVE",
"193 478 OFFCURVE",
"193 512 CURVE SMOOTH",
"193 552 OFFCURVE",
"247 578 OFFCURVE",
"327 578 CURVE SMOOTH",
"425 578 OFFCURVE",
"495 546 OFFCURVE",
"501 497 CURVE",
"626 545 LINE",
"608 653 OFFCURVE",
"486 720 OFFCURVE",
"327 720 CURVE SMOOTH",
"149 720 OFFCURVE",
"31 637 OFFCURVE",
"31 512 CURVE SMOOTH",
"31 390 OFFCURVE",
"90 344 OFFCURVE",
"325 282 CURVE SMOOTH",
"443 251 OFFCURVE",
"472 224 OFFCURVE",
"472 187 CURVE SMOOTH",
"472 147 OFFCURVE",
"414 121 OFFCURVE",
"327 121 CURVE SMOOTH",
"235 121 OFFCURVE",
"158 165 OFFCURVE",
"135 231 CURVE",
"19 158 LINE"
);
}
);
width = 670;
},
{
associatedMasterId = "273DC1B6-0844-4B23-906D-30A1B3BA0B12";
layerId = "ED92E88A-F26B-4903-ABDD-FB8A32B49DC3";
name = "Apr 29 19, 15:09";
paths = (
{
closed = 1;
nodes = (
"50 55 OFFCURVE",
"153 -6 OFFCURVE",
"304 -6 CURVE SMOOTH",
"473 -6 OFFCURVE",
"573 61 OFFCURVE",
"573 171 CURVE SMOOTH",
"573 272 OFFCURVE",
"504 313 OFFCURVE",
"303 368 CURVE SMOOTH",
"144 413 OFFCURVE",
"81 459 OFFCURVE",
"81 529 CURVE SMOOTH",
"81 615 OFFCURVE",
"170 671 OFFCURVE",
"304 671 CURVE SMOOTH",
"417 671 OFFCURVE",
"514 626 OFFCURVE",
"522 532 CURVE",
"550 542 LINE",
"538 637 OFFCURVE",
"440 700 OFFCURVE",
"304 700 CURVE SMOOTH",
"153 700 OFFCURVE",
"52 632 OFFCURVE",
"52 529 CURVE SMOOTH",
"52 441 OFFCURVE",
"124 386 OFFCURVE",
"304 337 CURVE SMOOTH",
"482 288 OFFCURVE",
"544 255 OFFCURVE",
"544 171 CURVE SMOOTH",
"544 79 OFFCURVE",
"455 23 OFFCURVE",
"304 23 CURVE SMOOTH",
"166 23 OFFCURVE",
"70 77 OFFCURVE",
"51 176 CURVE",
"26 158 LINE"
);
}
);
width = 600;
},
{
associatedMasterId = "0E084538-2240-41A5-9525-5B99B37478DA";
layerId = "CD6E1E28-1DB5-41D1-898E-27D42B291C49";
name = "Apr 29 19, 16:23";
paths = (
{
closed = 1;
nodes = (
"43 51 OFFCURVE",
"166 -20 OFFCURVE",
"327 -20 CURVE SMOOTH",
"511 -20 OFFCURVE",
"634 63 OFFCURVE",
"634 187 CURVE SMOOTH",
"634 321 OFFCURVE",
"572 371 OFFCURVE",
"324 437 CURVE SMOOTH",
"219 466 OFFCURVE",
"193 481 OFFCURVE",
"193 512 CURVE SMOOTH",
"193 552 OFFCURVE",
"247 578 OFFCURVE",
"327 578 CURVE SMOOTH",
"425 578 OFFCURVE",
"495 546 OFFCURVE",
"501 497 CURVE",
"626 545 LINE",
"608 650 OFFCURVE",
"488 720 OFFCURVE",
"327 720 CURVE SMOOTH",
"149 720 OFFCURVE",
"31 637 OFFCURVE",
"31 512 CURVE SMOOTH",
"31 392 OFFCURVE",
"90 347 OFFCURVE",
"325 286 CURVE SMOOTH",
"443 255 OFFCURVE",
"472 235 OFFCURVE",
"472 187 CURVE SMOOTH",
"472 147 OFFCURVE",
"414 121 OFFCURVE",
"327 121 CURVE SMOOTH",
"235 121 OFFCURVE",
"158 165 OFFCURVE",
"135 231 CURVE",
"19 158 LINE"
);
}
);
width = 670;
},
{
associatedMasterId = "B5B6FC57-28DA-495E-8DF1-4E68D36FF5F4";
layerId = "BC9B788A-4F01-4E33-B880-29213712272C";
name = "Apr 30 19, 01:20";
paths = (
{
closed = 1;
nodes = (
"73 61 OFFCURVE",
"184 -10 OFFCURVE",
"326 -10 CURVE SMOOTH",
"487 -10 OFFCURVE",
"595 72 OFFCURVE",
"595 194 CURVE SMOOTH",
"595 286 OFFCURVE",
"518 345 OFFCURVE",
"325 400 CURVE SMOOTH",
"202 434 OFFCURVE",
"153 470 OFFCURVE",
"153 529 CURVE SMOOTH",
"153 596 OFFCURVE",
"222 640 OFFCURVE",
"326 640 CURVE SMOOTH",
"412 640 OFFCURVE",
"480 591 OFFCURVE",
"496 517 CURVE",
"572 542 LINE",
"557 643 OFFCURVE",
"459 710 OFFCURVE",
"326 710 CURVE SMOOTH",
"174 710 OFFCURVE",
"73 638 OFFCURVE",
"73 529 CURVE SMOOTH",
"73 427 OFFCURVE",
"145 366 OFFCURVE",
"326 317 CURVE SMOOTH",
"461 280 OFFCURVE",
"515 245 OFFCURVE",
"515 194 CURVE SMOOTH",
"515 114 OFFCURVE",
"439 60 OFFCURVE",
"326 60 CURVE SMOOTH",
"230 60 OFFCURVE",
"147 117 OFFCURVE",
"119 203 CURVE",
"48 168 LINE"
);
}
);
width = 635;
},
{
associatedMasterId = "273DC1B6-0844-4B23-906D-30A1B3BA0B12";
layerId = "1180F01F-4989-4FC9-AC0C-580003BE8DC3";
name = "May 2 19, 05:43";
paths = (
{
closed = 1;
nodes = (
"49 57 OFFCURVE",
"147 -10 OFFCURVE",
"304 -10 CURVE SMOOTH",
"453 -10 OFFCURVE",
"574 50 OFFCURVE",
"574 171 CURVE SMOOTH",
"574 257 OFFCURVE",
"520 308 OFFCURVE",
"303 367 CURVE SMOOTH",
"125 417 OFFCURVE",
"81 458 OFFCURVE",
"81 529 CURVE SMOOTH",
"81 629 OFFCURVE",
"181 681 OFFCURVE",
"304 681 CURVE SMOOTH",
"437 681 OFFCURVE",
"513 621 OFFCURVE",
"521 532 CURVE",
"550 542 LINE",
"537 643 OFFCURVE",
"452 710 OFFCURVE",
"304 710 CURVE SMOOTH",
"166 710 OFFCURVE",
"52 651 OFFCURVE",
"52 529 CURVE SMOOTH",
"52 443 OFFCURVE",
"102 392 OFFCURVE",
"304 337 CURVE SMOOTH",
"496 284 OFFCURVE",
"544 242 OFFCURVE",
"544 171 CURVE SMOOTH",
"544 71 OFFCURVE",
"436 19 OFFCURVE",
"304 19 CURVE SMOOTH",
"158 19 OFFCURVE",
"69 82 OFFCURVE",
"52 176 CURVE",
"26 158 LINE"
);
}
);
width = 600;
},
{
associatedMasterId = "B5B6FC57-28DA-495E-8DF1-4E68D36FF5F4";
layerId = "4315787F-59DD-4280-B1A8-B036242627BF";
name = "May 2 19, 05:43";
paths = (
{
closed = 1;
nodes = (
"61 61 OFFCURVE",
"171 -10 OFFCURVE",
"314 -10 CURVE SMOOTH",
"474 -10 OFFCURVE",
"583 78 OFFCURVE",
"583 194 CURVE SMOOTH",
"583 292 OFFCURVE",
"506 345 OFFCURVE",
"313 400 CURVE SMOOTH",
"190 434 OFFCURVE",
"141 471 OFFCURVE",
"141 529 CURVE SMOOTH",
"141 597 OFFCURVE",
"222 640 OFFCURVE",
"314 640 CURVE SMOOTH",
"412 640 OFFCURVE",
"468 591 OFFCURVE",
"484 517 CURVE",
"560 542 LINE",
"545 643 OFFCURVE",
"457 710 OFFCURVE",
"314 710 CURVE SMOOTH",
"172 710 OFFCURVE",
"61 643 OFFCURVE",
"61 529 CURVE SMOOTH",
"61 432 OFFCURVE",
"133 366 OFFCURVE",
"314 317 CURVE SMOOTH",
"449 280 OFFCURVE",
"503 254 OFFCURVE",
"503 194 CURVE SMOOTH",
"503 123 OFFCURVE",
"421 60 OFFCURVE",
"314 60 CURVE SMOOTH",
"212 60 OFFCURVE",
"135 117 OFFCURVE",
"107 203 CURVE",
"36 168 LINE"
);
}
);
width = 619;
}
);
unicode = 0053;
},
{
glyphname = T;
lastChange = "2019-05-02 13:36:37 +0000";
layers = (
{
layerId = "B5B6FC57-28DA-495E-8DF1-4E68D36FF5F4";
paths = (
{
closed = 1;
nodes = (
"273 701 LINE",
"273 0 LINE",
"353 0 LINE",
"353 701 LINE"
);
},
{
closed = 1;
nodes = (
"48 631 LINE",
"578 631 LINE",
"578 701 LINE",
"48 701 LINE"
);
}
);
width = 626;
},
{
layerId = "273DC1B6-0844-4B23-906D-30A1B3BA0B12";
paths = (
{
closed = 1;
nodes = (
"288 701 LINE",
"288 0 LINE",
"318 0 LINE",
"318 701 LINE"
);
},
{
closed = 1;
nodes = (
"48 672 LINE",
"558 672 LINE",
"558 701 LINE",
"48 701 LINE"
);
}
);
width = 606;
},
{
layerId = "0E084538-2240-41A5-9525-5B99B37478DA";
paths = (
{
closed = 1;
nodes = (
"268 701 LINE",
"268 0 LINE",
"430 0 LINE",
"430 701 LINE"
);
},
{
closed = 1;
nodes = (
"48 539 LINE",
"650 539 LINE",
"650 701 LINE",
"48 701 LINE"
);
}
);
width = 698;
},
{
associatedMasterId = "273DC1B6-0844-4B23-906D-30A1B3BA0B12";
layerId = "F7ECBC73-3A47-4B5E-8399-0D68297ADC4A";
width = 600;
},
{
associatedMasterId = "B5B6FC57-28DA-495E-8DF1-4E68D36FF5F4";
layerId = "E55EE7F9-C173-4035-A528-00284221A260";
name = "Apr 29 19, 15:07";
paths = (
{
closed = 1;
nodes = (
"277 701 LINE",
"277 0 LINE",
"357 0 LINE",
"357 701 LINE"
);
},
{
closed = 1;
nodes = (
"52 623 LINE",
"582 623 LINE",
"582 701 LINE",
"52 701 LINE"
);
}
);
width = 634;
},
{
associatedMasterId = "B5B6FC57-28DA-495E-8DF1-4E68D36FF5F4";
layerId = "C16EA6D1-D3C5-41F9-9754-78FEE847EA1B";
name = "Apr 30 19, 01:20";
paths = (
{
closed = 1;
nodes = (
"277 701 LINE",
"277 0 LINE",
"357 0 LINE",
"357 701 LINE"
);
},
{
closed = 1;
nodes = (
"52 631 LINE",
"582 631 LINE",
"582 701 LINE",
"52 701 LINE"
);
}
);
width = 634;
}
);
unicode = 0054;
},
{
glyphname = U;
lastChange = "2019-05-02 13:36:17 +0000";
layers = (
{
layerId = "B5B6FC57-28DA-495E-8DF1-4E68D36FF5F4";
paths = (
{
closed = 1;
nodes = (
"48 254 LINE",
"48 96 OFFCURVE",
"166 -10 OFFCURVE",
"344 -10 CURVE SMOOTH",
"522 -10 OFFCURVE",
"640 96 OFFCURVE",
"640 254 CURVE",
"640 700 LINE",
"560 700 LINE",
"560 254 LINE",
"560 142 OFFCURVE",
"474 60 OFFCURVE",
"344 60 CURVE SMOOTH",
"214 60 OFFCURVE",
"128 142 OFFCURVE",
"128 254 CURVE",
"128 700 LINE",
"48 700 LINE"
);
}
);
width = 688;
},
{
layerId = "273DC1B6-0844-4B23-906D-30A1B3BA0B12";
paths = (
{
closed = 1;
nodes = (
"48 254 LINE",
"48 96 OFFCURVE",
"160 -10 OFFCURVE",
"332 -10 CURVE SMOOTH",
"504 -10 OFFCURVE",
"620 96 OFFCURVE",
"620 254 CURVE",
"620 700 LINE",
"590 700 LINE",
"590 254 LINE",
"590 113 OFFCURVE",
"486 19 OFFCURVE",
"332 19 CURVE SMOOTH",
"178 19 OFFCURVE",
"78 113 OFFCURVE",
"78 254 CURVE",
"78 700 LINE",
"48 700 LINE"
);
}
);
width = 668;
},
{
layerId = "0E084538-2240-41A5-9525-5B99B37478DA";
paths = (
{
closed = 1;
nodes = (
"48 254 LINE",
"48 87 OFFCURVE",
"182 -24 OFFCURVE",
"382 -24 CURVE SMOOTH",
"583 -24 OFFCURVE",
"715 87 OFFCURVE",
"715 254 CURVE",
"715 700 LINE",
"553 700 LINE",
"553 254 LINE",
"553 180 OFFCURVE",
"485 130 OFFCURVE",
"382 130 CURVE SMOOTH",
"280 130 OFFCURVE",
"210 180 OFFCURVE",
"210 254 CURVE",
"210 700 LINE",
"48 700 LINE"
);
}
);
width = 763;
},
{
associatedMasterId = "273DC1B6-0844-4B23-906D-30A1B3BA0B12";
layerId = "F7ECBC73-3A47-4B5E-8399-0D68297ADC4A";
width = 600;
},
{
associatedMasterId = "B5B6FC57-28DA-495E-8DF1-4E68D36FF5F4";
layerId = "CB9D3C7B-D7E9-4F5D-9E3F-38F168F83F42";
name = "Apr 29 19, 15:29";
paths = (
{
closed = 1;
nodes = (
"82 254 LINE",
"82 96 OFFCURVE",
"198 -10 OFFCURVE",
"373 -10 CURVE SMOOTH",
"554 -10 OFFCURVE",
"674 96 OFFCURVE",
"674 254 CURVE",
"674 700 LINE",
"594 700 LINE",
"594 254 LINE",
"594 142 OFFCURVE",
"506 68 OFFCURVE",
"373 68 CURVE SMOOTH",
"246 68 OFFCURVE",
"162 142 OFFCURVE",
"162 254 CURVE",
"162 700 LINE",
"82 700 LINE"
);
}
);
width = 746;
},
{
associatedMasterId = "B5B6FC57-28DA-495E-8DF1-4E68D36FF5F4";
layerId = "5B27126D-7E93-400C-A758-837EA48B605D";
name = "Apr 30 19, 01:20";
paths = (
{
closed = 1;
nodes = (
"77 254 LINE",
"77 96 OFFCURVE",
"193 -10 OFFCURVE",
"368 -10 CURVE SMOOTH",
"549 -10 OFFCURVE",
"669 96 OFFCURVE",
"669 254 CURVE",
"669 700 LINE",
"589 700 LINE",
"589 254 LINE",
"589 142 OFFCURVE",
"501 60 OFFCURVE",
"368 60 CURVE SMOOTH",
"241 60 OFFCURVE",
"157 142 OFFCURVE",
"157 254 CURVE",
"157 700 LINE",
"77 700 LINE"
);
}
);
width = 746;
}
);
unicode = 0055;
},
{
glyphname = V;
lastChange = "2019-05-02 13:35:34 +0000";
layers = (
{
layerId = "B5B6FC57-28DA-495E-8DF1-4E68D36FF5F4";
paths = (
{
closed = 1;
nodes = (
"425 0 LINE",
"700 700 LINE",
"614 700 LINE",
"339 0 LINE"
);
},
{
closed = 1;
nodes = (
"379 0 LINE",
"104 700 LINE",
"18 700 LINE",
"293 0 LINE"
);
}
);
width = 718;
},
{
layerId = "273DC1B6-0844-4B23-906D-30A1B3BA0B12";
paths = (
{
closed = 1;
nodes = (
"370 0 LINE",
"675 700 LINE",
"642 700 LINE",
"337 0 LINE"
);
},
{
closed = 1;
nodes = (
"356 0 LINE",
"51 700 LINE",
"18 700 LINE",
"323 0 LINE"
);
}
);
width = 693;
},
{
layerId = "0E084538-2240-41A5-9525-5B99B37478DA";
paths = (
{
closed = 1;
nodes = (
"553 0 LINE",
"831 700 LINE",
"657 700 LINE",
"379 0 LINE"
);
},
{
closed = 1;
nodes = (
"469 0 LINE",
"192 700 LINE",
"18 700 LINE",
"295 0 LINE"
);
}
);
width = 849;
},
{
associatedMasterId = "273DC1B6-0844-4B23-906D-30A1B3BA0B12";
layerId = "F7ECBC73-3A47-4B5E-8399-0D68297ADC4A";
width = 600;
},
{
associatedMasterId = "273DC1B6-0844-4B23-906D-30A1B3BA0B12";
layerId = "B0C9A038-3ACD-4FC6-80D6-08669E50B612";
name = "Apr 29 19, 15:48";
paths = (
{
closed = 1;
nodes = (
"351 0 LINE",
"384 0 LINE",
"689 700 LINE",
"656 700 LINE"
);
},
{
closed = 1;
nodes = (
"32 700 LINE",
"337 0 LINE",
"370 0 LINE",
"65 700 LINE"
);
}
);
width = 720;
},
{
associatedMasterId = "B5B6FC57-28DA-495E-8DF1-4E68D36FF5F4";
layerId = "71D9694E-88EA-46D5-94AA-C4CC86AAC091";
name = "Apr 29 19, 15:48";
paths = (
{
closed = 1;
nodes = (
"345 0 LINE",
"432 0 LINE",
"722 700 LINE",
"635 700 LINE"
);
},
{
closed = 1;
nodes = (
"10 700 LINE",
"300 0 LINE",
"387 0 LINE",
"97 700 LINE"
);
}
);
width = 732;
},
{
associatedMasterId = "0E084538-2240-41A5-9525-5B99B37478DA";
layerId = "E8C53C11-A79C-4110-8DE0-93BB3D4AC614";
name = "Apr 29 19, 15:48";
paths = (
{
closed = 1;
nodes = (
"355 0 LINE",
"529 0 LINE",
"807 700 LINE",
"633 700 LINE"
);
},
{
closed = 1;
nodes = (
"-6 700 LINE",
"271 0 LINE",
"445 0 LINE",
"168 700 LINE"
);
}
);
width = 801;
},
{
associatedMasterId = "B5B6FC57-28DA-495E-8DF1-4E68D36FF5F4";
layerId = "D5A98882-9FB8-4222-82CE-1EDE78C41A0D";
name = "Apr 30 19, 01:20";
paths = (
{
closed = 1;
nodes = (
"431 0 LINE",
"706 700 LINE",
"620 700 LINE",
"345 0 LINE"
);
},
{
closed = 1;
nodes = (
"385 0 LINE",
"110 700 LINE",
"24 700 LINE",
"299 0 LINE"
);
}
);
width = 732;
}
);
unicode = 0056;
},
{
glyphname = W;
lastChange = "2019-05-02 13:35:18 +0000";
layers = (
{
layerId = "B5B6FC57-28DA-495E-8DF1-4E68D36FF5F4";
paths = (
{
closed = 1;
nodes = (
"684 0 LINE",
"509 700 LINE",
"427 700 LINE",
"602 0 LINE"
);
},
{
closed = 1;
nodes = (
"267 0 LINE",
"92 700 LINE",
"10 700 LINE",
"185 0 LINE"
);
},
{
closed = 1;
nodes = (
"324 0 LINE",
"499 700 LINE",
"417 700 LINE",
"242 0 LINE"
);
},
{
closed = 1;
nodes = (
"741 0 LINE",
"916 700 LINE",
"834 700 LINE",
"659 0 LINE"
);
}
);
width = 926;
},
{
layerId = "273DC1B6-0844-4B23-906D-30A1B3BA0B12";
paths = (
{
closed = 1;
nodes = (
"637 0 LINE",
"447 700 LINE",
"414 700 LINE",
"604 0 LINE"
);
},
{
closed = 1;
nodes = (
"233 0 LINE",
"43 700 LINE",
"10 700 LINE",
"200 0 LINE"
);
},
{
closed = 1;
nodes = (
"257 0 LINE",
"447 700 LINE",
"414 700 LINE",
"224 0 LINE"
);
},
{
closed = 1;
nodes = (
"661 0 LINE",
"851 700 LINE",
"818 700 LINE",
"628 0 LINE"
);
}
);
width = 861;
},
{
layerId = "0E084538-2240-41A5-9525-5B99B37478DA";
paths = (
{
closed = 1;
nodes = (
"753 0 LINE",
"602 700 LINE",
"435 700 LINE",
"586 0 LINE"
);
},
{
closed = 1;
nodes = (
"320 0 LINE",
"175 700 LINE",
"10 700 LINE",
"155 0 LINE"
);
},
{
closed = 1;
nodes = (
"442 0 LINE",
"592 700 LINE",
"425 700 LINE",
"275 0 LINE"
);
},
{
closed = 1;
nodes = (
"874 0 LINE",
"1019 700 LINE",
"854 700 LINE",
"709 0 LINE"
);
}
);
width = 1029;
},
{
associatedMasterId = "273DC1B6-0844-4B23-906D-30A1B3BA0B12";
layerId = "F7ECBC73-3A47-4B5E-8399-0D68297ADC4A";
width = 600;
},
{
associatedMasterId = "273DC1B6-0844-4B23-906D-30A1B3BA0B12";
layerId = "300584B3-E35D-466F-A954-7E3A21116E37";
name = "Apr 29 19, 15:48";
paths = (
{
closed = 1;
nodes = (
"50 700 LINE",
"210 0 LINE",
"241 0 LINE",
"81 700 LINE"
);
},
{
closed = 1;
nodes = (
"231 0 LINE",
"263 0 LINE",
"503 700 LINE",
"471 700 LINE"
);
},
{
closed = 1;
nodes = (
"478 700 LINE",
"718 0 LINE",
"750 0 LINE",
"510 700 LINE"
);
},
{
closed = 1;
nodes = (
"740 0 LINE",
"771 0 LINE",
"931 700 LINE",
"900 700 LINE"
);
}
);
width = 980;
},
{
associatedMasterId = "B5B6FC57-28DA-495E-8DF1-4E68D36FF5F4";
layerId = "6BB5CCD4-E125-4867-98A4-33A0434D7A32";
name = "Apr 29 19, 15:48";
paths = (
{
closed = 1;
nodes = (
"10 700 LINE",
"150 0 LINE",
"232 0 LINE",
"92 700 LINE"
);
},
{
closed = 1;
nodes = (
"202 0 LINE",
"286 0 LINE",
"516 700 LINE",
"432 700 LINE"
);
},
{
closed = 1;
nodes = (
"446 700 LINE",
"676 0 LINE",
"760 0 LINE",
"530 700 LINE"
);
},
{
closed = 1;
nodes = (
"731 0 LINE",
"813 0 LINE",
"953 700 LINE",
"871 700 LINE"
);
}
);
width = 963;
},
{
associatedMasterId = "0E084538-2240-41A5-9525-5B99B37478DA";
layerId = "78CC98BC-A621-4CA2-B6C4-C09BCE6059A0";
name = "Apr 29 19, 15:48";
paths = (
{
closed = 1;
nodes = (
"2 700 LINE",
"147 0 LINE",
"312 0 LINE",
"167 700 LINE"
);
},
{
closed = 1;
nodes = (
"267 0 LINE",
"434 0 LINE",
"584 700 LINE",
"417 700 LINE"
);
},
{
closed = 1;
nodes = (
"427 700 LINE",
"578 0 LINE",
"745 0 LINE",
"594 700 LINE"
);
},
{
closed = 1;
nodes = (
"701 0 LINE",
"866 0 LINE",
"1011 700 LINE",
"846 700 LINE"
);
}
);
width = 1013;
},
{
associatedMasterId = "B5B6FC57-28DA-495E-8DF1-4E68D36FF5F4";
layerId = "DFCF08DE-42D3-4E5D-A490-F54DE2AC9DC0";
name = "Apr 30 19, 01:07";
paths = (
{
closed = 1;
nodes = (
"10 700 LINE",
"150 0 LINE",
"232 0 LINE",
"92 700 LINE"
);
},
{
closed = 1;
nodes = (
"202 0 LINE",
"286 0 LINE",
"516 700 LINE",
"432 700 LINE"
);
},
{
closed = 1;
nodes = (
"446 700 LINE",
"676 0 LINE",
"760 0 LINE",
"530 700 LINE"
);
},
{
closed = 1;
nodes = (
"731 0 LINE",
"813 0 LINE",
"953 700 LINE",
"871 700 LINE"
);
}
);
width = 963;
},
{
associatedMasterId = "B5B6FC57-28DA-495E-8DF1-4E68D36FF5F4";
layerId = "975615CC-16C9-48B3-BDB7-673A1E31848E";
name = "Apr 30 19, 01:20";
paths = (
{
closed = 1;
nodes = (
"689 0 LINE",
"514 700 LINE",
"432 700 LINE",
"607 0 LINE"
);
},
{
closed = 1;
nodes = (
"272 0 LINE",
"97 700 LINE",
"15 700 LINE",
"190 0 LINE"
);
},
{
closed = 1;
nodes = (
"329 0 LINE",
"504 700 LINE",
"422 700 LINE",
"247 0 LINE"
);
},
{
closed = 1;
nodes = (
"746 0 LINE",
"921 700 LINE",
"839 700 LINE",
"664 0 LINE"
);
}
);
width = 936;
}
);
unicode = 0057;
},
{
glyphname = X;
lastChange = "2019-05-02 13:34:48 +0000";
layers = (
{
layerId = "B5B6FC57-28DA-495E-8DF1-4E68D36FF5F4";
paths = (
{
closed = 1;
nodes = (
"624 -1 LINE",
"118 699 LINE",
"19 699 LINE",
"526 -2 LINE"
);
},
{
closed = 1;
nodes = (
"624 699 LINE",
"525 699 LINE",
"18 -1 LINE",
"117 -1 LINE"
);
}
);
width = 642;
},
{
layerId = "273DC1B6-0844-4B23-906D-30A1B3BA0B12";
paths = (
{
closed = 1;
nodes = (
"581 -1 LINE",
"72 699 LINE",
"36 699 LINE",
"544 -2 LINE"
);
},
{
closed = 1;
nodes = (
"563 699 LINE",
"527 699 LINE",
"18 -1 LINE",
"55 -1 LINE"
);
}
);
width = 599;
},
{
layerId = "0E084538-2240-41A5-9525-5B99B37478DA";
paths = (
{
closed = 1;
nodes = (
"715 -1 LINE",
"206 699 LINE",
"19 699 LINE",
"527 -2 LINE"
);
},
{
closed = 1;
nodes = (
"715 699 LINE",
"527 699 LINE",
"18 -1 LINE",
"208 -1 LINE"
);
}
);
width = 733;
},
{
associatedMasterId = "273DC1B6-0844-4B23-906D-30A1B3BA0B12";
layerId = "F7ECBC73-3A47-4B5E-8399-0D68297ADC4A";
width = 600;
},
{
associatedMasterId = "273DC1B6-0844-4B23-906D-30A1B3BA0B12";
layerId = "4F4D1E66-4D09-4767-940E-D5D14688AA9D";
name = "Apr 29 19, 15:48";
paths = (
{
closed = 1;
nodes = (
"606 -1 LINE",
"97 699 LINE",
"61 699 LINE",
"568 -2 LINE"
);
},
{
closed = 1;
nodes = (
"588 699 LINE",
"552 699 LINE",
"43 -1 LINE",
"81 -1 LINE"
);
}
);
width = 650;
},
{
associatedMasterId = "B5B6FC57-28DA-495E-8DF1-4E68D36FF5F4";
layerId = "4CA91C78-8875-4D1C-9FF6-F7B19B695C11";
name = "Apr 29 19, 15:48";
paths = (
{
closed = 1;
nodes = (
"639 -1 LINE",
"130 699 LINE",
"31 699 LINE",
"538 -2 LINE"
);
},
{
closed = 1;
nodes = (
"618 699 LINE",
"519 699 LINE",
"10 -1 LINE",
"111 -1 LINE"
);
}
);
width = 649;
},
{
associatedMasterId = "0E084538-2240-41A5-9525-5B99B37478DA";
layerId = "EB758945-C4FF-4381-B131-B211D5342671";
name = "Apr 29 19, 15:48";
paths = (
{
closed = 1;
nodes = (
"697 -1 LINE",
"188 699 LINE",
"1 699 LINE",
"509 -2 LINE"
);
},
{
closed = 1;
nodes = (
"697 699 LINE",
"509 699 LINE",
"0 -1 LINE",
"190 -1 LINE"
);
}
);
width = 697;
},
{
associatedMasterId = "B5B6FC57-28DA-495E-8DF1-4E68D36FF5F4";
layerId = "552DF786-6FEA-45BE-9341-C2835D29FE56";
name = "Apr 30 19, 01:20";
paths = (
{
closed = 1;
nodes = (
"627 -1 LINE",
"121 699 LINE",
"22 699 LINE",
"529 -2 LINE"
);
},
{
closed = 1;
nodes = (
"627 699 LINE",
"528 699 LINE",
"21 -1 LINE",
"120 -1 LINE"
);
}
);
width = 649;
}
);
unicode = 0058;
},
{
glyphname = Y;
lastChange = "2019-05-02 13:34:36 +0000";
layers = (
{
layerId = "B5B6FC57-28DA-495E-8DF1-4E68D36FF5F4";
paths = (
{
closed = 1;
nodes = (
"299 292 LINE",
"299 0 LINE",
"379 0 LINE",
"379 292 LINE",
"653 699 LINE",
"557 699 LINE",
"297 315 LINE",
"381 315 LINE",
"120 699 LINE",
"24 699 LINE"
);
}
);
width = 677;
},
{
layerId = "273DC1B6-0844-4B23-906D-30A1B3BA0B12";
paths = (
{
closed = 1;
nodes = (
"324 292 LINE",
"324 0 LINE",
"354 0 LINE",
"354 292 LINE",
"653 699 LINE",
"617 699 LINE",
"325 304 LINE",
"353 304 LINE",
"60 699 LINE",
"24 699 LINE"
);
}
);
width = 677;
},
{
layerId = "0E084538-2240-41A5-9525-5B99B37478DA";
paths = (
{
closed = 1;
nodes = (
"287 292 LINE",
"287 0 LINE",
"450 0 LINE",
"450 294 LINE",
"711 699 LINE",
"546 699 LINE",
"292 304 LINE",
"445 304 LINE",
"187 699 LINE",
"24 699 LINE"
);
}
);
width = 735;
},
{
associatedMasterId = "273DC1B6-0844-4B23-906D-30A1B3BA0B12";
layerId = "F7ECBC73-3A47-4B5E-8399-0D68297ADC4A";
width = 600;
},
{
associatedMasterId = "273DC1B6-0844-4B23-906D-30A1B3BA0B12";
layerId = "26FC0909-4CB5-4D74-BBCF-6904B0E7D6F1";
name = "Apr 29 19, 15:48";
paths = (
{
closed = 1;
nodes = (
"330 292 LINE",
"330 0 LINE",
"360 0 LINE",
"360 292 LINE",
"659 699 LINE",
"625 699 LINE",
"333 304 LINE",
"357 304 LINE",
"64 699 LINE",
"30 699 LINE"
);
}
);
width = 690;
},
{
associatedMasterId = "B5B6FC57-28DA-495E-8DF1-4E68D36FF5F4";
layerId = "8724E88D-E648-4646-8C95-EEEC2E60AF14";
name = "Apr 29 19, 15:48";
paths = (
{
closed = 1;
nodes = (
"305 292 LINE",
"305 0 LINE",
"385 0 LINE",
"385 292 LINE",
"659 699 LINE",
"565 699 LINE",
"303 304 LINE",
"387 304 LINE",
"124 699 LINE",
"30 699 LINE"
);
}
);
width = 689;
},
{
associatedMasterId = "0E084538-2240-41A5-9525-5B99B37478DA";
layerId = "104F0B59-1C31-4798-9C31-7B3D588E72A6";
name = "Apr 29 19, 15:48";
paths = (
{
closed = 1;
nodes = (
"269 292 LINE",
"269 0 LINE",
"432 0 LINE",
"432 294 LINE",
"693 699 LINE",
"528 699 LINE",
"274 304 LINE",
"427 304 LINE",
"169 699 LINE",
"6 699 LINE"
);
}
);
width = 699;
},
{
associatedMasterId = "B5B6FC57-28DA-495E-8DF1-4E68D36FF5F4";
layerId = "78CEB6EB-9211-4B60-B556-7B02E920A0B6";
name = "Apr 30 19, 01:20";
paths = (
{
closed = 1;
nodes = (
"305 292 LINE",
"305 0 LINE",
"385 0 LINE",
"385 292 LINE",
"659 699 LINE",
"563 699 LINE",
"303 315 LINE",
"387 315 LINE",
"126 699 LINE",
"30 699 LINE"
);
}
);
width = 689;
}
);
unicode = 0059;
},
{
glyphname = Z;
lastChange = "2019-05-02 13:32:28 +0000";
layers = (
{
layerId = "B5B6FC57-28DA-495E-8DF1-4E68D36FF5F4";
paths = (
{
closed = 1;
nodes = (
"24 70 LINE",
"24 0 LINE",
"604 2 LINE",
"604 72 LINE"
);
},
{
closed = 1;
nodes = (
"604 682 LINE",
"24 114 LINE",
"24 16 LINE",
"604 584 LINE"
);
},
{
closed = 1;
nodes = (
"24 697 LINE",
"24 627 LINE",
"604 630 LINE",
"604 700 LINE"
);
}
);
width = 628;
},
{
layerId = "273DC1B6-0844-4B23-906D-30A1B3BA0B12";
paths = (
{
closed = 1;
nodes = (
"24 29 LINE",
"24 0 LINE",
"604 2 LINE",
"604 31 LINE"
);
},
{
closed = 1;
nodes = (
"604 690 LINE",
"24 52 LINE",
"24 11 LINE",
"604 649 LINE"
);
},
{
closed = 1;
nodes = (
"24 697 LINE",
"24 668 LINE",
"604 671 LINE",
"604 700 LINE"
);
}
);
width = 628;
},
{
layerId = "0E084538-2240-41A5-9525-5B99B37478DA";
paths = (
{
closed = 1;
nodes = (
"24 162 LINE",
"24 0 LINE",
"604 2 LINE",
"604 164 LINE"
);
},
{
closed = 1;
nodes = (
"604 702 LINE",
"24 177 LINE",
"24 -3 LINE",
"604 523 LINE"
);
},
{
closed = 1;
nodes = (
"24 697 LINE",
"24 535 LINE",
"604 538 LINE",
"604 700 LINE"
);
}
);
width = 628;
},
{
associatedMasterId = "273DC1B6-0844-4B23-906D-30A1B3BA0B12";
layerId = "F7ECBC73-3A47-4B5E-8399-0D68297ADC4A";
width = 600;
},
{
associatedMasterId = "273DC1B6-0844-4B23-906D-30A1B3BA0B12";
layerId = "B91D298B-A69D-4BCA-92BE-FCCDEEC25257";
name = "Apr 29 19, 15:49";
paths = (
{
closed = 1;
nodes = (
"28 29 LINE",
"28 0 LINE",
"608 2 LINE",
"608 31 LINE"
);
},
{
closed = 1;
nodes = (
"608 690 LINE",
"28 52 LINE",
"28 11 LINE",
"608 649 LINE"
);
},
{
closed = 1;
nodes = (
"28 697 LINE",
"28 668 LINE",
"608 671 LINE",
"608 700 LINE"
);
}
);
width = 636;
},
{
associatedMasterId = "B5B6FC57-28DA-495E-8DF1-4E68D36FF5F4";
layerId = "A1576A11-6A48-4CCA-9973-563AF4E9140A";
name = "Apr 29 19, 15:49";
paths = (
{
closed = 1;
nodes = (
"38 76 LINE",
"38 0 LINE",
"618 2 LINE",
"618 78 LINE"
);
},
{
closed = 1;
nodes = (
"618 680 LINE",
"38 132 LINE",
"38 18 LINE",
"618 566 LINE"
);
},
{
closed = 1;
nodes = (
"38 697 LINE",
"38 621 LINE",
"618 624 LINE",
"618 700 LINE"
);
}
);
width = 656;
},
{
associatedMasterId = "0E084538-2240-41A5-9525-5B99B37478DA";
layerId = "17A158C1-1D95-4F20-BB6E-96D007FB3C66";
name = "Apr 29 19, 15:49";
paths = (
{
closed = 1;
nodes = (
"32 162 LINE",
"32 0 LINE",
"612 2 LINE",
"612 164 LINE"
);
},
{
closed = 1;
nodes = (
"612 702 LINE",
"32 177 LINE",
"32 -3 LINE",
"612 523 LINE"
);
},
{
closed = 1;
nodes = (
"32 697 LINE",
"32 535 LINE",
"612 538 LINE",
"612 700 LINE"
);
}
);
width = 644;
},
{
associatedMasterId = "B5B6FC57-28DA-495E-8DF1-4E68D36FF5F4";
layerId = "40A406D8-0177-4A20-96D0-1968D23D0E0C";
name = "Apr 30 19, 01:20";
paths = (
{
closed = 1;
nodes = (
"28 70 LINE",
"28 0 LINE",
"608 2 LINE",
"608 72 LINE"
);
},
{
closed = 1;
nodes = (
"608 682 LINE",
"28 114 LINE",
"28 16 LINE",
"608 584 LINE"
);
},
{
closed = 1;
nodes = (
"28 697 LINE",
"28 627 LINE",
"608 630 LINE",
"608 700 LINE"
);
}
);
width = 636;
}
);
leftMetricsKey = "=H/2";
rightMetricsKey = "=H/2";
unicode = 005A;
},
{
glyphname = ampersand;
lastChange = "2019-05-02 13:04:10 +0000";
layers = (
{
background = {
paths = (
{
closed = 1;
nodes = (
"555 371 LINE",
"523 215 OFFCURVE",
"398 60 OFFCURVE",
"264 60 CURVE SMOOTH",
"191 60 OFFCURVE",
"119 106 OFFCURVE",
"119 188 CURVE SMOOTH",
"119 259 OFFCURVE",
"178 304 OFFCURVE",
"320 376 CURVE SMOOTH",
"405 419 OFFCURVE",
"454 476 OFFCURVE",
"454 552 CURVE SMOOTH",
"454 639 OFFCURVE",
"390 710 OFFCURVE",
"295 710 CURVE SMOOTH",
"201 710 OFFCURVE",
"139 640 OFFCURVE",
"139 552 CURVE SMOOTH",
"139 499 OFFCURVE",
"161 466 OFFCURVE",
"233 377 CURVE SMOOTH",
"551 -10 LINE",
"656 -10 LINE",
"311 409 LINE SMOOTH",
"232 503 OFFCURVE",
"219 518 OFFCURVE",
"219 552 CURVE SMOOTH",
"219 601 OFFCURVE",
"247 640 OFFCURVE",
"295 640 CURVE SMOOTH",
"344 640 OFFCURVE",
"374 600 OFFCURVE",
"374 552 CURVE SMOOTH",
"374 501 OFFCURVE",
"340 467 OFFCURVE",
"269 430 CURVE SMOOTH",
"104 344 OFFCURVE",
"39 283 OFFCURVE",
"39 188 CURVE SMOOTH",
"39 60 OFFCURVE",
"149 -10 OFFCURVE",
"264 -10 CURVE SMOOTH",
"438 -10 OFFCURVE",
"585 152 OFFCURVE",
"625 327 CURVE"
);
}
);
};
layerId = "273DC1B6-0844-4B23-906D-30A1B3BA0B12";
paths = (
{
closed = 1;
nodes = (
"565 364 LINE",
"527 181 OFFCURVE",
"462 19 OFFCURVE",
"293 19 CURVE SMOOTH",
"187 19 OFFCURVE",
"87 81 OFFCURVE",
"87 188 CURVE SMOOTH",
"87 269 OFFCURVE",
"144 317 OFFCURVE",
"273 377 CURVE SMOOTH",
"365 420 OFFCURVE",
"425 479 OFFCURVE",
"425 557 CURVE SMOOTH",
"425 636 OFFCURVE",
"364 710 OFFCURVE",
"280 710 CURVE SMOOTH",
"195 710 OFFCURVE",
"143 633 OFFCURVE",
"143 557 CURVE SMOOTH",
"143 481 OFFCURVE",
"196 428 OFFCURVE",
"240 381 CURVE SMOOTH",
"601 -10 LINE",
"639 -9 LINE",
"270 392 LINE SMOOTH",
"228 438 OFFCURVE",
"173 491 OFFCURVE",
"173 557 CURVE SMOOTH",
"173 613 OFFCURVE",
"212 681 OFFCURVE",
"280 681 CURVE SMOOTH",
"345 681 OFFCURVE",
"395 619 OFFCURVE",
"395 557 CURVE SMOOTH",
"395 492 OFFCURVE",
"340 442 OFFCURVE",
"256 402 CURVE SMOOTH",
"117 336 OFFCURVE",
"57 278 OFFCURVE",
"57 188 CURVE SMOOTH",
"57 63 OFFCURVE",
"171 -10 OFFCURVE",
"293 -10 CURVE SMOOTH",
"475 -10 OFFCURVE",
"548 156 OFFCURVE",
"592 347 CURVE"
);
}
);
width = 710;
},
{
associatedMasterId = "273DC1B6-0844-4B23-906D-30A1B3BA0B12";
layerId = "F7ECBC73-3A47-4B5E-8399-0D68297ADC4A";
width = 600;
},
{
associatedMasterId = "B5B6FC57-28DA-495E-8DF1-4E68D36FF5F4";
layerId = "9F5F2142-E1B8-46CF-933F-EA52EBBEC2AC";
name = "Apr 14 19, 19:52";
paths = (
{
closed = 1;
nodes = (
"538 311 LINE",
"506 158 OFFCURVE",
"410 56 OFFCURVE",
"298 56 CURVE SMOOTH",
"197 56 OFFCURVE",
"130 105 OFFCURVE",
"130 178 CURVE SMOOTH",
"130 240 OFFCURVE",
"213 274 OFFCURVE",
"288 317 CURVE SMOOTH",
"422 393 OFFCURVE",
"483 467 OFFCURVE",
"483 533 CURVE SMOOTH",
"483 639 OFFCURVE",
"406 710 OFFCURVE",
"291 710 CURVE SMOOTH",
"178 710 OFFCURVE",
"102 620 OFFCURVE",
"112 536 CURVE SMOOTH",
"122 450 OFFCURVE",
"202 383 OFFCURVE",
"202 383 CURVE",
"543 -20 LINE",
"655 -20 LINE",
"274 410 LINE",
"274 410 OFFCURVE",
"204 475 OFFCURVE",
"189 533 CURVE SMOOTH",
"179 571 OFFCURVE",
"223 630 OFFCURVE",
"291 630 CURVE SMOOTH",
"361 630 OFFCURVE",
"407 594 OFFCURVE",
"407 533 CURVE SMOOTH",
"407 503 OFFCURVE",
"379 460 OFFCURVE",
"299 410 CURVE SMOOTH",
"196 345 OFFCURVE",
"50 311 OFFCURVE",
"50 178 CURVE SMOOTH",
"50 59 OFFCURVE",
"149 -20 OFFCURVE",
"298 -20 CURVE SMOOTH",
"445 -20 OFFCURVE",
"569 95 OFFCURVE",
"608 267 CURVE"
);
}
);
width = 600;
},
{
associatedMasterId = "B5B6FC57-28DA-495E-8DF1-4E68D36FF5F4";
layerId = "5F54612A-6B93-407F-B0A3-306C53B8FF45";
name = "Apr 14 19, 19:58";
paths = (
{
closed = 1;
nodes = (
"538 311 LINE",
"506 158 OFFCURVE",
"410 56 OFFCURVE",
"298 56 CURVE SMOOTH",
"197 56 OFFCURVE",
"130 100 OFFCURVE",
"130 178 CURVE SMOOTH",
"130 245 OFFCURVE",
"213 274 OFFCURVE",
"288 317 CURVE SMOOTH",
"422 393 OFFCURVE",
"476 464 OFFCURVE",
"476 533 CURVE SMOOTH",
"476 636 OFFCURVE",
"402 710 OFFCURVE",
"291 710 CURVE SMOOTH",
"184 710 OFFCURVE",
"112 640 OFFCURVE",
"112 536 CURVE",
"112 446 OFFCURVE",
"172 404 OFFCURVE",
"245 319 CURVE SMOOTH",
"340 208 OFFCURVE",
"543 -20 OFFCURVE",
"543 -20 CURVE",
"655 -20 LINE",
"655 -20 OFFCURVE",
"440 210 OFFCURVE",
"314 360 CURVE SMOOTH",
"242 446 OFFCURVE",
"188 484 OFFCURVE",
"188 533 CURVE",
"188 591 OFFCURVE",
"230 630 OFFCURVE",
"291 630 CURVE SMOOTH",
"356 630 OFFCURVE",
"400 588 OFFCURVE",
"400 533 CURVE SMOOTH",
"400 501 OFFCURVE",
"379 460 OFFCURVE",
"299 410 CURVE SMOOTH",
"196 345 OFFCURVE",
"50 316 OFFCURVE",
"50 178 CURVE SMOOTH",
"50 54 OFFCURVE",
"149 -20 OFFCURVE",
"298 -20 CURVE SMOOTH",
"445 -20 OFFCURVE",
"569 95 OFFCURVE",
"608 267 CURVE"
);
}
);
width = 600;
},
{
associatedMasterId = "B5B6FC57-28DA-495E-8DF1-4E68D36FF5F4";
layerId = "9B931FC0-412F-4730-B430-F34296E12340";
name = "Apr 30 19, 19:01";
paths = (
{
closed = 1;
nodes = (
"538 311 LINE",
"506 158 OFFCURVE",
"410 60 OFFCURVE",
"298 60 CURVE SMOOTH",
"197 60 OFFCURVE",
"130 100 OFFCURVE",
"130 178 CURVE SMOOTH",
"130 245 OFFCURVE",
"213 274 OFFCURVE",
"288 317 CURVE SMOOTH",
"422 393 OFFCURVE",
"476 464 OFFCURVE",
"476 533 CURVE SMOOTH",
"476 636 OFFCURVE",
"402 710 OFFCURVE",
"291 710 CURVE SMOOTH",
"184 710 OFFCURVE",
"112 640 OFFCURVE",
"112 536 CURVE SMOOTH",
"112 446 OFFCURVE",
"172 404 OFFCURVE",
"245 319 CURVE SMOOTH",
"340 208 OFFCURVE",
"543 -20 OFFCURVE",
"543 -20 CURVE",
"655 -20 LINE",
"655 -20 OFFCURVE",
"440 210 OFFCURVE",
"314 360 CURVE SMOOTH",
"242 446 OFFCURVE",
"188 484 OFFCURVE",
"188 533 CURVE SMOOTH",
"188 591 OFFCURVE",
"230 640 OFFCURVE",
"291 640 CURVE SMOOTH",
"356 640 OFFCURVE",
"400 588 OFFCURVE",
"400 533 CURVE SMOOTH",
"400 501 OFFCURVE",
"379 460 OFFCURVE",
"299 410 CURVE SMOOTH",
"196 345 OFFCURVE",
"50 316 OFFCURVE",
"50 178 CURVE SMOOTH",
"50 54 OFFCURVE",
"149 -10 OFFCURVE",
"298 -10 CURVE SMOOTH",
"445 -10 OFFCURVE",
"569 95 OFFCURVE",
"608 267 CURVE"
);
}
);
width = 705;
},
{
background = {
paths = (
{
closed = 1;
nodes = (
"555 371 LINE",
"523 215 OFFCURVE",
"398 60 OFFCURVE",
"264 60 CURVE SMOOTH",
"191 60 OFFCURVE",
"119 106 OFFCURVE",
"119 188 CURVE SMOOTH",
"119 259 OFFCURVE",
"178 304 OFFCURVE",
"320 376 CURVE SMOOTH",
"405 419 OFFCURVE",
"454 476 OFFCURVE",
"454 552 CURVE SMOOTH",
"454 639 OFFCURVE",
"390 710 OFFCURVE",
"295 710 CURVE SMOOTH",
"201 710 OFFCURVE",
"139 640 OFFCURVE",
"139 552 CURVE SMOOTH",
"139 499 OFFCURVE",
"161 466 OFFCURVE",
"233 377 CURVE SMOOTH",
"551 -10 LINE",
"656 -10 LINE",
"311 409 LINE SMOOTH",
"232 503 OFFCURVE",
"219 518 OFFCURVE",
"219 552 CURVE SMOOTH",
"219 601 OFFCURVE",
"247 640 OFFCURVE",
"295 640 CURVE SMOOTH",
"344 640 OFFCURVE",
"374 600 OFFCURVE",
"374 552 CURVE SMOOTH",
"374 501 OFFCURVE",
"340 467 OFFCURVE",
"269 430 CURVE SMOOTH",
"104 344 OFFCURVE",
"39 283 OFFCURVE",
"39 188 CURVE SMOOTH",
"39 60 OFFCURVE",
"149 -10 OFFCURVE",
"264 -10 CURVE SMOOTH",
"438 -10 OFFCURVE",
"585 152 OFFCURVE",
"625 327 CURVE"
);
}
);
};
layerId = "0E084538-2240-41A5-9525-5B99B37478DA";
paths = (
{
closed = 1;
nodes = (
"535 384 LINE",
"497 228 OFFCURVE",
"350 130 OFFCURVE",
"252 130 CURVE SMOOTH",
"182 130 OFFCURVE",
"166 180 OFFCURVE",
"166 205 CURVE SMOOTH",
"166 264 OFFCURVE",
"258 291 OFFCURVE",
"353 323 CURVE SMOOTH",
"454 357 OFFCURVE",
"504 433 OFFCURVE",
"504 522 CURVE SMOOTH",
"504 646 OFFCURVE",
"407 720 OFFCURVE",
"294 720 CURVE SMOOTH",
"167 720 OFFCURVE",
"86 627 OFFCURVE",
"86 522 CURVE SMOOTH",
"86 460 OFFCURVE",
"115 412 OFFCURVE",
"187 333 CURVE SMOOTH",
"508 -20 LINE",
"723 -20 LINE",
"345 396 LINE SMOOTH",
"319 425 OFFCURVE",
"246 483 OFFCURVE",
"246 520 CURVE SMOOTH",
"246 538 OFFCURVE",
"263 570 OFFCURVE",
"294 570 CURVE SMOOTH",
"324 570 OFFCURVE",
"344 540 OFFCURVE",
"344 520 CURVE SMOOTH",
"344 497 OFFCURVE",
"316 471 OFFCURVE",
"272 454 CURVE SMOOTH",
"95 384 OFFCURVE",
"16 290 OFFCURVE",
"16 186 CURVE SMOOTH",
"16 59 OFFCURVE",
"133 -20 OFFCURVE",
"265 -20 CURVE SMOOTH",
"443 -20 OFFCURVE",
"624 130 OFFCURVE",
"665 302 CURVE"
);
}
);
width = 720;
},
{
associatedMasterId = "B5B6FC57-28DA-495E-8DF1-4E68D36FF5F4";
layerId = "614E51D5-B376-4182-A924-6076F4BA6A18";
name = "Apr 30 19, 19:02";
paths = (
{
closed = 1;
nodes = (
"518 311 LINE",
"487 160 OFFCURVE",
"399 60 OFFCURVE",
"298 60 CURVE SMOOTH",
"207 60 OFFCURVE",
"146 104 OFFCURVE",
"146 169 CURVE SMOOTH",
"146 246 OFFCURVE",
"206 335 OFFCURVE",
"295 390 CURVE SMOOTH",
"441 478 OFFCURVE",
"450 465 OFFCURVE",
"450 555 CURVE SMOOTH",
"450 648 OFFCURVE",
"386 710 OFFCURVE",
"291 710 CURVE SMOOTH",
"196 710 OFFCURVE",
"133 648 OFFCURVE",
"133 555 CURVE SMOOTH",
"133 503 OFFCURVE",
"160 437 OFFCURVE",
"201 389 CURVE SMOOTH",
"543 -10 LINE",
"652 -10 LINE",
"278 420 LINE SMOOTH",
"239 464 OFFCURVE",
"213 518 OFFCURVE",
"213 555 CURVE SMOOTH",
"213 606 OFFCURVE",
"244 640 OFFCURVE",
"291 640 CURVE SMOOTH",
"338 640 OFFCURVE",
"370 606 OFFCURVE",
"370 555 CURVE SMOOTH",
"370 513 OFFCURVE",
"362 521 OFFCURVE",
"244 450 CURVE SMOOTH",
"137 386 OFFCURVE",
"66 274 OFFCURVE",
"66 169 CURVE SMOOTH",
"66 62 OFFCURVE",
"159 -10 OFFCURVE",
"298 -10 CURVE SMOOTH",
"435 -10 OFFCURVE",
"551 100 OFFCURVE",
"589 265 CURVE"
);
}
);
width = 705;
},
{
layerId = "B5B6FC57-28DA-495E-8DF1-4E68D36FF5F4";
paths = (
{
closed = 1;
nodes = (
"548 371 LINE",
"516 215 OFFCURVE",
"390 60 OFFCURVE",
"257 60 CURVE SMOOTH",
"183 60 OFFCURVE",
"112 108 OFFCURVE",
"112 188 CURVE SMOOTH",
"112 261 OFFCURVE",
"171 304 OFFCURVE",
"313 376 CURVE SMOOTH",
"398 419 OFFCURVE",
"447 476 OFFCURVE",
"447 552 CURVE SMOOTH",
"447 639 OFFCURVE",
"383 710 OFFCURVE",
"288 710 CURVE SMOOTH",
"194 710 OFFCURVE",
"132 640 OFFCURVE",
"132 552 CURVE SMOOTH",
"132 499 OFFCURVE",
"154 466 OFFCURVE",
"226 377 CURVE SMOOTH",
"544 -10 LINE",
"649 -10 LINE",
"304 409 LINE SMOOTH",
"225 503 OFFCURVE",
"212 518 OFFCURVE",
"212 552 CURVE SMOOTH",
"212 601 OFFCURVE",
"240 640 OFFCURVE",
"288 640 CURVE SMOOTH",
"337 640 OFFCURVE",
"367 600 OFFCURVE",
"367 552 CURVE SMOOTH",
"367 501 OFFCURVE",
"333 467 OFFCURVE",
"262 430 CURVE SMOOTH",
"97 344 OFFCURVE",
"32 285 OFFCURVE",
"32 188 CURVE SMOOTH",
"32 62 OFFCURVE",
"141 -10 OFFCURVE",
"257 -10 CURVE SMOOTH",
"430 -10 OFFCURVE",
"578 152 OFFCURVE",
"618 327 CURVE"
);
}
);
width = 681;
},
{
associatedMasterId = "B5B6FC57-28DA-495E-8DF1-4E68D36FF5F4";
layerId = "C068EA22-9DAB-4F4C-B297-34040D01B54F";
name = "Apr 30 19, 19:15";
paths = (
{
closed = 1;
nodes = (
"538 311 LINE",
"507 160 OFFCURVE",
"411 60 OFFCURVE",
"298 60 CURVE SMOOTH",
"197 60 OFFCURVE",
"110 117 OFFCURVE",
"110 198 CURVE SMOOTH",
"110 298 OFFCURVE",
"204 317 OFFCURVE",
"296 363 CURVE SMOOTH",
"400 415 OFFCURVE",
"437 498 OFFCURVE",
"437 552 CURVE SMOOTH",
"437 647 OFFCURVE",
"373 710 OFFCURVE",
"278 710 CURVE SMOOTH",
"183 710 OFFCURVE",
"122 647 OFFCURVE",
"122 552 CURVE SMOOTH",
"122 494 OFFCURVE",
"162 440 OFFCURVE",
"215 377 CURVE SMOOTH",
"543 -10 LINE",
"647 -10 LINE",
"293 409 LINE SMOOTH",
"247 464 OFFCURVE",
"202 512 OFFCURVE",
"202 552 CURVE SMOOTH",
"202 605 OFFCURVE",
"228 640 OFFCURVE",
"278 640 CURVE SMOOTH",
"328 640 OFFCURVE",
"357 605 OFFCURVE",
"357 552 CURVE SMOOTH",
"357 506 OFFCURVE",
"324 468 OFFCURVE",
"255 432 CURVE SMOOTH",
"180 393 OFFCURVE",
"30 353 OFFCURVE",
"30 198 CURVE SMOOTH",
"30 75 OFFCURVE",
"149 -10 OFFCURVE",
"298 -10 CURVE SMOOTH",
"446 -10 OFFCURVE",
"570 101 OFFCURVE",
"608 267 CURVE"
);
}
);
width = 705;
},
{
associatedMasterId = "273DC1B6-0844-4B23-906D-30A1B3BA0B12";
background = {
paths = (
{
closed = 1;
nodes = (
"518 311 LINE",
"488 166 OFFCURVE",
"400 60 OFFCURVE",
"298 60 CURVE SMOOTH",
"207 60 OFFCURVE",
"146 110 OFFCURVE",
"146 169 CURVE SMOOTH",
"146 208 OFFCURVE",
"169 237 OFFCURVE",
"225 270 CURVE SMOOTH",
"357 350 LINE SMOOTH",
"425 390 OFFCURVE",
"470 464 OFFCURVE",
"470 535 CURVE SMOOTH",
"470 640 OFFCURVE",
"398 710 OFFCURVE",
"291 710 CURVE SMOOTH",
"184 710 OFFCURVE",
"113 640 OFFCURVE",
"113 535 CURVE SMOOTH",
"113 479 OFFCURVE",
"131 445 OFFCURVE",
"201 369 CURVE SMOOTH",
"543 -10 LINE",
"652 -10 LINE",
"278 400 LINE SMOOTH",
"211 474 OFFCURVE",
"193 500 OFFCURVE",
"193 535 CURVE SMOOTH",
"193 592 OFFCURVE",
"232 640 OFFCURVE",
"291 640 CURVE SMOOTH",
"350 640 OFFCURVE",
"390 592 OFFCURVE",
"390 535 CURVE SMOOTH",
"390 489 OFFCURVE",
"350 435 OFFCURVE",
"290 400 CURVE SMOOTH",
"174 330 LINE SMOOTH",
"97 284 OFFCURVE",
"66 238 OFFCURVE",
"66 169 CURVE SMOOTH",
"66 62 OFFCURVE",
"159 -10 OFFCURVE",
"298 -10 CURVE SMOOTH",
"435 -10 OFFCURVE",
"551 100 OFFCURVE",
"589 265 CURVE"
);
}
);
};
layerId = "8AF1E0A2-39D7-406A-A028-1B7FAB45CD90";
name = "Apr 30 19, 19:19";
paths = (
{
closed = 1;
nodes = (
"556 286 LINE",
"518 113 OFFCURVE",
"421 19 OFFCURVE",
"317 19 CURVE SMOOTH",
"200 19 OFFCURVE",
"122 80 OFFCURVE",
"121 171 CURVE SMOOTH",
"120 245 OFFCURVE",
"220 306 OFFCURVE",
"227 311 CURVE SMOOTH",
"337 391 LINE SMOOTH",
"394 432 OFFCURVE",
"440 483 OFFCURVE",
"440 564 CURVE SMOOTH",
"440 644 OFFCURVE",
"375 710 OFFCURVE",
"295 710 CURVE SMOOTH",
"210 710 OFFCURVE",
"144 644 OFFCURVE",
"144 564 CURVE SMOOTH",
"144 486 OFFCURVE",
"196 439 OFFCURVE",
"260 369 CURVE SMOOTH",
"602 -10 LINE",
"643 -10 LINE",
"272 400 LINE SMOOTH",
"231 446 OFFCURVE",
"174 493 OFFCURVE",
"174 564 CURVE SMOOTH",
"174 627 OFFCURVE",
"228 681 OFFCURVE",
"295 681 CURVE SMOOTH",
"357 681 OFFCURVE",
"410 627 OFFCURVE",
"410 564 CURVE SMOOTH",
"410 484 OFFCURVE",
"362 446 OFFCURVE",
"307 406 CURVE SMOOTH",
"211 336 LINE SMOOTH",
"179 313 OFFCURVE",
"90 255 OFFCURVE",
"91 171 CURVE SMOOTH",
"92 62 OFFCURVE",
"182 -10 OFFCURVE",
"317 -10 CURVE SMOOTH",
"434 -10 OFFCURVE",
"542 88 OFFCURVE",
"584 268 CURVE"
);
}
);
width = 600;
},
{
associatedMasterId = "0E084538-2240-41A5-9525-5B99B37478DA";
layerId = "E22AD3F8-4A32-4682-AF85-AB4AE6AFE22F";
name = "Apr 30 19, 19:54";
paths = (
{
closed = 1;
nodes = (
"525 371 LINE",
"489 220 OFFCURVE",
"417 130 OFFCURVE",
"330 130 CURVE SMOOTH",
"262 130 OFFCURVE",
"197 132 OFFCURVE",
"197 186 CURVE SMOOTH",
"197 225 OFFCURVE",
"242 244 OFFCURVE",
"343 283 CURVE SMOOTH",
"473 333 OFFCURVE",
"518 436 OFFCURVE",
"518 522 CURVE SMOOTH",
"518 641 OFFCURVE",
"434 720 OFFCURVE",
"309 720 CURVE SMOOTH",
"182 720 OFFCURVE",
"97 641 OFFCURVE",
"97 522 CURVE SMOOTH",
"97 464 OFFCURVE",
"108 422 OFFCURVE",
"202 317 CURVE SMOOTH",
"505 -20 LINE",
"719 -20 LINE",
"360 380 LINE SMOOTH",
"285 464 OFFCURVE",
"257 482 OFFCURVE",
"257 522 CURVE SMOOTH",
"257 551 OFFCURVE",
"278 570 OFFCURVE",
"309 570 CURVE SMOOTH",
"338 570 OFFCURVE",
"358 550 OFFCURVE",
"358 520 CURVE SMOOTH",
"358 489 OFFCURVE",
"318 439 OFFCURVE",
"251 406 CURVE SMOOTH",
"96 329 OFFCURVE",
"37 285 OFFCURVE",
"37 188 CURVE SMOOTH",
"37 43 OFFCURVE",
"166 -20 OFFCURVE",
"330 -20 CURVE SMOOTH",
"485 -20 OFFCURVE",
"600 89 OFFCURVE",
"640 257 CURVE"
);
}
);
width = 720;
},
{
associatedMasterId = "0E084538-2240-41A5-9525-5B99B37478DA";
layerId = "172A3B40-6AAC-4381-A3CC-D4EC72C4F104";
name = "Apr 30 19, 20:02";
paths = (
{
closed = 1;
nodes = (
"535 344 LINE",
"504 216 OFFCURVE",
"422 130 OFFCURVE",
"330 130 CURVE SMOOTH",
"242 130 OFFCURVE",
"204 145 OFFCURVE",
"198 183 CURVE SMOOTH",
"189 234 OFFCURVE",
"228 268 OFFCURVE",
"333 303 CURVE SMOOTH",
"465 348 OFFCURVE",
"508 436 OFFCURVE",
"508 522 CURVE SMOOTH",
"508 641 OFFCURVE",
"421 720 OFFCURVE",
"294 720 CURVE SMOOTH",
"168 720 OFFCURVE",
"87 641 OFFCURVE",
"87 522 CURVE SMOOTH",
"87 464 OFFCURVE",
"107 421 OFFCURVE",
"202 317 CURVE SMOOTH",
"508 -20 LINE",
"722 -20 LINE",
"360 380 LINE SMOOTH",
"284 463 OFFCURVE",
"246 482 OFFCURVE",
"246 522 CURVE SMOOTH",
"246 551 OFFCURVE",
"264 570 OFFCURVE",
"294 570 CURVE SMOOTH",
"325 570 OFFCURVE",
"348 550 OFFCURVE",
"348 520 CURVE SMOOTH",
"348 491 OFFCURVE",
"320 468 OFFCURVE",
"251 441 CURVE SMOOTH",
"75 372 OFFCURVE",
"-4 258 OFFCURVE",
"37 133 CURVE SMOOTH",
"68 37 OFFCURVE",
"177 -20 OFFCURVE",
"330 -20 CURVE SMOOTH",
"487 -20 OFFCURVE",
"615 78 OFFCURVE",
"650 224 CURVE"
);
}
);
width = 720;
},
{
associatedMasterId = "0E084538-2240-41A5-9525-5B99B37478DA";
layerId = "54C028EB-D2E1-4C97-8390-A67746C6EEC5";
name = "Apr 30 19, 20:04";
paths = (
{
closed = 1;
nodes = (
"535 344 LINE",
"504 216 OFFCURVE",
"422 130 OFFCURVE",
"330 130 CURVE SMOOTH",
"242 130 OFFCURVE",
"211 140 OFFCURVE",
"197 178 CURVE SMOOTH",
"180 226 OFFCURVE",
"228 268 OFFCURVE",
"333 303 CURVE SMOOTH",
"465 348 OFFCURVE",
"508 436 OFFCURVE",
"508 522 CURVE SMOOTH",
"508 641 OFFCURVE",
"421 720 OFFCURVE",
"294 720 CURVE SMOOTH",
"168 720 OFFCURVE",
"87 641 OFFCURVE",
"87 522 CURVE SMOOTH",
"87 464 OFFCURVE",
"107 421 OFFCURVE",
"202 317 CURVE SMOOTH",
"508 -20 LINE",
"722 -20 LINE",
"360 380 LINE SMOOTH",
"284 463 OFFCURVE",
"246 482 OFFCURVE",
"246 522 CURVE SMOOTH",
"246 551 OFFCURVE",
"264 570 OFFCURVE",
"294 570 CURVE SMOOTH",
"325 570 OFFCURVE",
"348 550 OFFCURVE",
"348 520 CURVE SMOOTH",
"348 491 OFFCURVE",
"320 468 OFFCURVE",
"251 441 CURVE SMOOTH",
"75 372 OFFCURVE",
"-5 253 OFFCURVE",
"36 128 CURVE SMOOTH",
"67 32 OFFCURVE",
"177 -20 OFFCURVE",
"330 -20 CURVE SMOOTH",
"487 -20 OFFCURVE",
"615 78 OFFCURVE",
"650 224 CURVE"
);
}
);
width = 720;
},
{
associatedMasterId = "B5B6FC57-28DA-495E-8DF1-4E68D36FF5F4";
layerId = "9DDFCCB3-A0F0-441F-8456-1D1CF89CFED3";
name = "May 1 19, 21:20";
paths = (
{
closed = 1;
nodes = (
"553 311 LINE",
"521 154 OFFCURVE",
"425 50 OFFCURVE",
"305 50 CURVE SMOOTH",
"197 50 OFFCURVE",
"120 105 OFFCURVE",
"120 188 CURVE SMOOTH",
"120 296 OFFCURVE",
"219 327 OFFCURVE",
"317 376 CURVE SMOOTH",
"419 427 OFFCURVE",
"451 498 OFFCURVE",
"451 552 CURVE SMOOTH",
"451 647 OFFCURVE",
"387 710 OFFCURVE",
"292 710 CURVE SMOOTH",
"197 710 OFFCURVE",
"136 647 OFFCURVE",
"136 552 CURVE SMOOTH",
"136 494 OFFCURVE",
"177 440 OFFCURVE",
"230 377 CURVE SMOOTH",
"558 -10 LINE",
"663 -10 LINE",
"308 409 LINE SMOOTH",
"262 464 OFFCURVE",
"216 512 OFFCURVE",
"216 552 CURVE SMOOTH",
"216 605 OFFCURVE",
"242 640 OFFCURVE",
"292 640 CURVE SMOOTH",
"342 640 OFFCURVE",
"371 605 OFFCURVE",
"371 552 CURVE SMOOTH",
"371 506 OFFCURVE",
"335 466 OFFCURVE",
"266 430 CURVE SMOOTH",
"191 391 OFFCURVE",
"40 355 OFFCURVE",
"40 188 CURVE SMOOTH",
"40 63 OFFCURVE",
"149 -20 OFFCURVE",
"305 -20 CURVE SMOOTH",
"460 -20 OFFCURVE",
"584 95 OFFCURVE",
"623 267 CURVE"
);
}
);
width = 687;
},
{
associatedMasterId = "B5B6FC57-28DA-495E-8DF1-4E68D36FF5F4";
layerId = "B8414E48-9034-46DF-A77F-B219AD009D2E";
name = "May 1 19, 21:21";
paths = (
{
closed = 1;
nodes = (
"553 311 LINE",
"521 154 OFFCURVE",
"425 50 OFFCURVE",
"305 50 CURVE SMOOTH",
"197 50 OFFCURVE",
"120 105 OFFCURVE",
"120 188 CURVE SMOOTH",
"120 296 OFFCURVE",
"229 327 OFFCURVE",
"327 376 CURVE SMOOTH",
"429 427 OFFCURVE",
"461 498 OFFCURVE",
"461 552 CURVE SMOOTH",
"461 647 OFFCURVE",
"397 710 OFFCURVE",
"302 710 CURVE SMOOTH",
"207 710 OFFCURVE",
"146 647 OFFCURVE",
"146 552 CURVE SMOOTH",
"146 494 OFFCURVE",
"188 441 OFFCURVE",
"240 377 CURVE SMOOTH",
"558 -10 LINE",
"663 -10 LINE",
"318 409 LINE SMOOTH",
"272 464 OFFCURVE",
"226 512 OFFCURVE",
"226 552 CURVE SMOOTH",
"226 605 OFFCURVE",
"252 640 OFFCURVE",
"302 640 CURVE SMOOTH",
"352 640 OFFCURVE",
"381 605 OFFCURVE",
"381 552 CURVE SMOOTH",
"381 506 OFFCURVE",
"345 466 OFFCURVE",
"276 430 CURVE SMOOTH",
"201 391 OFFCURVE",
"40 355 OFFCURVE",
"40 188 CURVE SMOOTH",
"40 63 OFFCURVE",
"149 -20 OFFCURVE",
"305 -20 CURVE SMOOTH",
"460 -20 OFFCURVE",
"584 95 OFFCURVE",
"623 267 CURVE"
);
}
);
width = 687;
},
{
associatedMasterId = "B5B6FC57-28DA-495E-8DF1-4E68D36FF5F4";
layerId = "AF243FD9-174D-42AE-84E2-48BBD1665B59";
name = "May 2 19, 03:22";
paths = (
{
closed = 1;
nodes = (
"555 371 LINE",
"523 215 OFFCURVE",
"398 60 OFFCURVE",
"264 60 CURVE SMOOTH",
"191 60 OFFCURVE",
"119 106 OFFCURVE",
"119 188 CURVE SMOOTH",
"119 259 OFFCURVE",
"178 304 OFFCURVE",
"320 376 CURVE SMOOTH",
"405 419 OFFCURVE",
"454 476 OFFCURVE",
"454 552 CURVE SMOOTH",
"454 639 OFFCURVE",
"390 710 OFFCURVE",
"295 710 CURVE SMOOTH",
"201 710 OFFCURVE",
"139 640 OFFCURVE",
"139 552 CURVE SMOOTH",
"139 499 OFFCURVE",
"161 466 OFFCURVE",
"233 377 CURVE SMOOTH",
"551 -10 LINE",
"656 -10 LINE",
"311 409 LINE SMOOTH",
"232 503 OFFCURVE",
"219 518 OFFCURVE",
"219 552 CURVE SMOOTH",
"219 601 OFFCURVE",
"247 640 OFFCURVE",
"295 640 CURVE SMOOTH",
"344 640 OFFCURVE",
"374 600 OFFCURVE",
"374 552 CURVE SMOOTH",
"374 501 OFFCURVE",
"340 467 OFFCURVE",
"269 430 CURVE SMOOTH",
"104 344 OFFCURVE",
"39 283 OFFCURVE",
"39 188 CURVE SMOOTH",
"39 60 OFFCURVE",
"149 -10 OFFCURVE",
"264 -10 CURVE SMOOTH",
"438 -10 OFFCURVE",
"585 152 OFFCURVE",
"625 327 CURVE"
);
}
);
width = 687;
},
{
associatedMasterId = "0E084538-2240-41A5-9525-5B99B37478DA";
background = {
paths = (
{
closed = 1;
nodes = (
"555 371 LINE",
"523 215 OFFCURVE",
"398 60 OFFCURVE",
"264 60 CURVE SMOOTH",
"191 60 OFFCURVE",
"119 106 OFFCURVE",
"119 188 CURVE SMOOTH",
"119 259 OFFCURVE",
"178 304 OFFCURVE",
"320 376 CURVE SMOOTH",
"405 419 OFFCURVE",
"454 476 OFFCURVE",
"454 552 CURVE SMOOTH",
"454 639 OFFCURVE",
"390 710 OFFCURVE",
"295 710 CURVE SMOOTH",
"201 710 OFFCURVE",
"139 640 OFFCURVE",
"139 552 CURVE SMOOTH",
"139 499 OFFCURVE",
"161 466 OFFCURVE",
"233 377 CURVE SMOOTH",
"551 -10 LINE",
"656 -10 LINE",
"311 409 LINE SMOOTH",
"232 503 OFFCURVE",
"219 518 OFFCURVE",
"219 552 CURVE SMOOTH",
"219 601 OFFCURVE",
"247 640 OFFCURVE",
"295 640 CURVE SMOOTH",
"344 640 OFFCURVE",
"374 600 OFFCURVE",
"374 552 CURVE SMOOTH",
"374 501 OFFCURVE",
"340 467 OFFCURVE",
"269 430 CURVE SMOOTH",
"104 344 OFFCURVE",
"39 283 OFFCURVE",
"39 188 CURVE SMOOTH",
"39 60 OFFCURVE",
"149 -10 OFFCURVE",
"264 -10 CURVE SMOOTH",
"438 -10 OFFCURVE",
"585 152 OFFCURVE",
"625 327 CURVE"
);
}
);
};
layerId = "C884B5F2-1444-41DF-9BFA-E484E28EC5DF";
name = "May 2 19, 03:36";
paths = (
{
closed = 1;
nodes = (
"535 384 LINE",
"497 228 OFFCURVE",
"350 130 OFFCURVE",
"252 130 CURVE SMOOTH",
"182 130 OFFCURVE",
"166 180 OFFCURVE",
"166 205 CURVE SMOOTH",
"166 264 OFFCURVE",
"258 291 OFFCURVE",
"353 323 CURVE SMOOTH",
"454 357 OFFCURVE",
"504 432 OFFCURVE",
"504 522 CURVE SMOOTH",
"504 645 OFFCURVE",
"408 720 OFFCURVE",
"294 720 CURVE SMOOTH",
"168 720 OFFCURVE",
"86 627 OFFCURVE",
"86 522 CURVE SMOOTH",
"86 460 OFFCURVE",
"115 412 OFFCURVE",
"187 333 CURVE SMOOTH",
"508 -20 LINE",
"723 -20 LINE",
"345 396 LINE SMOOTH",
"319 425 OFFCURVE",
"246 494 OFFCURVE",
"246 520 CURVE SMOOTH",
"246 549 OFFCURVE",
"263 570 OFFCURVE",
"294 570 CURVE SMOOTH",
"324 570 OFFCURVE",
"344 546 OFFCURVE",
"344 520 CURVE SMOOTH",
"344 507 OFFCURVE",
"324 474 OFFCURVE",
"272 454 CURVE SMOOTH",
"95 384 OFFCURVE",
"16 293 OFFCURVE",
"16 186 CURVE SMOOTH",
"16 62 OFFCURVE",
"121 -20 OFFCURVE",
"265 -20 CURVE SMOOTH",
"431 -20 OFFCURVE",
"624 130 OFFCURVE",
"665 302 CURVE"
);
}
);
width = 720;
}
);
unicode = 0026;
},
{
glyphname = a;
lastChange = "2019-05-20 07:19:35 +0000";
layers = (
{
layerId = "B5B6FC57-28DA-495E-8DF1-4E68D36FF5F4";
paths = (
{
closed = 1;
nodes = (
"336 -10 OFFCURVE",
"417 30 OFFCURVE",
"431 90 CURVE",
"434 50 OFFCURVE",
"451 22 OFFCURVE",
"476 6 CURVE SMOOTH",
"500 -9 OFFCURVE",
"530 -12 OFFCURVE",
"558 -3 CURVE",
"558 67 LINE",
"547 64 OFFCURVE",
"533 62 OFFCURVE",
"523 73 CURVE SMOOTH",
"512 83 OFFCURVE",
"504 107 OFFCURVE",
"504 154 CURVE SMOOTH",
"504 349 LINE SMOOTH",
"504 450 OFFCURVE",
"422 510 OFFCURVE",
"284 510 CURVE SMOOTH",
"158 510 OFFCURVE",
"72 460 OFFCURVE",
"62 384 CURVE",
"136 360 LINE",
"144 408 OFFCURVE",
"198 440 OFFCURVE",
"284 440 CURVE SMOOTH",
"365 440 OFFCURVE",
"428 413 OFFCURVE",
"428 369 CURVE SMOOTH",
"428 325 OFFCURVE",
"366 305 OFFCURVE",
"230 297 CURVE SMOOTH",
"121 290 OFFCURVE",
"48 230 OFFCURVE",
"48 141 CURVE SMOOTH",
"48 52 OFFCURVE",
"120 -10 OFFCURVE",
"239 -10 CURVE SMOOTH"
);
},
{
closed = 1;
nodes = (
"171 60 OFFCURVE",
"128 91 OFFCURVE",
"128 141 CURVE SMOOTH",
"128 189 OFFCURVE",
"169 224 OFFCURVE",
"230 227 CURVE SMOOTH",
"343 233 OFFCURVE",
"405 246 OFFCURVE",
"428 271 CURVE",
"427 144 OFFCURVE",
"350 60 OFFCURVE",
"239 60 CURVE SMOOTH"
);
}
);
width = 606;
},
{
associatedMasterId = "B5B6FC57-28DA-495E-8DF1-4E68D36FF5F4";
layerId = "D43CAB7B-3CFD-4F8D-AF57-37AE20B54369";
name = "Apr 3 19, 12:57";
paths = (
{
closed = 1;
nodes = (
"43 46 OFFCURVE",
"135 -8 OFFCURVE",
"254 -8 CURVE SMOOTH",
"382 -8 OFFCURVE",
"427 106 OFFCURVE",
"427 126 CURVE",
"427 374 LINE",
"427 321 OFFCURVE",
"374 305 OFFCURVE",
"254 305 CURVE SMOOTH",
"121 305 OFFCURVE",
"43 245 OFFCURVE",
"43 146 CURVE SMOOTH"
);
},
{
closed = 1;
nodes = (
"128 200 OFFCURVE",
"163 235 OFFCURVE",
"254 235 CURVE",
"320 235 OFFCURVE",
"392 230 OFFCURVE",
"425 267 CURVE",
"424 162 OFFCURVE",
"349 62 OFFCURVE",
"254 62 CURVE SMOOTH",
"177 62 OFFCURVE",
"128 94 OFFCURVE",
"128 146 CURVE SMOOTH"
);
},
{
closed = 1;
nodes = (
"137 376 LINE",
"157 410 OFFCURVE",
"195 452 OFFCURVE",
"289 452 CURVE SMOOTH",
"374 452 OFFCURVE",
"427 409 OFFCURVE",
"427 374 CURVE SMOOTH",
"427 0 LINE",
"507 0 LINE",
"507 374 LINE",
"506 466 OFFCURVE",
"419 525 OFFCURVE",
"289 525 CURVE SMOOTH",
"166 525 OFFCURVE",
"118 481 OFFCURVE",
"78 424 CURVE"
);
}
);
width = 550;
},
{
associatedMasterId = "B5B6FC57-28DA-495E-8DF1-4E68D36FF5F4";
layerId = "3312088B-75A0-41A2-86F0-DBFBDA6B0081";
name = "Apr 10 19, 08:32";
paths = (
{
closed = 1;
nodes = (
"36 41 OFFCURVE",
"118 -20 OFFCURVE",
"237 -20 CURVE SMOOTH",
"375 -20 OFFCURVE",
"426 111 OFFCURVE",
"426 131 CURVE",
"426 0 LINE",
"506 0 LINE",
"506 369 LINE",
"505 461 OFFCURVE",
"422 520 OFFCURVE",
"292 520 CURVE SMOOTH",
"180 520 OFFCURVE",
"77 482 OFFCURVE",
"61 385 CURVE",
"127 360 LINE",
"147 439 OFFCURVE",
"213 460 OFFCURVE",
"292 460 CURVE",
"377 460 OFFCURVE",
"426 404 OFFCURVE",
"426 369 CURVE SMOOTH",
"426 316 OFFCURVE",
"367 293 OFFCURVE",
"237 293 CURVE SMOOTH",
"104 293 OFFCURVE",
"36 240 OFFCURVE",
"36 141 CURVE SMOOTH"
);
},
{
closed = 1;
nodes = (
"116 195 OFFCURVE",
"146 233 OFFCURVE",
"237 233 CURVE SMOOTH",
"313 233 OFFCURVE",
"391 225 OFFCURVE",
"424 262 CURVE",
"423 157 OFFCURVE",
"342 40 OFFCURVE",
"237 40 CURVE SMOOTH",
"160 40 OFFCURVE",
"116 89 OFFCURVE",
"116 141 CURVE SMOOTH"
);
}
);
width = 546;
},
{
associatedMasterId = "B5B6FC57-28DA-495E-8DF1-4E68D36FF5F4";
layerId = "8F7D8167-BBA7-4B4C-92AB-E0C10190710C";
name = "Apr 10 19, 08:35";
paths = (
{
closed = 1;
nodes = (
"36 41 OFFCURVE",
"118 -20 OFFCURVE",
"237 -20 CURVE SMOOTH",
"375 -20 OFFCURVE",
"426 111 OFFCURVE",
"426 131 CURVE",
"426 0 LINE",
"506 0 LINE",
"506 369 LINE",
"505 461 OFFCURVE",
"422 520 OFFCURVE",
"292 520 CURVE SMOOTH",
"180 520 OFFCURVE",
"77 482 OFFCURVE",
"61 385 CURVE",
"127 360 LINE",
"147 439 OFFCURVE",
"213 460 OFFCURVE",
"292 460 CURVE",
"377 460 OFFCURVE",
"426 404 OFFCURVE",
"426 369 CURVE SMOOTH",
"426 316 OFFCURVE",
"367 293 OFFCURVE",
"237 293 CURVE SMOOTH",
"104 293 OFFCURVE",
"36 240 OFFCURVE",
"36 141 CURVE SMOOTH"
);
},
{
closed = 1;
nodes = (
"116 195 OFFCURVE",
"146 233 OFFCURVE",
"237 233 CURVE SMOOTH",
"313 233 OFFCURVE",
"391 225 OFFCURVE",
"424 262 CURVE",
"423 157 OFFCURVE",
"342 40 OFFCURVE",
"237 40 CURVE SMOOTH",
"160 40 OFFCURVE",
"116 89 OFFCURVE",
"116 141 CURVE SMOOTH"
);
},
{
closed = 1;
nodes = (
"426 48 LINE",
"428 24 OFFCURVE",
"432 6 OFFCURVE",
"443 0 CURVE",
"529 0 LINE",
"516 6 OFFCURVE",
"509 24 OFFCURVE",
"506 48 CURVE"
);
}
);
width = 546;
},
{
associatedMasterId = "B5B6FC57-28DA-495E-8DF1-4E68D36FF5F4";
layerId = "7CFFEA66-30E8-4154-B9E5-84A648A80F37";
name = "Apr 10 19, 15:54";
paths = (
{
closed = 1;
nodes = (
"36 41 OFFCURVE",
"118 -20 OFFCURVE",
"237 -20 CURVE SMOOTH",
"375 -20 OFFCURVE",
"426 111 OFFCURVE",
"426 131 CURVE",
"426 88 LINE",
"426 44 OFFCURVE",
"431 12 OFFCURVE",
"453 0 CURVE",
"539 0 LINE",
"499 8 OFFCURVE",
"506 116 OFFCURVE",
"506 157 CURVE",
"506 369 LINE",
"505 461 OFFCURVE",
"422 530 OFFCURVE",
"292 530 CURVE SMOOTH",
"180 530 OFFCURVE",
"77 482 OFFCURVE",
"61 385 CURVE",
"127 360 LINE",
"147 439 OFFCURVE",
"213 460 OFFCURVE",
"292 460 CURVE SMOOTH",
"377 460 OFFCURVE",
"426 404 OFFCURVE",
"426 369 CURVE SMOOTH",
"426 316 OFFCURVE",
"367 293 OFFCURVE",
"237 293 CURVE SMOOTH",
"104 293 OFFCURVE",
"36 240 OFFCURVE",
"36 141 CURVE SMOOTH"
);
},
{
closed = 1;
nodes = (
"116 195 OFFCURVE",
"146 223 OFFCURVE",
"237 223 CURVE SMOOTH",
"313 223 OFFCURVE",
"391 225 OFFCURVE",
"424 262 CURVE",
"423 157 OFFCURVE",
"342 50 OFFCURVE",
"237 50 CURVE SMOOTH",
"160 50 OFFCURVE",
"116 89 OFFCURVE",
"116 141 CURVE SMOOTH"
);
}
);
width = 546;
},
{
associatedMasterId = "B5B6FC57-28DA-495E-8DF1-4E68D36FF5F4";
layerId = "5DB4B23F-AF0A-4224-B12F-146566B4E9CB";
name = "Apr 11 19, 17:36";
paths = (
{
closed = 1;
nodes = (
"44 41 OFFCURVE",
"128 -20 OFFCURVE",
"237 -20 CURVE SMOOTH",
"375 -20 OFFCURVE",
"426 111 OFFCURVE",
"426 131 CURVE",
"426 88 LINE",
"426 40 OFFCURVE",
"425 14 OFFCURVE",
"437 0 CURVE",
"518 0 LINE",
"504 14 OFFCURVE",
"506 84 OFFCURVE",
"506 262 CURVE",
"506 369 LINE",
"505 461 OFFCURVE",
"412 530 OFFCURVE",
"282 530 CURVE SMOOTH",
"170 530 OFFCURVE",
"71 482 OFFCURVE",
"61 385 CURVE",
"127 360 LINE",
"137 439 OFFCURVE",
"203 460 OFFCURVE",
"282 460 CURVE SMOOTH",
"367 460 OFFCURVE",
"426 404 OFFCURVE",
"426 369 CURVE SMOOTH",
"426 316 OFFCURVE",
"367 293 OFFCURVE",
"237 293 CURVE SMOOTH",
"114 293 OFFCURVE",
"44 240 OFFCURVE",
"44 141 CURVE SMOOTH"
);
},
{
closed = 1;
nodes = (
"126 195 OFFCURVE",
"156 223 OFFCURVE",
"237 223 CURVE SMOOTH",
"313 223 OFFCURVE",
"393 225 OFFCURVE",
"426 262 CURVE",
"425 157 OFFCURVE",
"342 50 OFFCURVE",
"237 50 CURVE SMOOTH",
"170 50 OFFCURVE",
"126 89 OFFCURVE",
"126 141 CURVE SMOOTH"
);
}
);
width = 546;
},
{
layerId = "273DC1B6-0844-4B23-906D-30A1B3BA0B12";
paths = (
{
closed = 1;
nodes = (
"352 -10 OFFCURVE",
"418 55 OFFCURVE",
"452 150 CURVE",
"453 88 OFFCURVE",
"464 39 OFFCURVE",
"488 14 CURVE SMOOTH",
"504 -3 OFFCURVE",
"525 -10 OFFCURVE",
"552 -3 CURVE",
"552 27 LINE",
"532 20 OFFCURVE",
"516 25 OFFCURVE",
"505 40 CURVE SMOOTH",
"489 61 OFFCURVE",
"482 102 OFFCURVE",
"482 152 CURVE SMOOTH",
"482 369 LINE SMOOTH",
"482 451 OFFCURVE",
"400 510 OFFCURVE",
"278 510 CURVE SMOOTH",
"159 510 OFFCURVE",
"78 454 OFFCURVE",
"68 375 CURVE",
"97 366 LINE",
"107 442 OFFCURVE",
"186 481 OFFCURVE",
"278 481 CURVE SMOOTH",
"392 481 OFFCURVE",
"452 420 OFFCURVE",
"452 369 CURVE SMOOTH",
"452 297 OFFCURVE",
"318 277 OFFCURVE",
"233 271 CURVE SMOOTH",
"83 261 OFFCURVE",
"48 208 OFFCURVE",
"48 133 CURVE SMOOTH",
"48 33 OFFCURVE",
"137 -10 OFFCURVE",
"233 -10 CURVE SMOOTH"
);
},
{
closed = 1;
nodes = (
"155 19 OFFCURVE",
"78 54 OFFCURVE",
"78 133 CURVE SMOOTH",
"78 184 OFFCURVE",
"109 234 OFFCURVE",
"233 242 CURVE SMOOTH",
"300 247 OFFCURVE",
"418 267 OFFCURVE",
"452 304 CURVE",
"451 138 OFFCURVE",
"378 19 OFFCURVE",
"233 19 CURVE SMOOTH"
);
}
);
width = 600;
},
{
layerId = "0E084538-2240-41A5-9525-5B99B37478DA";
paths = (
{
closed = 1;
nodes = (
"342 -20 OFFCURVE",
"425 10 OFFCURVE",
"437 56 CURVE",
"443 28 OFFCURVE",
"470 4 OFFCURVE",
"506 -7 CURVE SMOOTH",
"536 -16 OFFCURVE",
"573 -15 OFFCURVE",
"608 3 CURVE",
"608 133 LINE",
"591 130 OFFCURVE",
"577 132 OFFCURVE",
"566 137 CURVE SMOOTH",
"553 144 OFFCURVE",
"545 156 OFFCURVE",
"545 172 CURVE SMOOTH",
"545 314 LINE SMOOTH",
"545 438 OFFCURVE",
"464 521 OFFCURVE",
"312 521 CURVE SMOOTH",
"192 521 OFFCURVE",
"82 469 OFFCURVE",
"66 391 CURVE",
"205 354 LINE",
"213 376 OFFCURVE",
"245 391 OFFCURVE",
"292 391 CURVE SMOOTH",
"341 391 OFFCURVE",
"379 377 OFFCURVE",
"379 352 CURVE SMOOTH",
"379 331 OFFCURVE",
"354 320 OFFCURVE",
"255 310 CURVE SMOOTH",
"119 297 OFFCURVE",
"48 244 OFFCURVE",
"48 148 CURVE SMOOTH",
"48 53 OFFCURVE",
"117 -20 OFFCURVE",
"273 -20 CURVE SMOOTH"
);
},
{
closed = 1;
nodes = (
"231 107 OFFCURVE",
"208 122 OFFCURVE",
"208 144 CURVE",
"208 165 OFFCURVE",
"230 177 OFFCURVE",
"271 181 CURVE SMOOTH",
"326 187 OFFCURVE",
"371 194 OFFCURVE",
"384 210 CURVE",
"384 147 OFFCURVE",
"336 107 OFFCURVE",
"271 107 CURVE SMOOTH"
);
}
);
width = 656;
},
{
associatedMasterId = "273DC1B6-0844-4B23-906D-30A1B3BA0B12";
layerId = "F7ECBC73-3A47-4B5E-8399-0D68297ADC4A";
width = 600;
},
{
associatedMasterId = "B5B6FC57-28DA-495E-8DF1-4E68D36FF5F4";
layerId = "AA071DAA-BEC4-4817-8D5E-2F4E4F7FCF4E";
name = "Apr 29 19, 22:43";
paths = (
{
closed = 1;
nodes = (
"49 50 OFFCURVE",
"125 -10 OFFCURVE",
"240 -10 CURVE SMOOTH",
"355 -10 OFFCURVE",
"422 44 OFFCURVE",
"432 100 CURVE",
"437 8 OFFCURVE",
"523 -16 OFFCURVE",
"559 -7 CURVE",
"559 63 LINE",
"527 58 OFFCURVE",
"509 60 OFFCURVE",
"509 154 CURVE",
"509 349 LINE",
"509 450 OFFCURVE",
"426 510 OFFCURVE",
"285 510 CURVE SMOOTH",
"161 510 OFFCURVE",
"73 460 OFFCURVE",
"63 384 CURVE",
"132 361 LINE",
"140 408 OFFCURVE",
"201 440 OFFCURVE",
"285 440 CURVE SMOOTH",
"371 440 OFFCURVE",
"429 412 OFFCURVE",
"429 369 CURVE SMOOTH",
"429 329 OFFCURVE",
"380 309 OFFCURVE",
"240 293 CURVE SMOOTH",
"114 281 OFFCURVE",
"49 229 OFFCURVE",
"49 141 CURVE SMOOTH"
);
},
{
closed = 1;
nodes = (
"129 191 OFFCURVE",
"167 219 OFFCURVE",
"240 223 CURVE SMOOTH",
"355 229 OFFCURVE",
"409 240 OFFCURVE",
"429 262 CURVE",
"428 141 OFFCURVE",
"352 60 OFFCURVE",
"240 60 CURVE SMOOTH",
"173 60 OFFCURVE",
"129 92 OFFCURVE",
"129 141 CURVE SMOOTH"
);
}
);
width = 608;
},
{
associatedMasterId = "B5B6FC57-28DA-495E-8DF1-4E68D36FF5F4";
layerId = "C98D4888-C80D-4E76-A622-55A32953830D";
name = "Apr 29 19, 23:19";
paths = (
{
closed = 1;
nodes = (
"42 50 OFFCURVE",
"118 -10 OFFCURVE",
"233 -10 CURVE SMOOTH",
"335 -10 OFFCURVE",
"412 34 OFFCURVE",
"425 100 CURVE",
"430 8 OFFCURVE",
"501 -17 OFFCURVE",
"552 -2 CURVE",
"552 62 LINE",
"520 57 OFFCURVE",
"502 60 OFFCURVE",
"502 154 CURVE",
"502 344 LINE",
"502 444 OFFCURVE",
"414 510 OFFCURVE",
"283 510 CURVE SMOOTH",
"157 510 OFFCURVE",
"66 456 OFFCURVE",
"56 375 CURVE",
"122 350 LINE",
"131 405 OFFCURVE",
"195 442 OFFCURVE",
"283 442 CURVE SMOOTH",
"366 442 OFFCURVE",
"422 413 OFFCURVE",
"422 369 CURVE SMOOTH",
"422 322 OFFCURVE",
"346 298 OFFCURVE",
"233 291 CURVE SMOOTH",
"113 284 OFFCURVE",
"42 228 OFFCURVE",
"42 141 CURVE SMOOTH"
);
},
{
closed = 1;
nodes = (
"122 188 OFFCURVE",
"163 218 OFFCURVE",
"233 223 CURVE SMOOTH",
"325 230 OFFCURVE",
"401 239 OFFCURVE",
"422 262 CURVE",
"421 137 OFFCURVE",
"345 54 OFFCURVE",
"233 54 CURVE SMOOTH",
"166 54 OFFCURVE",
"122 89 OFFCURVE",
"122 141 CURVE SMOOTH"
);
}
);
width = 608;
},
{
associatedMasterId = "B5B6FC57-28DA-495E-8DF1-4E68D36FF5F4";
layerId = "27869371-D30A-4781-AEC3-F358D0775940";
name = "Apr 30 19, 02:55";
paths = (
{
closed = 1;
nodes = (
"42 50 OFFCURVE",
"118 -10 OFFCURVE",
"233 -10 CURVE SMOOTH",
"335 -10 OFFCURVE",
"412 34 OFFCURVE",
"425 100 CURVE",
"430 8 OFFCURVE",
"501 -17 OFFCURVE",
"552 -2 CURVE",
"552 62 LINE",
"520 57 OFFCURVE",
"502 60 OFFCURVE",
"502 154 CURVE",
"502 344 LINE",
"502 444 OFFCURVE",
"414 510 OFFCURVE",
"283 510 CURVE SMOOTH",
"157 510 OFFCURVE",
"66 456 OFFCURVE",
"56 375 CURVE",
"122 350 LINE",
"131 405 OFFCURVE",
"195 442 OFFCURVE",
"283 442 CURVE SMOOTH",
"366 442 OFFCURVE",
"422 413 OFFCURVE",
"422 369 CURVE SMOOTH",
"422 322 OFFCURVE",
"346 298 OFFCURVE",
"233 291 CURVE SMOOTH",
"113 284 OFFCURVE",
"42 228 OFFCURVE",
"42 141 CURVE SMOOTH"
);
},
{
closed = 1;
nodes = (
"122 188 OFFCURVE",
"163 218 OFFCURVE",
"233 223 CURVE SMOOTH",
"325 230 OFFCURVE",
"401 239 OFFCURVE",
"422 262 CURVE",
"421 137 OFFCURVE",
"345 54 OFFCURVE",
"233 54 CURVE SMOOTH",
"166 54 OFFCURVE",
"122 89 OFFCURVE",
"122 141 CURVE SMOOTH"
);
}
);
width = 608;
},
{
associatedMasterId = "B5B6FC57-28DA-495E-8DF1-4E68D36FF5F4";
layerId = "0537B32A-2734-4DFA-9A1C-89F9062F5633";
name = "Apr 30 19, 02:56";
paths = (
{
closed = 1;
nodes = (
"42 50 OFFCURVE",
"118 -10 OFFCURVE",
"233 -10 CURVE SMOOTH",
"335 -10 OFFCURVE",
"412 34 OFFCURVE",
"425 100 CURVE",
"430 8 OFFCURVE",
"501 -17 OFFCURVE",
"552 -2 CURVE",
"552 62 LINE",
"520 57 OFFCURVE",
"502 60 OFFCURVE",
"502 154 CURVE",
"502 344 LINE",
"502 444 OFFCURVE",
"414 510 OFFCURVE",
"283 510 CURVE SMOOTH",
"157 510 OFFCURVE",
"66 456 OFFCURVE",
"56 375 CURVE",
"122 350 LINE",
"131 405 OFFCURVE",
"195 442 OFFCURVE",
"283 442 CURVE SMOOTH",
"366 442 OFFCURVE",
"422 413 OFFCURVE",
"422 369 CURVE SMOOTH",
"422 322 OFFCURVE",
"346 298 OFFCURVE",
"233 291 CURVE SMOOTH",
"113 284 OFFCURVE",
"42 228 OFFCURVE",
"42 141 CURVE SMOOTH"
);
},
{
closed = 1;
nodes = (
"122 188 OFFCURVE",
"163 218 OFFCURVE",
"233 223 CURVE SMOOTH",
"325 230 OFFCURVE",
"401 239 OFFCURVE",
"422 262 CURVE",
"421 137 OFFCURVE",
"345 54 OFFCURVE",
"233 54 CURVE SMOOTH",
"166 54 OFFCURVE",
"122 89 OFFCURVE",
"122 141 CURVE SMOOTH"
);
}
);
width = 594;
},
{
associatedMasterId = "273DC1B6-0844-4B23-906D-30A1B3BA0B12";
layerId = "C2F86973-47C1-470A-887F-8A6A9312A160";
name = "Apr 30 19, 04:19";
paths = (
{
closed = 1;
nodes = (
"55 50 OFFCURVE",
"129 -10 OFFCURVE",
"240 -10 CURVE SMOOTH",
"344 -10 OFFCURVE",
"425 55 OFFCURVE",
"459 150 CURVE",
"460 48 OFFCURVE",
"491 -20 OFFCURVE",
"559 -3 CURVE",
"559 27 LINE",
"509 9 OFFCURVE",
"489 68 OFFCURVE",
"489 152 CURVE SMOOTH",
"489 369 LINE SMOOTH",
"489 451 OFFCURVE",
"407 506 OFFCURVE",
"285 506 CURVE SMOOTH",
"166 506 OFFCURVE",
"80 454 OFFCURVE",
"70 375 CURVE",
"99 366 LINE",
"109 442 OFFCURVE",
"183 477 OFFCURVE",
"285 477 CURVE SMOOTH",
"389 477 OFFCURVE",
"459 433 OFFCURVE",
"459 369 CURVE SMOOTH",
"459 310 OFFCURVE",
"371 278 OFFCURVE",
"240 271 CURVE SMOOTH",
"129 265 OFFCURVE",
"55 216 OFFCURVE",
"55 133 CURVE SMOOTH"
);
},
{
closed = 1;
nodes = (
"85 198 OFFCURVE",
"147 235 OFFCURVE",
"240 242 CURVE SMOOTH",
"338 249 OFFCURVE",
"425 267 OFFCURVE",
"459 304 CURVE",
"458 138 OFFCURVE",
"370 19 OFFCURVE",
"240 19 CURVE SMOOTH",
"147 19 OFFCURVE",
"85 68 OFFCURVE",
"85 133 CURVE SMOOTH"
);
}
);
width = 600;
},
{
associatedMasterId = "0E084538-2240-41A5-9525-5B99B37478DA";
background = {
paths = (
{
closed = 1;
nodes = (
"413 171 LINE",
"403 136 OFFCURVE",
"359 113 OFFCURVE",
"302 114 CURVE SMOOTH",
"247 115 OFFCURVE",
"211 128 OFFCURVE",
"211 146 CURVE SMOOTH",
"211 169 OFFCURVE",
"234 179 OFFCURVE",
"300 185 CURVE SMOOTH",
"480 205 OFFCURVE",
"542 249 OFFCURVE",
"542 355 CURVE SMOOTH",
"542 455 OFFCURVE",
"445 521 OFFCURVE",
"300 521 CURVE SMOOTH",
"171 521 OFFCURVE",
"79 469 OFFCURVE",
"69 390 CURVE",
"209 354 LINE",
"212 376 OFFCURVE",
"248 391 OFFCURVE",
"300 391 CURVE SMOOTH",
"349 391 OFFCURVE",
"382 377 OFFCURVE",
"382 355 CURVE SMOOTH",
"382 331 OFFCURVE",
"361 321 OFFCURVE",
"300 316 CURVE SMOOTH",
"115 294 OFFCURVE",
"51 250 OFFCURVE",
"51 146 CURVE SMOOTH",
"51 49 OFFCURVE",
"151 -16 OFFCURVE",
"302 -16 CURVE SMOOTH",
"447 -16 OFFCURVE",
"547 43 OFFCURVE",
"552 131 CURVE"
);
}
);
};
layerId = "B89A469C-D0DC-40AB-BCA4-31A8FF3E6CA8";
name = "Apr 30 19, 10:10";
paths = (
{
closed = 1;
nodes = (
"51 50 OFFCURVE",
"130 -20 OFFCURVE",
"256 -20 CURVE SMOOTH",
"355 -20 OFFCURVE",
"428 8 OFFCURVE",
"440 51 CURVE",
"452 0 OFFCURVE",
"534 -38 OFFCURVE",
"611 2 CURVE",
"611 133 LINE",
"573 127 OFFCURVE",
"548 143 OFFCURVE",
"548 172 CURVE",
"548 314 LINE",
"548 450 OFFCURVE",
"461 521 OFFCURVE",
"295 521 CURVE SMOOTH",
"175 521 OFFCURVE",
"85 469 OFFCURVE",
"69 391 CURVE",
"208 354 LINE",
"216 376 OFFCURVE",
"251 391 OFFCURVE",
"295 391 CURVE SMOOTH",
"347 391 OFFCURVE",
"382 375 OFFCURVE",
"382 352 CURVE SMOOTH",
"382 329 OFFCURVE",
"357 320 OFFCURVE",
"258 310 CURVE SMOOTH",
"122 297 OFFCURVE",
"51 241 OFFCURVE",
"51 148 CURVE SMOOTH"
);
},
{
closed = 1;
nodes = (
"211 165 OFFCURVE",
"233 177 OFFCURVE",
"274 181 CURVE SMOOTH",
"329 187 OFFCURVE",
"374 194 OFFCURVE",
"387 210 CURVE",
"387 147 OFFCURVE",
"347 112 OFFCURVE",
"293 107 CURVE SMOOTH",
"242 102 OFFCURVE",
"211 122 OFFCURVE",
"211 144 CURVE SMOOTH"
);
}
);
width = 659;
},
{
associatedMasterId = "0E084538-2240-41A5-9525-5B99B37478DA";
background = {
paths = (
{
closed = 1;
nodes = (
"410 171 LINE",
"400 136 OFFCURVE",
"356 113 OFFCURVE",
"299 114 CURVE SMOOTH",
"244 115 OFFCURVE",
"208 128 OFFCURVE",
"208 146 CURVE SMOOTH",
"208 169 OFFCURVE",
"231 179 OFFCURVE",
"297 185 CURVE SMOOTH",
"477 205 OFFCURVE",
"539 249 OFFCURVE",
"539 355 CURVE SMOOTH",
"539 455 OFFCURVE",
"442 521 OFFCURVE",
"297 521 CURVE SMOOTH",
"168 521 OFFCURVE",
"76 469 OFFCURVE",
"66 390 CURVE",
"206 354 LINE",
"209 376 OFFCURVE",
"245 391 OFFCURVE",
"297 391 CURVE SMOOTH",
"346 391 OFFCURVE",
"379 377 OFFCURVE",
"379 355 CURVE SMOOTH",
"379 331 OFFCURVE",
"358 321 OFFCURVE",
"297 316 CURVE SMOOTH",
"112 294 OFFCURVE",
"48 250 OFFCURVE",
"48 146 CURVE SMOOTH",
"48 49 OFFCURVE",
"148 -16 OFFCURVE",
"299 -16 CURVE SMOOTH",
"444 -16 OFFCURVE",
"544 43 OFFCURVE",
"549 131 CURVE"
);
}
);
};
layerId = "5A38D2EA-76EA-481B-823E-6DE0BCF91FB5";
name = "May 1 19, 19:52";
paths = (
{
closed = 1;
nodes = (
"48 50 OFFCURVE",
"127 -20 OFFCURVE",
"253 -20 CURVE SMOOTH",
"352 -20 OFFCURVE",
"425 10 OFFCURVE",
"437 56 CURVE",
"449 5 OFFCURVE",
"531 -37 OFFCURVE",
"608 3 CURVE",
"608 133 LINE",
"570 127 OFFCURVE",
"545 143 OFFCURVE",
"545 172 CURVE",
"545 314 LINE",
"545 438 OFFCURVE",
"452 521 OFFCURVE",
"312 521 CURVE SMOOTH",
"180 521 OFFCURVE",
"82 469 OFFCURVE",
"66 391 CURVE",
"205 354 LINE",
"213 376 OFFCURVE",
"248 391 OFFCURVE",
"292 391 CURVE SMOOTH",
"344 391 OFFCURVE",
"379 375 OFFCURVE",
"379 352 CURVE SMOOTH",
"379 329 OFFCURVE",
"354 320 OFFCURVE",
"255 310 CURVE SMOOTH",
"119 297 OFFCURVE",
"48 241 OFFCURVE",
"48 148 CURVE SMOOTH"
);
},
{
closed = 1;
nodes = (
"208 165 OFFCURVE",
"230 177 OFFCURVE",
"271 181 CURVE SMOOTH",
"326 187 OFFCURVE",
"371 194 OFFCURVE",
"384 210 CURVE",
"384 147 OFFCURVE",
"344 112 OFFCURVE",
"290 107 CURVE SMOOTH",
"239 102 OFFCURVE",
"208 122 OFFCURVE",
"208 144 CURVE SMOOTH"
);
}
);
width = 656;
},
{
associatedMasterId = "273DC1B6-0844-4B23-906D-30A1B3BA0B12";
layerId = "8758FBA9-A7A7-4D3D-9050-F4426988CA62";
name = "May 2 19, 03:46";
paths = (
{
closed = 1;
nodes = (
"75 41 OFFCURVE",
"159 -10 OFFCURVE",
"260 -10 CURVE SMOOTH",
"374 -10 OFFCURVE",
"445 55 OFFCURVE",
"479 150 CURVE",
"480 48 OFFCURVE",
"511 -20 OFFCURVE",
"579 -3 CURVE",
"579 27 LINE",
"529 9 OFFCURVE",
"509 68 OFFCURVE",
"509 152 CURVE SMOOTH",
"509 369 LINE SMOOTH",
"509 451 OFFCURVE",
"427 510 OFFCURVE",
"305 510 CURVE SMOOTH",
"186 510 OFFCURVE",
"100 454 OFFCURVE",
"90 375 CURVE",
"119 366 LINE",
"129 442 OFFCURVE",
"207 481 OFFCURVE",
"305 481 CURVE SMOOTH",
"413 481 OFFCURVE",
"479 422 OFFCURVE",
"479 369 CURVE SMOOTH",
"479 299 OFFCURVE",
"366 277 OFFCURVE",
"260 271 CURVE SMOOTH",
"124 263 OFFCURVE",
"75 207 OFFCURVE",
"75 133 CURVE SMOOTH"
);
},
{
closed = 1;
nodes = (
"105 189 OFFCURVE",
"141 234 OFFCURVE",
"260 242 CURVE SMOOTH",
"332 247 OFFCURVE",
"445 267 OFFCURVE",
"479 304 CURVE",
"478 138 OFFCURVE",
"401 19 OFFCURVE",
"260 19 CURVE SMOOTH",
"178 19 OFFCURVE",
"105 59 OFFCURVE",
"105 133 CURVE SMOOTH"
);
}
);
width = 600;
},
{
associatedMasterId = "B5B6FC57-28DA-495E-8DF1-4E68D36FF5F4";
layerId = "7A79E395-65A1-422D-8AA9-5F250C627951";
name = "May 4 19, 19:52";
paths = (
{
closed = 1;
nodes = (
"48 52 OFFCURVE",
"120 -10 OFFCURVE",
"239 -10 CURVE SMOOTH",
"336 -10 OFFCURVE",
"417 30 OFFCURVE",
"431 90 CURVE",
"436 11 OFFCURVE",
"522 -17 OFFCURVE",
"558 -3 CURVE",
"558 67 LINE",
"535 61 OFFCURVE",
"504 60 OFFCURVE",
"504 154 CURVE",
"504 349 LINE",
"504 450 OFFCURVE",
"422 510 OFFCURVE",
"284 510 CURVE SMOOTH",
"158 510 OFFCURVE",
"72 460 OFFCURVE",
"62 384 CURVE",
"136 360 LINE",
"144 408 OFFCURVE",
"198 440 OFFCURVE",
"284 440 CURVE SMOOTH",
"365 440 OFFCURVE",
"428 413 OFFCURVE",
"428 369 CURVE SMOOTH",
"428 325 OFFCURVE",
"366 305 OFFCURVE",
"230 297 CURVE SMOOTH",
"121 290 OFFCURVE",
"48 230 OFFCURVE",
"48 141 CURVE SMOOTH"
);
},
{
closed = 1;
nodes = (
"128 189 OFFCURVE",
"169 224 OFFCURVE",
"230 227 CURVE SMOOTH",
"343 233 OFFCURVE",
"405 246 OFFCURVE",
"428 271 CURVE",
"427 144 OFFCURVE",
"350 60 OFFCURVE",
"239 60 CURVE SMOOTH",
"171 60 OFFCURVE",
"128 91 OFFCURVE",
"128 141 CURVE SMOOTH"
);
}
);
width = 606;
}
);
unicode = 0061;
},
{
glyphname = b;
lastChange = "2019-05-02 13:14:24 +0000";
layers = (
{
background = {
paths = (
{
closed = 1;
nodes = (
"460 -10 OFFCURVE",
"566 96 OFFCURVE",
"566 254 CURVE SMOOTH",
"566 408 OFFCURVE",
"460 510 OFFCURVE",
"301 510 CURVE SMOOTH",
"141 510 OFFCURVE",
"34 408 OFFCURVE",
"34 254 CURVE SMOOTH",
"34 96 OFFCURVE",
"141 -10 OFFCURVE",
"301 -10 CURVE SMOOTH"
);
},
{
closed = 1;
nodes = (
"189 60 OFFCURVE",
"114 138 OFFCURVE",
"114 254 CURVE SMOOTH",
"114 366 OFFCURVE",
"189 440 OFFCURVE",
"301 440 CURVE SMOOTH",
"412 440 OFFCURVE",
"486 366 OFFCURVE",
"486 254 CURVE SMOOTH",
"486 138 OFFCURVE",
"412 60 OFFCURVE",
"301 60 CURVE SMOOTH"
);
}
);
};
layerId = "B5B6FC57-28DA-495E-8DF1-4E68D36FF5F4";
paths = (
{
closed = 1;
nodes = (
"130 0 LINE",
"130 76 LINE",
"160 23 OFFCURVE",
"231 -10 OFFCURVE",
"317 -10 CURVE SMOOTH",
"474 -10 OFFCURVE",
"583 98 OFFCURVE",
"583 254 CURVE SMOOTH",
"583 405 OFFCURVE",
"474 510 OFFCURVE",
"317 510 CURVE SMOOTH",
"232 510 OFFCURVE",
"161 478 OFFCURVE",
"130 426 CURVE",
"130 700 LINE",
"50 700 LINE",
"50 0 LINE"
);
},
{
closed = 1;
nodes = (
"129 366 OFFCURVE",
"203 440 OFFCURVE",
"317 440 CURVE SMOOTH",
"430 440 OFFCURVE",
"502 367 OFFCURVE",
"502 254 CURVE SMOOTH",
"502 138 OFFCURVE",
"428 60 OFFCURVE",
"317 60 CURVE SMOOTH",
"206 60 OFFCURVE",
"129 140 OFFCURVE",
"129 254 CURVE SMOOTH"
);
}
);
width = 631;
},
{
background = {
paths = (
{
closed = 1;
nodes = (
"460 -10 OFFCURVE",
"562 96 OFFCURVE",
"562 254 CURVE SMOOTH",
"562 408 OFFCURVE",
"460 510 OFFCURVE",
"307 510 CURVE SMOOTH",
"153 510 OFFCURVE",
"50 408 OFFCURVE",
"50 254 CURVE SMOOTH",
"50 96 OFFCURVE",
"153 -10 OFFCURVE",
"307 -10 CURVE SMOOTH"
);
},
{
closed = 1;
nodes = (
"171 19 OFFCURVE",
"80 113 OFFCURVE",
"80 254 CURVE SMOOTH",
"80 390 OFFCURVE",
"171 481 OFFCURVE",
"307 481 CURVE SMOOTH",
"442 481 OFFCURVE",
"532 390 OFFCURVE",
"532 254 CURVE SMOOTH",
"532 113 OFFCURVE",
"442 19 OFFCURVE",
"307 19 CURVE SMOOTH"
);
}
);
};
layerId = "273DC1B6-0844-4B23-906D-30A1B3BA0B12";
paths = (
{
closed = 1;
nodes = (
"80 0 LINE",
"80 125 LINE",
"114 41 OFFCURVE",
"198 -10 OFFCURVE",
"302 -10 CURVE SMOOTH",
"456 -10 OFFCURVE",
"563 99 OFFCURVE",
"563 254 CURVE SMOOTH",
"563 403 OFFCURVE",
"454 510 OFFCURVE",
"302 510 CURVE SMOOTH",
"201 510 OFFCURVE",
"119 461 OFFCURVE",
"80 379 CURVE",
"80 700 LINE",
"50 700 LINE",
"50 0 LINE"
);
},
{
closed = 1;
nodes = (
"80 392 OFFCURVE",
"167 481 OFFCURVE",
"302 481 CURVE SMOOTH",
"440 481 OFFCURVE",
"532 391 OFFCURVE",
"532 254 CURVE SMOOTH",
"532 115 OFFCURVE",
"438 19 OFFCURVE",
"302 19 CURVE SMOOTH",
"169 19 OFFCURVE",
"80 114 OFFCURVE",
"80 254 CURVE SMOOTH"
);
}
);
width = 611;
},
{
background = {
paths = (
{
closed = 1;
nodes = (
"493 -20 OFFCURVE",
"602 90 OFFCURVE",
"602 254 CURVE SMOOTH",
"602 414 OFFCURVE",
"493 521 OFFCURVE",
"329 521 CURVE SMOOTH",
"165 521 OFFCURVE",
"55 414 OFFCURVE",
"55 254 CURVE SMOOTH",
"55 90 OFFCURVE",
"165 -20 OFFCURVE",
"329 -20 CURVE SMOOTH"
);
},
{
closed = 1;
nodes = (
"261 130 OFFCURVE",
"215 180 OFFCURVE",
"215 254 CURVE SMOOTH",
"215 324 OFFCURVE",
"261 371 OFFCURVE",
"329 371 CURVE SMOOTH",
"397 371 OFFCURVE",
"442 324 OFFCURVE",
"442 254 CURVE SMOOTH",
"442 180 OFFCURVE",
"397 130 OFFCURVE",
"329 130 CURVE SMOOTH"
);
}
);
};
layerId = "0E084538-2240-41A5-9525-5B99B37478DA";
paths = (
{
closed = 1;
nodes = (
"210 0 LINE",
"210 61 LINE",
"233 9 OFFCURVE",
"287 -20 OFFCURVE",
"358 -20 CURVE SMOOTH",
"500 -20 OFFCURVE",
"602 95 OFFCURVE",
"602 255 CURVE SMOOTH",
"602 408 OFFCURVE",
"499 520 OFFCURVE",
"358 520 CURVE SMOOTH",
"292 520 OFFCURVE",
"241 494 OFFCURVE",
"210 445 CURVE",
"210 700 LINE",
"50 700 LINE",
"50 0 LINE"
);
},
{
closed = 1;
nodes = (
"215 325 OFFCURVE",
"260 371 OFFCURVE",
"330 371 CURVE SMOOTH",
"399 371 OFFCURVE",
"442 326 OFFCURVE",
"442 255 CURVE SMOOTH",
"442 180 OFFCURVE",
"397 130 OFFCURVE",
"330 130 CURVE SMOOTH",
"263 130 OFFCURVE",
"215 182 OFFCURVE",
"215 255 CURVE SMOOTH"
);
}
);
width = 650;
},
{
associatedMasterId = "273DC1B6-0844-4B23-906D-30A1B3BA0B12";
layerId = "F7ECBC73-3A47-4B5E-8399-0D68297ADC4A";
width = 600;
},
{
associatedMasterId = "B5B6FC57-28DA-495E-8DF1-4E68D36FF5F4";
background = {
paths = (
{
closed = 1;
nodes = (
"496 -10 OFFCURVE",
"602 96 OFFCURVE",
"602 254 CURVE SMOOTH",
"602 408 OFFCURVE",
"496 510 OFFCURVE",
"337 510 CURVE SMOOTH",
"177 510 OFFCURVE",
"70 408 OFFCURVE",
"70 254 CURVE SMOOTH",
"70 96 OFFCURVE",
"177 -10 OFFCURVE",
"337 -10 CURVE SMOOTH"
);
},
{
closed = 1;
nodes = (
"225 60 OFFCURVE",
"150 138 OFFCURVE",
"150 254 CURVE SMOOTH",
"150 366 OFFCURVE",
"225 440 OFFCURVE",
"337 440 CURVE SMOOTH",
"448 440 OFFCURVE",
"522 366 OFFCURVE",
"522 254 CURVE SMOOTH",
"522 138 OFFCURVE",
"448 60 OFFCURVE",
"337 60 CURVE SMOOTH"
);
}
);
};
layerId = "808F2595-CB51-4A11-A0FF-8180A2540F71";
name = "Apr 29 19, 23:19";
paths = (
{
closed = 1;
nodes = (
"149 0 LINE",
"149 76 LINE",
"178 24 OFFCURVE",
"253 -10 OFFCURVE",
"336 -10 CURVE SMOOTH",
"496 -10 OFFCURVE",
"602 96 OFFCURVE",
"602 254 CURVE SMOOTH",
"602 408 OFFCURVE",
"496 510 OFFCURVE",
"336 510 CURVE SMOOTH",
"254 510 OFFCURVE",
"179 476 OFFCURVE",
"149 426 CURVE",
"149 700 LINE",
"69 700 LINE",
"69 0 LINE"
);
},
{
closed = 1;
nodes = (
"148 366 OFFCURVE",
"223 440 OFFCURVE",
"336 440 CURVE SMOOTH",
"447 440 OFFCURVE",
"521 366 OFFCURVE",
"521 254 CURVE SMOOTH",
"521 138 OFFCURVE",
"447 60 OFFCURVE",
"336 60 CURVE SMOOTH",
"223 60 OFFCURVE",
"148 138 OFFCURVE",
"148 254 CURVE SMOOTH"
);
}
);
width = 668;
},
{
associatedMasterId = "273DC1B6-0844-4B23-906D-30A1B3BA0B12";
background = {
paths = (
{
closed = 1;
nodes = (
"445 -10 OFFCURVE",
"543 96 OFFCURVE",
"543 254 CURVE SMOOTH",
"543 408 OFFCURVE",
"445 510 OFFCURVE",
"298 510 CURVE SMOOTH",
"150 510 OFFCURVE",
"51 408 OFFCURVE",
"51 254 CURVE SMOOTH",
"51 96 OFFCURVE",
"150 -10 OFFCURVE",
"298 -10 CURVE SMOOTH"
);
},
{
closed = 1;
nodes = (
"168 19 OFFCURVE",
"81 113 OFFCURVE",
"81 254 CURVE SMOOTH",
"81 390 OFFCURVE",
"168 481 OFFCURVE",
"298 481 CURVE SMOOTH",
"427 481 OFFCURVE",
"513 390 OFFCURVE",
"513 254 CURVE SMOOTH",
"513 113 OFFCURVE",
"427 19 OFFCURVE",
"298 19 CURVE SMOOTH"
);
}
);
};
layerId = "809B97AB-BE83-4448-A1E7-7F8E7C7DF5BD";
name = "Apr 30 19, 04:10";
paths = (
{
closed = 1;
nodes = (
"80 0 LINE",
"80 125 LINE",
"123 44 OFFCURVE",
"208 -10 OFFCURVE",
"292 -10 CURVE SMOOTH",
"443 -10 OFFCURVE",
"544 96 OFFCURVE",
"544 254 CURVE SMOOTH",
"544 408 OFFCURVE",
"443 510 OFFCURVE",
"292 510 CURVE SMOOTH",
"204 510 OFFCURVE",
"119 459 OFFCURVE",
"80 382 CURVE",
"80 700 LINE",
"50 700 LINE",
"50 0 LINE"
);
},
{
closed = 1;
nodes = (
"79 390 OFFCURVE",
"164 481 OFFCURVE",
"292 481 CURVE SMOOTH",
"425 481 OFFCURVE",
"513 390 OFFCURVE",
"513 254 CURVE SMOOTH",
"513 113 OFFCURVE",
"425 19 OFFCURVE",
"292 19 CURVE SMOOTH",
"164 19 OFFCURVE",
"79 113 OFFCURVE",
"79 254 CURVE SMOOTH"
);
}
);
width = 592;
},
{
associatedMasterId = "0E084538-2240-41A5-9525-5B99B37478DA";
layerId = "50514B10-1F27-48F5-8A09-0D5CD3479263";
name = "Apr 30 19, 09:21";
paths = (
{
closed = 1;
nodes = (
"202 0 LINE",
"202 81 LINE",
"202 71 OFFCURVE",
"265 -16 OFFCURVE",
"354 -16 CURVE SMOOTH",
"501 -16 OFFCURVE",
"596 91 OFFCURVE",
"596 251 CURVE SMOOTH",
"596 413 OFFCURVE",
"501 521 OFFCURVE",
"354 521 CURVE SMOOTH",
"269 521 OFFCURVE",
"202 437 OFFCURVE",
"202 425 CURVE",
"202 700 LINE",
"49 700 LINE",
"49 0 LINE"
);
},
{
closed = 1;
nodes = (
"209 330 OFFCURVE",
"255 381 OFFCURVE",
"324 381 CURVE SMOOTH",
"391 381 OFFCURVE",
"436 330 OFFCURVE",
"436 253 CURVE SMOOTH",
"436 176 OFFCURVE",
"391 124 OFFCURVE",
"324 124 CURVE SMOOTH",
"255 124 OFFCURVE",
"209 176 OFFCURVE",
"209 253 CURVE SMOOTH"
);
}
);
width = 654;
},
{
associatedMasterId = "0E084538-2240-41A5-9525-5B99B37478DA";
background = {
paths = (
{
closed = 1;
nodes = (
"487 -16 OFFCURVE",
"596 92 OFFCURVE",
"596 254 CURVE SMOOTH",
"596 414 OFFCURVE",
"487 521 OFFCURVE",
"323 521 CURVE SMOOTH",
"159 521 OFFCURVE",
"49 414 OFFCURVE",
"49 254 CURVE SMOOTH",
"49 92 OFFCURVE",
"159 -16 OFFCURVE",
"323 -16 CURVE SMOOTH"
);
},
{
closed = 1;
nodes = (
"255 134 OFFCURVE",
"209 182 OFFCURVE",
"209 254 CURVE SMOOTH",
"209 324 OFFCURVE",
"255 371 OFFCURVE",
"323 371 CURVE SMOOTH",
"391 371 OFFCURVE",
"436 324 OFFCURVE",
"436 254 CURVE SMOOTH",
"436 182 OFFCURVE",
"391 134 OFFCURVE",
"323 134 CURVE SMOOTH"
);
}
);
};
layerId = "EB3A4885-CAC0-4ACE-91A3-6B04370B8922";
name = "Apr 30 19, 09:28";
paths = (
{
closed = 1;
nodes = (
"203 0 LINE",
"203 51 LINE",
"219 8 OFFCURVE",
"278 -20 OFFCURVE",
"351 -20 CURVE SMOOTH",
"499 -20 OFFCURVE",
"598 88 OFFCURVE",
"598 251 CURVE SMOOTH",
"598 412 OFFCURVE",
"499 520 OFFCURVE",
"351 520 CURVE SMOOTH",
"272 520 OFFCURVE",
"213 494 OFFCURVE",
"203 455 CURVE",
"203 700 LINE",
"50 700 LINE",
"50 0 LINE"
);
},
{
closed = 1;
nodes = (
"209 324 OFFCURVE",
"255 371 OFFCURVE",
"324 371 CURVE SMOOTH",
"391 371 OFFCURVE",
"436 324 OFFCURVE",
"436 253 CURVE SMOOTH",
"436 182 OFFCURVE",
"391 134 OFFCURVE",
"324 134 CURVE SMOOTH",
"255 134 OFFCURVE",
"209 182 OFFCURVE",
"209 253 CURVE SMOOTH"
);
}
);
width = 646;
},
{
associatedMasterId = "0E084538-2240-41A5-9525-5B99B37478DA";
background = {
paths = (
{
closed = 1;
nodes = (
"487 -16 OFFCURVE",
"596 92 OFFCURVE",
"596 254 CURVE SMOOTH",
"596 414 OFFCURVE",
"487 521 OFFCURVE",
"323 521 CURVE SMOOTH",
"159 521 OFFCURVE",
"49 414 OFFCURVE",
"49 254 CURVE SMOOTH",
"49 92 OFFCURVE",
"159 -16 OFFCURVE",
"323 -16 CURVE SMOOTH"
);
},
{
closed = 1;
nodes = (
"255 134 OFFCURVE",
"209 182 OFFCURVE",
"209 254 CURVE SMOOTH",
"209 324 OFFCURVE",
"255 371 OFFCURVE",
"323 371 CURVE SMOOTH",
"391 371 OFFCURVE",
"436 324 OFFCURVE",
"436 254 CURVE SMOOTH",
"436 182 OFFCURVE",
"391 134 OFFCURVE",
"323 134 CURVE SMOOTH"
);
}
);
};
layerId = "391832C8-E2EF-4925-9685-6331384C88C6";
name = "Apr 30 19, 09:31";
paths = (
{
closed = 1;
nodes = (
"203 0 LINE",
"203 61 LINE",
"225 12 OFFCURVE",
"292 -20 OFFCURVE",
"371 -20 CURVE SMOOTH",
"507 -20 OFFCURVE",
"598 88 OFFCURVE",
"598 251 CURVE SMOOTH",
"598 412 OFFCURVE",
"507 520 OFFCURVE",
"371 520 CURVE SMOOTH",
"298 520 OFFCURVE",
"231 490 OFFCURVE",
"203 445 CURVE",
"203 700 LINE",
"50 700 LINE",
"50 0 LINE"
);
},
{
closed = 1;
nodes = (
"209 324 OFFCURVE",
"255 371 OFFCURVE",
"324 371 CURVE SMOOTH",
"391 371 OFFCURVE",
"436 324 OFFCURVE",
"436 253 CURVE SMOOTH",
"436 182 OFFCURVE",
"391 134 OFFCURVE",
"324 134 CURVE SMOOTH",
"255 134 OFFCURVE",
"209 182 OFFCURVE",
"209 253 CURVE SMOOTH"
);
}
);
width = 646;
},
{
associatedMasterId = "0E084538-2240-41A5-9525-5B99B37478DA";
background = {
paths = (
{
closed = 1;
nodes = (
"487 -16 OFFCURVE",
"596 92 OFFCURVE",
"596 254 CURVE SMOOTH",
"596 414 OFFCURVE",
"487 521 OFFCURVE",
"323 521 CURVE SMOOTH",
"159 521 OFFCURVE",
"49 414 OFFCURVE",
"49 254 CURVE SMOOTH",
"49 92 OFFCURVE",
"159 -16 OFFCURVE",
"323 -16 CURVE SMOOTH"
);
},
{
closed = 1;
nodes = (
"255 134 OFFCURVE",
"209 182 OFFCURVE",
"209 254 CURVE SMOOTH",
"209 324 OFFCURVE",
"255 371 OFFCURVE",
"323 371 CURVE SMOOTH",
"391 371 OFFCURVE",
"436 324 OFFCURVE",
"436 254 CURVE SMOOTH",
"436 182 OFFCURVE",
"391 134 OFFCURVE",
"323 134 CURVE SMOOTH"
);
}
);
};
layerId = "620F562A-B16F-4315-A042-EEA0D8B074E2";
name = "Apr 30 19, 09:32";
paths = (
{
closed = 1;
nodes = (
"203 0 LINE",
"203 61 LINE",
"225 12 OFFCURVE",
"284 -20 OFFCURVE",
"351 -20 CURVE SMOOTH",
"499 -20 OFFCURVE",
"598 88 OFFCURVE",
"598 251 CURVE SMOOTH",
"598 412 OFFCURVE",
"499 520 OFFCURVE",
"351 520 CURVE SMOOTH",
"290 520 OFFCURVE",
"231 490 OFFCURVE",
"203 445 CURVE",
"203 700 LINE",
"50 700 LINE",
"50 0 LINE"
);
},
{
closed = 1;
nodes = (
"209 324 OFFCURVE",
"255 371 OFFCURVE",
"324 371 CURVE SMOOTH",
"391 371 OFFCURVE",
"436 324 OFFCURVE",
"436 253 CURVE SMOOTH",
"436 182 OFFCURVE",
"391 134 OFFCURVE",
"324 134 CURVE SMOOTH",
"255 134 OFFCURVE",
"209 182 OFFCURVE",
"209 253 CURVE SMOOTH"
);
}
);
width = 646;
},
{
associatedMasterId = "0E084538-2240-41A5-9525-5B99B37478DA";
background = {
paths = (
{
closed = 1;
nodes = (
"486 -20 OFFCURVE",
"595 90 OFFCURVE",
"595 254 CURVE SMOOTH",
"595 414 OFFCURVE",
"486 521 OFFCURVE",
"322 521 CURVE SMOOTH",
"158 521 OFFCURVE",
"48 414 OFFCURVE",
"48 254 CURVE SMOOTH",
"48 90 OFFCURVE",
"158 -20 OFFCURVE",
"322 -20 CURVE SMOOTH"
);
},
{
closed = 1;
nodes = (
"254 130 OFFCURVE",
"208 180 OFFCURVE",
"208 254 CURVE SMOOTH",
"208 324 OFFCURVE",
"254 371 OFFCURVE",
"322 371 CURVE SMOOTH",
"390 371 OFFCURVE",
"435 324 OFFCURVE",
"435 254 CURVE SMOOTH",
"435 180 OFFCURVE",
"390 130 OFFCURVE",
"322 130 CURVE SMOOTH"
);
}
);
};
layerId = "20A2DB78-8851-4BA6-9F30-C8C3C785350F";
name = "Apr 30 19, 09:46";
paths = (
{
closed = 1;
nodes = (
"203 0 LINE",
"203 61 LINE",
"225 12 OFFCURVE",
"284 -20 OFFCURVE",
"351 -20 CURVE SMOOTH",
"497 -20 OFFCURVE",
"595 90 OFFCURVE",
"595 255 CURVE SMOOTH",
"595 414 OFFCURVE",
"497 520 OFFCURVE",
"351 520 CURVE SMOOTH",
"290 520 OFFCURVE",
"231 490 OFFCURVE",
"203 445 CURVE",
"203 700 LINE",
"43 700 LINE",
"43 0 LINE"
);
},
{
closed = 1;
nodes = (
"208 325 OFFCURVE",
"254 371 OFFCURVE",
"323 371 CURVE SMOOTH",
"390 371 OFFCURVE",
"435 325 OFFCURVE",
"435 255 CURVE SMOOTH",
"435 180 OFFCURVE",
"390 130 OFFCURVE",
"323 130 CURVE SMOOTH",
"254 130 OFFCURVE",
"208 180 OFFCURVE",
"208 255 CURVE SMOOTH"
);
}
);
width = 646;
},
{
associatedMasterId = "0E084538-2240-41A5-9525-5B99B37478DA";
background = {
paths = (
{
closed = 1;
nodes = (
"486 -20 OFFCURVE",
"595 90 OFFCURVE",
"595 254 CURVE SMOOTH",
"595 414 OFFCURVE",
"486 521 OFFCURVE",
"322 521 CURVE SMOOTH",
"158 521 OFFCURVE",
"48 414 OFFCURVE",
"48 254 CURVE SMOOTH",
"48 90 OFFCURVE",
"158 -20 OFFCURVE",
"322 -20 CURVE SMOOTH"
);
},
{
closed = 1;
nodes = (
"254 130 OFFCURVE",
"208 180 OFFCURVE",
"208 254 CURVE SMOOTH",
"208 324 OFFCURVE",
"254 371 OFFCURVE",
"322 371 CURVE SMOOTH",
"390 371 OFFCURVE",
"435 324 OFFCURVE",
"435 254 CURVE SMOOTH",
"435 180 OFFCURVE",
"390 130 OFFCURVE",
"322 130 CURVE SMOOTH"
);
}
);
};
layerId = "8CF9FB34-6FBD-404E-9730-8B221257CEE1";
name = "Apr 30 19, 09:47";
paths = (
{
closed = 1;
nodes = (
"203 0 LINE",
"203 61 LINE",
"225 12 OFFCURVE",
"284 -20 OFFCURVE",
"351 -20 CURVE SMOOTH",
"497 -20 OFFCURVE",
"595 90 OFFCURVE",
"595 255 CURVE SMOOTH",
"595 414 OFFCURVE",
"497 520 OFFCURVE",
"351 520 CURVE SMOOTH",
"290 520 OFFCURVE",
"231 490 OFFCURVE",
"203 445 CURVE",
"203 700 LINE",
"43 700 LINE",
"43 0 LINE"
);
},
{
closed = 1;
nodes = (
"208 325 OFFCURVE",
"254 371 OFFCURVE",
"323 371 CURVE SMOOTH",
"390 371 OFFCURVE",
"435 325 OFFCURVE",
"435 255 CURVE SMOOTH",
"435 180 OFFCURVE",
"390 130 OFFCURVE",
"323 130 CURVE SMOOTH",
"254 130 OFFCURVE",
"208 180 OFFCURVE",
"208 255 CURVE SMOOTH"
);
}
);
width = 646;
}
);
leftMetricsKey = n;
rightMetricsKey = o;
unicode = 0062;
},
